<svg width="370" height="370" viewBox="0 0 370 370" fill="none" xmlns="http://www.w3.org/2000/svg">
<g clip-path="url(#clip0_4009_259)">
<rect x="22.4958" y="-107.496" width="281.992" height="281.992" rx="39.8349" transform="rotate(90 22.4958 -107.496)" fill="#FEFEFE" stroke="#D0D0D0" stroke-width="1.00848"/>
<g filter="url(#filter0_d_4009_259)">
<rect x="6.28906" y="-91.2734" width="249.565" height="249.565" rx="26.2204" transform="rotate(90 6.28906 -91.2734)" fill="white"/>
<rect x="5.78482" y="-90.7692" width="248.557" height="248.557" rx="25.7162" transform="rotate(90 5.78482 -90.7692)" stroke="#D0D0D0" stroke-width="1.00848"/>
</g>
<rect x="629.496" y="-107.496" width="281.992" height="281.992" rx="39.8349" transform="rotate(90 629.496 -107.496)" fill="#FEFEFE" stroke="#D0D0D0" stroke-width="1.00848"/>
<g filter="url(#filter1_d_4009_259)">
<rect x="613.289" y="-91.2734" width="249.565" height="249.565" rx="26.2204" transform="rotate(90 613.289 -91.2734)" fill="white"/>
<rect x="612.785" y="-90.7692" width="248.557" height="248.557" rx="25.7162" transform="rotate(90 612.785 -90.7692)" stroke="#D0D0D0" stroke-width="1.00848"/>
</g>
<rect x="629.496" y="195.504" width="281.992" height="281.992" rx="39.8349" transform="rotate(90 629.496 195.504)" fill="#FEFEFE" stroke="#D0D0D0" stroke-width="1.00848"/>
<g filter="url(#filter2_d_4009_259)">
<rect x="613.289" y="211.727" width="249.565" height="249.565" rx="26.2204" transform="rotate(90 613.289 211.727)" fill="white"/>
<rect x="612.785" y="212.231" width="248.557" height="248.557" rx="25.7162" transform="rotate(90 612.785 212.231)" stroke="#D0D0D0" stroke-width="1.00848"/>
</g>
<rect x="325.496" y="346.504" width="281.992" height="281.992" rx="39.8349" transform="rotate(90 325.496 346.504)" fill="#FEFEFE" stroke="#D0D0D0" stroke-width="1.00848"/>
<g filter="url(#filter3_d_4009_259)">
<rect x="309.289" y="362.727" width="249.565" height="249.565" rx="26.2204" transform="rotate(90 309.289 362.727)" fill="white"/>
<rect x="308.785" y="363.231" width="248.557" height="248.557" rx="25.7162" transform="rotate(90 308.785 363.231)" stroke="#D0D0D0" stroke-width="1.00848"/>
</g>
<rect x="21.4958" y="195.504" width="281.992" height="281.992" rx="39.8349" transform="rotate(90 21.4958 195.504)" fill="#FEFEFE" stroke="#D0D0D0" stroke-width="1.00848"/>
<g filter="url(#filter4_d_4009_259)">
<rect x="5.28906" y="211.727" width="249.565" height="249.565" rx="26.2204" transform="rotate(90 5.28906 211.727)" fill="white"/>
<rect x="4.78482" y="212.231" width="248.557" height="248.557" rx="25.7162" transform="rotate(90 4.78482 212.231)" stroke="#D0D0D0" stroke-width="1.00848"/>
</g>
<rect x="325.496" y="-259.496" width="281.992" height="281.992" rx="39.8349" transform="rotate(90 325.496 -259.496)" fill="#FEFEFE" stroke="#D0D0D0" stroke-width="1.00848"/>
<g filter="url(#filter5_d_4009_259)">
<rect x="309.289" y="-243.273" width="249.565" height="249.565" rx="26.2204" transform="rotate(90 309.289 -243.273)" fill="white"/>
<rect x="308.785" y="-242.769" width="248.557" height="248.557" rx="25.7162" transform="rotate(90 308.785 -242.769)" stroke="#D0D0D0" stroke-width="1.00848"/>
</g>
<rect x="326.496" y="43.5042" width="281.992" height="281.992" rx="39.8349" transform="rotate(90 326.496 43.5042)" fill="#FEFEFE" stroke="#D0D0D0" stroke-width="1.00848"/>
<g filter="url(#filter6_d_4009_259)">
<rect x="310.289" y="59.7266" width="249.565" height="249.565" rx="26.2204" transform="rotate(90 310.289 59.7266)" fill="white"/>
<rect x="309.785" y="60.2308" width="248.557" height="248.557" rx="25.7162" transform="rotate(90 309.785 60.2308)" stroke="#D0D0D0" stroke-width="1.00848"/>
</g>
<path d="M167.947 289.31C163.163 289.31 160.24 286.138 160.24 281.159C160.24 276.262 163.205 272.925 167.751 272.925C171.656 272.925 175.003 275.373 175.003 280.942V280.952C175.003 281.685 174.6 282.088 173.867 282.088H163.949C163.98 284.806 165.581 286.397 167.998 286.397C169.238 286.397 170.261 285.983 170.891 285.177C171.294 284.651 171.666 284.382 172.307 284.454L173.567 284.599C174.363 284.692 174.776 285.126 174.517 285.715C173.546 287.915 171.191 289.31 167.947 289.31ZM163.959 279.568H171.418C171.397 277.408 169.951 275.838 167.802 275.838C165.571 275.838 164.073 277.543 163.959 279.568ZM180.161 287.864C180.161 288.597 179.758 289 179.025 289H177.558C176.824 289 176.421 288.597 176.421 287.864V274.268C176.421 273.534 176.824 273.131 177.558 273.131H178.86C179.593 273.131 179.996 273.534 179.996 274.268V275.828H180.182C180.905 274.061 182.538 272.925 184.914 272.925C188.189 272.925 190.358 275.094 190.348 278.896V287.864C190.348 288.597 189.945 289 189.211 289H187.744C187.011 289 186.608 288.597 186.608 287.864V279.475C186.608 277.357 185.451 276.086 183.519 276.086C181.546 276.086 180.161 277.408 180.161 279.702V287.864ZM199.305 295.281C195.979 295.281 193.84 294.073 192.807 292.399C192.404 291.727 192.755 291.159 193.52 290.973L194.729 290.684C195.369 290.529 195.762 290.756 196.196 291.252C196.785 291.903 197.756 292.451 199.367 292.451C201.496 292.451 203.045 291.49 203.045 289.155V286.149H202.859C202.281 287.316 201.01 288.773 198.293 288.773C194.636 288.773 191.753 286.19 191.753 281.014C191.753 275.797 194.636 272.925 198.303 272.925C201.103 272.925 202.291 274.609 202.859 275.755H203.066V274.268C203.066 273.534 203.469 273.131 204.202 273.131H205.618C206.351 273.131 206.754 273.534 206.754 274.268V289.258C206.754 293.318 203.593 295.281 199.305 295.281ZM195.566 280.993C195.566 283.917 196.867 285.839 199.336 285.839C201.723 285.839 203.066 284.02 203.066 280.993C203.066 277.987 201.744 275.993 199.336 275.993C196.847 275.993 195.566 278.111 195.566 280.993ZM212.582 287.864C212.582 288.597 212.179 289 211.445 289H209.978C209.245 289 208.842 288.597 208.842 287.864V268.978C208.842 268.245 209.245 267.842 209.978 267.842H211.445C212.179 267.842 212.582 268.245 212.582 268.978V287.864ZM216.562 270.879C215.364 270.879 214.392 269.97 214.392 268.854C214.392 267.728 215.364 266.819 216.562 266.819C217.75 266.819 218.721 267.728 218.721 268.854C218.721 269.97 217.75 270.879 216.562 270.879ZM214.682 287.864V274.268C214.682 273.534 215.085 273.131 215.818 273.131H217.285C218.019 273.131 218.422 273.534 218.422 274.268V287.864C218.422 288.597 218.019 289 217.285 289H215.818C215.085 289 214.682 288.597 214.682 287.864ZM230.626 277.594C229.975 277.667 229.624 277.377 229.241 276.83C228.766 276.189 227.95 275.714 226.731 275.714C225.171 275.714 223.983 276.458 223.993 277.532C223.983 278.452 224.623 279.01 226.235 279.371L228.942 279.95C231.938 280.601 233.395 281.985 233.405 284.248C233.395 287.254 230.595 289.31 226.628 289.31C223.301 289.31 221.028 288.05 220.15 285.859C219.85 285.126 220.284 284.62 221.059 284.547L222.474 284.413C223.136 284.351 223.477 284.651 223.838 285.229C224.365 286.066 225.316 286.49 226.617 286.49C228.394 286.49 229.572 285.673 229.572 284.589C229.572 283.69 228.89 283.101 227.433 282.781L224.727 282.212C221.679 281.582 220.253 280.053 220.264 277.739C220.253 274.805 222.857 272.925 226.679 272.925C229.81 272.925 231.835 274.144 232.702 276.127C233.012 276.861 232.599 277.377 231.814 277.46L230.626 277.594ZM238.483 287.864C238.483 288.597 238.08 289 237.347 289H235.88C235.146 289 234.743 288.597 234.743 287.864V268.978C234.743 268.245 235.146 267.842 235.88 267.842H237.264C237.998 267.842 238.4 268.245 238.4 268.978V275.828H238.586C239.32 274.03 240.87 272.925 243.308 272.925C246.603 272.925 248.773 275.063 248.773 278.896V287.864C248.773 288.597 248.37 289 247.637 289H246.17C245.436 289 245.033 288.597 245.033 287.864V279.475C245.033 277.336 243.876 276.086 241.913 276.086C239.909 276.086 238.483 277.408 238.483 279.702V287.864ZM260.458 280.59C260.458 281.324 260.055 281.727 259.322 281.727H252.069C251.336 281.727 250.933 281.324 250.933 280.59V279.785C250.933 279.051 251.336 278.648 252.069 278.648H259.322C260.055 278.648 260.458 279.051 260.458 279.785V280.59ZM270.425 289.403C265.322 289.403 262.274 285.374 262.274 278.441C262.284 271.53 265.343 267.552 270.425 267.552C275.508 267.552 278.577 271.54 278.577 278.441C278.577 285.384 275.529 289.413 270.425 289.403ZM266.148 278.441C266.138 283.524 267.791 286.169 270.425 286.169C273.07 286.169 274.713 283.524 274.713 278.441C274.703 273.4 273.06 270.745 270.425 270.745C267.801 270.745 266.159 273.4 266.148 278.441ZM288.87 287.864C288.87 288.597 288.467 289 287.733 289H286.173C285.44 289 285.037 288.597 285.037 287.864V271.571H284.913L281.338 273.854C280.563 274.35 279.964 274.02 279.964 273.1V272.108C279.964 271.499 280.181 271.086 280.708 270.745L284.582 268.255C285.047 267.955 285.44 267.842 285.987 267.842H287.733C288.467 267.842 288.87 268.245 288.87 268.978V287.864Z" fill="#B9B9B9"/>
</g>
<defs>
<filter id="filter0_d_4009_259" x="-276.456" y="-119.291" width="315.928" height="315.928" filterUnits="userSpaceOnUse" color-interpolation-filters="sRGB">
<feFlood flood-opacity="0" result="BackgroundImageFix"/>
<feColorMatrix in="SourceAlpha" type="matrix" values="0 0 0 0 0 0 0 0 0 0 0 0 0 0 0 0 0 0 127 0" result="hardAlpha"/>
<feOffset dy="5.16461"/>
<feGaussianBlur stdDeviation="16.5913"/>
<feComposite in2="hardAlpha" operator="out"/>
<feColorMatrix type="matrix" values="0 0 0 0 0 0 0 0 0 0 0 0 0 0 0 0 0 0 0.1 0"/>
<feBlend mode="normal" in2="BackgroundImageFix" result="effect1_dropShadow_4009_259"/>
<feBlend mode="normal" in="SourceGraphic" in2="effect1_dropShadow_4009_259" result="shape"/>
</filter>
<filter id="filter1_d_4009_259" x="330.544" y="-119.291" width="315.928" height="315.928" filterUnits="userSpaceOnUse" color-interpolation-filters="sRGB">
<feFlood flood-opacity="0" result="BackgroundImageFix"/>
<feColorMatrix in="SourceAlpha" type="matrix" values="0 0 0 0 0 0 0 0 0 0 0 0 0 0 0 0 0 0 127 0" result="hardAlpha"/>
<feOffset dy="5.16461"/>
<feGaussianBlur stdDeviation="16.5913"/>
<feComposite in2="hardAlpha" operator="out"/>
<feColorMatrix type="matrix" values="0 0 0 0 0 0 0 0 0 0 0 0 0 0 0 0 0 0 0.1 0"/>
<feBlend mode="normal" in2="BackgroundImageFix" result="effect1_dropShadow_4009_259"/>
<feBlend mode="normal" in="SourceGraphic" in2="effect1_dropShadow_4009_259" result="shape"/>
</filter>
<filter id="filter2_d_4009_259" x="330.544" y="183.709" width="315.928" height="315.928" filterUnits="userSpaceOnUse" color-interpolation-filters="sRGB">
<feFlood flood-opacity="0" result="BackgroundImageFix"/>
<feColorMatrix in="SourceAlpha" type="matrix" values="0 0 0 0 0 0 0 0 0 0 0 0 0 0 0 0 0 0 127 0" result="hardAlpha"/>
<feOffset dy="5.16461"/>
<feGaussianBlur stdDeviation="16.5913"/>
<feComposite in2="hardAlpha" operator="out"/>
<feColorMatrix type="matrix" values="0 0 0 0 0 0 0 0 0 0 0 0 0 0 0 0 0 0 0.1 0"/>
<feBlend mode="normal" in2="BackgroundImageFix" result="effect1_dropShadow_4009_259"/>
<feBlend mode="normal" in="SourceGraphic" in2="effect1_dropShadow_4009_259" result="shape"/>
</filter>
<filter id="filter3_d_4009_259" x="26.5439" y="334.709" width="315.928" height="315.928" filterUnits="userSpaceOnUse" color-interpolation-filters="sRGB">
<feFlood flood-opacity="0" result="BackgroundImageFix"/>
<feColorMatrix in="SourceAlpha" type="matrix" values="0 0 0 0 0 0 0 0 0 0 0 0 0 0 0 0 0 0 127 0" result="hardAlpha"/>
<feOffset dy="5.16461"/>
<feGaussianBlur stdDeviation="16.5913"/>
<feComposite in2="hardAlpha" operator="out"/>
<feColorMatrix type="matrix" values="0 0 0 0 0 0 0 0 0 0 0 0 0 0 0 0 0 0 0.1 0"/>
<feBlend mode="normal" in2="BackgroundImageFix" result="effect1_dropShadow_4009_259"/>
<feBlend mode="normal" in="SourceGraphic" in2="effect1_dropShadow_4009_259" result="shape"/>
</filter>
<filter id="filter4_d_4009_259" x="-277.456" y="183.709" width="315.928" height="315.928" filterUnits="userSpaceOnUse" color-interpolation-filters="sRGB">
<feFlood flood-opacity="0" result="BackgroundImageFix"/>
<feColorMatrix in="SourceAlpha" type="matrix" values="0 0 0 0 0 0 0 0 0 0 0 0 0 0 0 0 0 0 127 0" result="hardAlpha"/>
<feOffset dy="5.16461"/>
<feGaussianBlur stdDeviation="16.5913"/>
<feComposite in2="hardAlpha" operator="out"/>
<feColorMatrix type="matrix" values="0 0 0 0 0 0 0 0 0 0 0 0 0 0 0 0 0 0 0.1 0"/>
<feBlend mode="normal" in2="BackgroundImageFix" result="effect1_dropShadow_4009_259"/>
<feBlend mode="normal" in="SourceGraphic" in2="effect1_dropShadow_4009_259" result="shape"/>
</filter>
<filter id="filter5_d_4009_259" x="26.5439" y="-271.291" width="315.928" height="315.928" filterUnits="userSpaceOnUse" color-interpolation-filters="sRGB">
<feFlood flood-opacity="0" result="BackgroundImageFix"/>
<feColorMatrix in="SourceAlpha" type="matrix" values="0 0 0 0 0 0 0 0 0 0 0 0 0 0 0 0 0 0 127 0" result="hardAlpha"/>
<feOffset dy="5.16461"/>
<feGaussianBlur stdDeviation="16.5913"/>
<feComposite in2="hardAlpha" operator="out"/>
<feColorMatrix type="matrix" values="0 0 0 0 0 0 0 0 0 0 0 0 0 0 0 0 0 0 0.1 0"/>
<feBlend mode="normal" in2="BackgroundImageFix" result="effect1_dropShadow_4009_259"/>
<feBlend mode="normal" in="SourceGraphic" in2="effect1_dropShadow_4009_259" result="shape"/>
</filter>
<filter id="filter6_d_4009_259" x="27.5439" y="31.7085" width="315.928" height="315.928" filterUnits="userSpaceOnUse" color-interpolation-filters="sRGB">
<feFlood flood-opacity="0" result="BackgroundImageFix"/>
<feColorMatrix in="SourceAlpha" type="matrix" values="0 0 0 0 0 0 0 0 0 0 0 0 0 0 0 0 0 0 127 0" result="hardAlpha"/>
<feOffset dy="5.16461"/>
<feGaussianBlur stdDeviation="16.5913"/>
<feComposite in2="hardAlpha" operator="out"/>
<feColorMatrix type="matrix" values="0 0 0 0 0 0 0 0 0 0 0 0 0 0 0 0 0 0 0.1 0"/>
<feBlend mode="normal" in2="BackgroundImageFix" result="effect1_dropShadow_4009_259"/>
<feBlend mode="normal" in="SourceGraphic" in2="effect1_dropShadow_4009_259" result="shape"/>
</filter>
<clipPath id="clip0_4009_259">
<rect width="370" height="370" rx="15" fill="white"/>
</clipPath>
</defs>
</svg>
