<svg width="370" height="370" viewBox="0 0 370 370" fill="none" xmlns="http://www.w3.org/2000/svg">
<g clip-path="url(#clip0_4011_776)">
<rect width="370" height="370" rx="15" fill="white"/>
<g filter="url(#filter0_d_4011_776)">
<g filter="url(#filter1_d_4011_776)">
<rect x="-311" y="329.383" width="925" height="254.856" rx="36.3274" fill="#FEFEFE"/>
<rect x="-310.495" y="329.888" width="923.99" height="253.846" rx="35.8224" stroke="#D0D0D0" stroke-width="1.01"/>
</g>
<rect x="-255.823" y="344.942" width="814.707" height="223.736" rx="23.1078" fill="white" stroke="#D0D0D0" stroke-width="1.01"/>
</g>
<rect x="-310.495" y="58.0753" width="934.365" height="256.704" rx="36.2299" fill="#FEFEFE" stroke="#D0D0D0" stroke-width="1.01"/>
<g filter="url(#filter2_d_4011_776)">
<rect x="-255.719" y="72.7969" width="824.867" height="227.267" rx="23.8777" fill="white"/>
<rect x="-255.214" y="73.3019" width="823.857" height="226.257" rx="23.3727" stroke="#D0D0D0" stroke-width="1.01"/>
</g>
<rect x="-0.190313" y="105.278" width="10.2906" height="162.628" rx="5.14528" fill="#F0F0F0" stroke="#D0D0D0" stroke-width="1.01"/>
<rect x="15.4737" y="123.935" width="10.2906" height="125.849" rx="5.14528" fill="#F0F0F0" stroke="#D0D0D0" stroke-width="1.01"/>
<rect x="31.1066" y="94.0753" width="10.2906" height="185.015" rx="5.14528" fill="#F0F0F0" stroke="#D0D0D0" stroke-width="1.01"/>
<rect x="46.755" y="123.935" width="10.2906" height="125.849" rx="5.14528" fill="#F0F0F0" stroke="#D0D0D0" stroke-width="1.01"/>
<rect x="62.3878" y="145.786" width="10.2906" height="82.1414" rx="5.14528" fill="#F0F0F0" stroke="#D0D0D0" stroke-width="1.01"/>
<rect x="297.099" y="123.935" width="10.2906" height="125.849" rx="5.14528" fill="#F0F0F0" stroke="#D0D0D0" stroke-width="1.01"/>
<rect x="312.747" y="105.278" width="10.2906" height="162.628" rx="5.14528" fill="#F0F0F0" stroke="#D0D0D0" stroke-width="1.01"/>
<rect x="328.403" y="123.935" width="10.2906" height="125.849" rx="5.14528" fill="#F0F0F0" stroke="#D0D0D0" stroke-width="1.01"/>
<rect x="344.036" y="94.0753" width="10.2906" height="185.015" rx="5.14528" fill="#F0F0F0" stroke="#D0D0D0" stroke-width="1.01"/>
<rect x="359.685" y="123.935" width="10.2906" height="125.849" rx="5.14528" fill="#F0F0F0" stroke="#D0D0D0" stroke-width="1.01"/>
<rect x="78.0597" y="163.896" width="10.2906" height="45.8959" rx="5.14528" fill="#F0F0F0" stroke="#D0D0D0" stroke-width="1.01"/>
<rect x="93.6925" y="123.935" width="10.2906" height="125.849" rx="5.14528" fill="#F0F0F0" stroke="#D0D0D0" stroke-width="1.01"/>
<rect x="281.442" y="94.0753" width="10.2906" height="185.015" rx="5.14528" fill="#F0F0F0" stroke="#D0D0D0" stroke-width="1.01"/>
<rect x="276.089" y="252.972" width="10.2906" height="132.778" rx="5.14528" transform="rotate(-180 276.089 252.972)" fill="#F0F0F0" stroke="#D0D0D0" stroke-width="1.01"/>
<rect x="260.44" y="238.042" width="10.2906" height="102.929" rx="5.14528" transform="rotate(-180 260.44 238.042)" fill="#F0F0F0" stroke="#D0D0D0" stroke-width="1.01"/>
<rect x="244.8" y="227.378" width="10.2906" height="82.1414" rx="5.14528" transform="rotate(-180 244.8 227.378)" fill="#F0F0F0" stroke="#D0D0D0" stroke-width="1.01"/>
<rect x="229.159" y="249.245" width="10.2906" height="125.849" rx="5.14528" transform="rotate(-180 229.159 249.245)" fill="#F0F0F0" stroke="#D0D0D0" stroke-width="1.01"/>
<rect x="213.503" y="267.901" width="10.2906" height="162.628" rx="5.14528" transform="rotate(-180 213.503 267.901)" fill="#F0F0F0" stroke="#D0D0D0" stroke-width="1.01"/>
<rect x="197.87" y="249.245" width="10.2906" height="125.849" rx="5.14528" transform="rotate(-180 197.87 249.245)" fill="#F0F0F0" stroke="#D0D0D0" stroke-width="1.01"/>
<rect x="182.214" y="279.089" width="10.2906" height="185.015" rx="5.14528" transform="rotate(-180 182.214 279.089)" fill="#F0F0F0" stroke="#D0D0D0" stroke-width="1.01"/>
<rect x="166.573" y="249.245" width="10.2906" height="125.849" rx="5.14528" transform="rotate(-180 166.573 249.245)" fill="#F0F0F0" stroke="#D0D0D0" stroke-width="1.01"/>
<rect x="150.925" y="227.378" width="10.2906" height="82.1414" rx="5.14528" transform="rotate(-180 150.925 227.378)" fill="#F0F0F0" stroke="#D0D0D0" stroke-width="1.01"/>
<rect x="135.284" y="209.268" width="10.2906" height="45.8959" rx="5.14528" transform="rotate(-180 135.284 209.268)" fill="#F0F0F0" stroke="#D0D0D0" stroke-width="1.01"/>
<rect x="119.636" y="229.526" width="10.2906" height="85.8725" rx="5.14528" transform="rotate(-180 119.636 229.526)" fill="#F0F0F0" stroke="#D0D0D0" stroke-width="1.01"/>
<g filter="url(#filter3_d_4011_776)">
<rect x="-310.495" y="-212.175" width="923.99" height="253.846" rx="35.8224" fill="#FEFEFE" stroke="#D0D0D0" stroke-width="1.01"/>
<g filter="url(#filter4_d_4011_776)">
<rect x="-256.328" y="-197.625" width="815.717" height="224.746" rx="23.6128" fill="white"/>
<rect x="-255.823" y="-197.12" width="814.707" height="223.736" rx="23.1078" stroke="#D0D0D0" stroke-width="1.01"/>
</g>
</g>
</g>
<defs>
<filter id="filter0_d_4011_776" x="-322.459" y="321.65" width="947.918" height="277.777" filterUnits="userSpaceOnUse" color-interpolation-filters="sRGB">
<feFlood flood-opacity="0" result="BackgroundImageFix"/>
<feColorMatrix in="SourceAlpha" type="matrix" values="0 0 0 0 0 0 0 0 0 0 0 0 0 0 0 0 0 0 127 0" result="hardAlpha"/>
<feOffset dy="3.72649"/>
<feGaussianBlur stdDeviation="5.72947"/>
<feComposite in2="hardAlpha" operator="out"/>
<feColorMatrix type="matrix" values="0 0 0 0 0 0 0 0 0 0 0 0 0 0 0 0 0 0 0.25 0"/>
<feBlend mode="normal" in2="BackgroundImageFix" result="effect1_dropShadow_4011_776"/>
<feBlend mode="normal" in="SourceGraphic" in2="effect1_dropShadow_4011_776" result="shape"/>
</filter>
<filter id="filter1_d_4011_776" x="-341.914" y="303.281" width="986.827" height="316.687" filterUnits="userSpaceOnUse" color-interpolation-filters="sRGB">
<feFlood flood-opacity="0" result="BackgroundImageFix"/>
<feColorMatrix in="SourceAlpha" type="matrix" values="0 0 0 0 0 0 0 0 0 0 0 0 0 0 0 0 0 0 127 0" result="hardAlpha"/>
<feOffset dy="4.81146"/>
<feGaussianBlur stdDeviation="15.4568"/>
<feComposite in2="hardAlpha" operator="out"/>
<feColorMatrix type="matrix" values="0 0 0 0 0 0 0 0 0 0 0 0 0 0 0 0 0 0 0.1 0"/>
<feBlend mode="normal" in2="BackgroundImageFix" result="effect1_dropShadow_4011_776"/>
<feBlend mode="normal" in="SourceGraphic" in2="effect1_dropShadow_4011_776" result="shape"/>
</filter>
<filter id="filter2_d_4011_776" x="-286.979" y="46.4019" width="887.388" height="289.786" filterUnits="userSpaceOnUse" color-interpolation-filters="sRGB">
<feFlood flood-opacity="0" result="BackgroundImageFix"/>
<feColorMatrix in="SourceAlpha" type="matrix" values="0 0 0 0 0 0 0 0 0 0 0 0 0 0 0 0 0 0 127 0" result="hardAlpha"/>
<feOffset dy="4.86543"/>
<feGaussianBlur stdDeviation="15.6302"/>
<feComposite in2="hardAlpha" operator="out"/>
<feColorMatrix type="matrix" values="0 0 0 0 0 0 0 0 0 0 0 0 0 0 0 0 0 0 0.1 0"/>
<feBlend mode="normal" in2="BackgroundImageFix" result="effect1_dropShadow_4011_776"/>
<feBlend mode="normal" in="SourceGraphic" in2="effect1_dropShadow_4011_776" result="shape"/>
</filter>
<filter id="filter3_d_4011_776" x="-322.459" y="-227.865" width="947.918" height="277.777" filterUnits="userSpaceOnUse" color-interpolation-filters="sRGB">
<feFlood flood-opacity="0" result="BackgroundImageFix"/>
<feColorMatrix in="SourceAlpha" type="matrix" values="0 0 0 0 0 0 0 0 0 0 0 0 0 0 0 0 0 0 127 0" result="hardAlpha"/>
<feOffset dy="-3.72649"/>
<feGaussianBlur stdDeviation="5.72947"/>
<feComposite in2="hardAlpha" operator="out"/>
<feColorMatrix type="matrix" values="0 0 0 0 0 0 0 0 0 0 0 0 0 0 0 0 0 0 0.25 0"/>
<feBlend mode="normal" in2="BackgroundImageFix" result="effect1_dropShadow_4011_776"/>
<feBlend mode="normal" in="SourceGraphic" in2="effect1_dropShadow_4011_776" result="shape"/>
</filter>
<filter id="filter4_d_4011_776" x="-287.242" y="-223.727" width="877.546" height="286.577" filterUnits="userSpaceOnUse" color-interpolation-filters="sRGB">
<feFlood flood-opacity="0" result="BackgroundImageFix"/>
<feColorMatrix in="SourceAlpha" type="matrix" values="0 0 0 0 0 0 0 0 0 0 0 0 0 0 0 0 0 0 127 0" result="hardAlpha"/>
<feOffset dy="4.81146"/>
<feGaussianBlur stdDeviation="15.4568"/>
<feComposite in2="hardAlpha" operator="out"/>
<feColorMatrix type="matrix" values="0 0 0 0 0 0 0 0 0 0 0 0 0 0 0 0 0 0 0.1 0"/>
<feBlend mode="normal" in2="BackgroundImageFix" result="effect1_dropShadow_4011_776"/>
<feBlend mode="normal" in="SourceGraphic" in2="effect1_dropShadow_4011_776" result="shape"/>
</filter>
<clipPath id="clip0_4011_776">
<rect width="370" height="370" rx="15" fill="white"/>
</clipPath>
</defs>
</svg>
