<svg width="370" height="370" viewBox="0 0 370 370" fill="none" xmlns="http://www.w3.org/2000/svg">
<g clip-path="url(#clip0_4009_300)">
<rect width="370" height="370" rx="15" fill="white"/>
<g style="mix-blend-mode:color" filter="url(#filter0_f_4009_300)">
<path d="M-75.0001 442.508C-75.0001 177.135 154.678 -37.9921 438 -37.9921C721.322 -37.9921 951 177.135 951 442.508C951 707.881 721.322 923.008 438 923.008C301.721 923.008 222.547 842.535 130.681 761.339C31.5587 673.729 -75.0001 580.235 -75.0001 442.508Z" fill="#0086FF"/>
</g>
<g style="mix-blend-mode:color" filter="url(#filter1_f_4009_300)">
<path d="M522 714.008C522 448.359 751.902 233.008 1035.5 233.008C1319.1 233.008 1549 448.359 1549 714.008C1549 979.657 1319.1 1195.01 1035.5 1195.01C899.088 1195.01 819.837 1114.45 727.882 1033.17C628.663 945.47 522 851.879 522 714.008Z" fill="#0086FF"/>
</g>
<g style="mix-blend-mode:color" filter="url(#filter2_f_4009_300)">
<path d="M-647 -127.992C-647 -393.641 -417.098 -608.992 -133.5 -608.992C150.098 -608.992 380 -393.641 380 -127.992C380 137.657 150.098 353.008 -133.5 353.008C-269.912 353.008 -349.163 272.451 -441.118 191.171C-540.337 103.47 -647 9.87874 -647 -127.992Z" fill="#0086FF"/>
</g>
<g style="mix-blend-mode:color" filter="url(#filter3_f_4009_300)">
<path d="M25.9115 139.936C271.44 272.717 355.564 566.796 213.808 796.78C72.0521 1026.76 -241.904 1105.56 -487.432 972.781C-732.96 840 -817.084 545.921 -675.328 315.937C-607.143 205.314 -493.075 181.31 -371.987 147.366C-241.334 110.74 -101.517 71.0225 25.9115 139.936Z" fill="#2A4BCC"/>
</g>
<g style="mix-blend-mode:color">
<path d="M1389.43 -386.752C1634.96 -253.971 1719.09 40.1089 1577.33 270.093C1435.58 500.077 1121.62 578.875 876.092 446.094C630.563 313.312 546.439 19.233 688.195 -210.751C756.38 -321.374 870.449 -345.378 991.537 -379.322C1122.19 -415.947 1262.01 -455.665 1389.43 -386.752Z" fill="#2A4BCC"/>
</g>
<g style="mix-blend-mode:color" filter="url(#filter5_f_4009_300)">
<path d="M143.61 473.356C365.247 307.756 688.238 341.808 865.031 549.413C1041.82 757.019 1005.47 1059.56 783.833 1225.16C562.196 1390.76 239.204 1356.71 62.4116 1149.1C-22.6263 1049.25 -4.8209 941.013 5.66924 823.029C16.988 695.726 28.5805 559.302 143.61 473.356Z" fill="#002E72"/>
</g>
<g style="mix-blend-mode:color" filter="url(#filter6_f_4009_300)">
<path d="M118.172 -648.152C339.809 -813.752 662.801 -779.7 839.594 -572.095C1016.39 -364.489 980.033 -61.9459 758.396 103.654C536.758 269.254 213.767 235.202 36.9741 27.5969C-48.0638 -72.262 -30.2584 -180.494 -19.7683 -298.478C-8.44952 -425.782 3.14301 -562.206 118.172 -648.152Z" fill="#002E72"/>
</g>
<rect x="-244.425" y="41.505" width="573.551" height="129.99" rx="32.7458" fill="#FEFEFE" stroke="#D0D0D0" stroke-width="1.01"/>
<g filter="url(#filter7_d_4009_300)">
<rect x="-284" y="55.9375" width="599.842" height="101.123" rx="21.613" fill="white"/>
<rect x="-283.495" y="56.4425" width="598.832" height="100.113" rx="21.108" stroke="#D0D0D0" stroke-width="1.01"/>
</g>
<rect x="916.057" y="171.495" width="573.551" height="129.99" rx="32.7458" transform="rotate(180 916.057 171.495)" fill="#FEFEFE" stroke="#D0D0D0" stroke-width="1.01"/>
<g filter="url(#filter8_d_4009_300)">
<rect x="955.633" y="157.062" width="599.842" height="101.123" rx="21.613" transform="rotate(180 955.633 157.062)" fill="white"/>
<rect x="955.128" y="156.558" width="598.832" height="100.113" rx="21.108" transform="rotate(180 955.128 156.558)" stroke="#D0D0D0" stroke-width="1.01"/>
</g>
<rect x="-28.8794" y="84.3003" width="89.3392" height="43.885" rx="6.58633" fill="#FDFDFD" stroke="#D0D0D0" stroke-width="1.56925" stroke-dasharray="3.14 3.14"/>
<rect x="68.519" y="84.3003" width="52.9758" height="43.885" rx="6.58633" fill="#FDFDFD" stroke="#D0D0D0" stroke-width="1.56925" stroke-dasharray="4.18 4.18"/>
<rect x="129.558" y="84.3003" width="54.2745" height="43.885" rx="6.58633" fill="#FDFDFD" stroke="#D0D0D0" stroke-width="1.56925" stroke-dasharray="4.18 4.18"/>
<rect x="191.894" y="84.3003" width="95.8327" height="43.885" rx="6.58633" fill="#FDFDFD" stroke="#D0D0D0" stroke-width="1.56925" stroke-dasharray="4.18 4.18"/>
<path d="M-118.75 101.27C-119.444 101.27 -119.82 100.929 -120.067 100.271C-120.972 97.7904 -123.311 96.4268 -126.027 96.4268C-130.177 96.4268 -133.28 99.636 -133.28 105.478C-133.28 111.368 -130.165 114.53 -126.039 114.53C-123.335 114.53 -121.007 113.201 -120.067 110.756C-119.82 110.086 -119.444 109.757 -118.75 109.757H-117.446C-116.623 109.757 -116.176 110.263 -116.423 111.062C-117.645 115.118 -121.266 117.845 -126.062 117.845C-132.316 117.845 -136.889 113.178 -136.889 105.478C-136.889 97.7787 -132.292 93.1119 -126.062 93.1119C-121.419 93.1119 -117.657 95.6157 -116.411 99.9651C-116.176 100.776 -116.623 101.27 -117.446 101.27H-118.75ZM-108.123 117.915C-111.555 117.915 -114.223 115.964 -114.223 112.414C-114.223 108.311 -110.72 107.418 -107.3 107.018C-104.055 106.642 -102.739 106.666 -102.739 105.384V105.302C-102.739 103.257 -103.902 102.069 -106.171 102.069C-107.981 102.069 -109.169 102.786 -109.862 103.703C-110.285 104.268 -110.697 104.514 -111.367 104.362L-112.39 104.126C-113.189 103.938 -113.53 103.362 -113.118 102.634C-111.696 100.212 -109.051 99.2246 -106.218 99.2246C-103.35 99.2246 -99.2121 100.271 -99.2121 105.525V116.34C-99.2121 117.104 -99.6235 117.516 -100.388 117.516H-101.469C-102.233 117.516 -102.645 117.104 -102.645 116.34V115.047H-102.786C-103.456 116.399 -105.137 117.915 -108.123 117.915ZM-110.779 112.461C-110.779 114.201 -109.345 115.094 -107.358 115.094C-104.431 115.094 -102.727 113.143 -102.727 111.003V108.676C-103.232 109.181 -105.936 109.487 -107.076 109.64C-109.11 109.91 -110.779 110.58 -110.779 112.461ZM-92.3399 116.34C-92.3399 117.104 -92.7513 117.516 -93.5154 117.516H-94.6791C-95.4432 117.516 -95.8547 117.104 -95.8547 116.34V94.6165C-95.8547 93.8524 -95.4432 93.441 -94.6791 93.441H-93.5154C-92.7513 93.441 -92.3399 93.8524 -92.3399 94.6165V116.34ZM-85.4206 116.34C-85.4206 117.104 -85.8321 117.516 -86.5962 117.516H-87.7599C-88.524 117.516 -88.9354 117.104 -88.9354 116.34V94.6165C-88.9354 93.8524 -88.524 93.441 -87.7599 93.441H-86.5962C-85.8321 93.441 -85.4206 93.8524 -85.4206 94.6165V116.34ZM-80.2412 96.6737C-81.4637 96.6737 -82.4629 95.7333 -82.4629 94.5813C-82.4629 93.4292 -81.4637 92.4771 -80.2412 92.4771C-79.0304 92.4771 -78.0195 93.4292 -78.0195 94.5813C-78.0195 95.7333 -79.0304 96.6737 -80.2412 96.6737ZM-82.0162 116.34V100.635C-82.0162 99.8711 -81.6048 99.4597 -80.8407 99.4597H-79.6769C-78.9129 99.4597 -78.5014 99.8711 -78.5014 100.635V116.34C-78.5014 117.104 -78.9129 117.516 -79.6769 117.516H-80.8407C-81.6048 117.516 -82.0162 117.104 -82.0162 116.34ZM-71.5822 116.34C-71.5822 117.104 -71.9936 117.516 -72.7577 117.516H-73.9215C-74.6856 117.516 -75.097 117.104 -75.097 116.34V100.635C-75.097 99.8711 -74.6856 99.4597 -73.9215 99.4597H-72.8988C-72.1347 99.4597 -71.7233 99.8711 -71.7233 100.635V102.398H-71.4999C-70.6653 100.482 -68.8903 99.2246 -66.1748 99.2246C-62.4837 99.2246 -60.0269 101.564 -60.0269 106.031V116.34C-60.0269 117.104 -60.4383 117.516 -61.2024 117.516H-62.3661C-63.1302 117.516 -63.5417 117.104 -63.5417 116.34V106.454C-63.5417 103.833 -64.9875 102.269 -67.3738 102.269C-69.8189 102.269 -71.5822 103.915 -71.5822 106.795V116.34ZM-49.0668 124.663C-52.6639 124.663 -54.9326 123.358 -56.1434 121.642C-56.5901 120.995 -56.3197 120.396 -55.5909 120.09L-54.6975 119.726C-54.051 119.455 -53.5808 119.632 -53.1223 120.172C-52.3935 121.019 -51.2062 121.83 -49.0315 121.83C-46.3631 121.83 -44.4235 120.607 -44.4235 117.774V114.224H-44.6468C-45.2816 115.376 -46.5629 117.245 -49.8779 117.245C-54.145 117.245 -57.4247 114.177 -57.4247 108.417C-57.4247 102.669 -54.2156 99.2246 -49.8544 99.2246C-46.4924 99.2246 -45.2464 101.27 -44.6233 102.387H-44.3647V100.635C-44.3647 99.8711 -43.9533 99.4597 -43.1892 99.4597H-42.096C-41.3319 99.4597 -40.9204 99.8711 -40.9204 100.635V117.915C-40.9204 122.559 -44.4705 124.663 -49.0668 124.663ZM-53.8747 108.37C-53.8747 111.92 -52.2407 114.33 -49.1021 114.33C-46.0692 114.33 -44.3882 112.096 -44.3882 108.37C-44.3882 104.714 -46.034 102.21 -49.1021 102.21C-52.276 102.21 -53.8747 104.902 -53.8747 108.37ZM-15.0522 117.88C-20.295 117.88 -23.4689 114.013 -23.4689 108.57C-23.4689 103.057 -20.1775 99.2246 -15.0875 99.2246C-11.4904 99.2246 -8.75143 101.094 -7.88155 104.009C-7.6582 104.797 -8.12841 105.29 -8.93952 105.29H-10.0445C-10.7263 105.29 -11.0907 104.973 -11.3846 104.338C-11.9959 103.104 -13.2302 102.187 -15.0287 102.187C-17.9675 102.187 -19.9189 104.62 -19.9189 108.488C-19.9189 112.426 -18.0028 114.906 -15.0287 114.906C-13.3712 114.906 -12.0546 114.13 -11.3846 112.755C-11.0907 112.132 -10.7263 111.803 -10.0445 111.803H-8.93952C-8.12841 111.803 -7.6582 112.214 -7.84628 112.896C-8.63388 115.835 -11.2435 117.88 -15.0522 117.88ZM0.0544954 117.915C-3.37802 117.915 -6.04645 115.964 -6.04645 112.414C-6.04645 108.311 -2.5434 107.418 0.877358 107.018C4.12179 106.642 5.43837 106.666 5.43837 105.384V105.302C5.43837 103.257 4.27461 102.069 2.00586 102.069C0.195557 102.069 -0.991716 102.786 -1.68527 103.703C-2.10846 104.268 -2.51989 104.514 -3.18994 104.362L-4.21264 104.126C-5.01199 103.938 -5.35289 103.362 -4.94146 102.634C-3.51908 100.212 -0.874164 99.2246 1.95884 99.2246C4.8271 99.2246 8.96493 100.271 8.96493 105.525V116.34C8.96493 117.104 8.5535 117.516 7.78941 117.516H6.70793C5.94384 117.516 5.53241 117.104 5.53241 116.34V115.047H5.39135C4.7213 116.399 3.04031 117.915 0.0544954 117.915ZM-2.60218 112.461C-2.60218 114.201 -1.16804 115.094 0.818583 115.094C3.74562 115.094 5.45013 113.143 5.45013 111.003V108.676C4.94465 109.181 2.24096 109.487 1.10071 109.64C-0.93294 109.91 -2.60218 110.58 -2.60218 112.461ZM12.3223 100.635C12.3223 99.8711 12.7338 99.4597 13.4978 99.4597H14.5441C15.3081 99.4597 15.7196 99.8711 15.7196 100.635V102.328H15.9077C16.5659 100.388 18.3762 99.1893 20.4922 99.1893C20.598 99.1893 20.7273 99.1893 20.8566 99.201C21.5972 99.2128 21.9851 99.6713 21.9851 100.412V101.376C21.9851 102.175 21.6559 102.54 21.0799 102.481C20.7861 102.445 20.4569 102.422 20.1513 102.422C17.6592 102.422 15.8371 104.126 15.8371 106.489V116.34C15.8371 117.104 15.4257 117.516 14.6616 117.516H13.4978C12.7338 117.516 12.3223 117.104 12.3223 116.34V100.635ZM29.8153 117.868C25.4307 117.868 22.2685 114.365 22.2685 108.523C22.2685 102.669 25.4777 99.2246 29.8388 99.2246C33.2008 99.2246 34.3999 101.27 35.0346 102.387H35.2462V94.6165C35.2462 93.8524 35.6577 93.441 36.4218 93.441H37.5855C38.3496 93.441 38.761 93.8524 38.761 94.6165V116.34C38.761 117.104 38.3496 117.516 37.5855 117.516H36.504C35.74 117.516 35.3285 117.104 35.3285 116.34V114.706H35.0346C34.3999 115.858 33.1068 117.868 29.8153 117.868ZM25.8186 108.488C25.8186 112.108 27.4525 114.871 30.5912 114.871C33.624 114.871 35.305 112.285 35.305 108.488C35.305 104.714 33.6593 102.21 30.5912 102.21C27.4173 102.21 25.8186 104.902 25.8186 108.488ZM53.809 104.256C53.1272 104.373 52.7392 104.103 52.3513 103.515C51.7871 102.681 50.8114 102.011 49.1892 102.011C47.1908 102.011 45.6861 102.998 45.6979 104.385C45.6861 105.608 46.5443 106.278 48.5309 106.748L51.3992 107.406C54.7141 108.17 56.3363 109.745 56.3363 112.296C56.3363 115.564 53.3153 117.88 48.9541 117.88C45.4393 117.88 42.9707 116.528 41.995 114.083C41.7011 113.343 42.1126 112.814 42.9002 112.696L44.0051 112.531C44.6987 112.426 45.0749 112.72 45.4275 113.354C46.0623 114.471 47.2613 115.047 48.9306 115.047C51.2346 115.047 52.7275 113.954 52.7275 112.555C52.7275 111.426 51.9164 110.651 50.1766 110.263L47.1203 109.593C43.7348 108.84 42.1831 107.136 42.1831 104.573C42.1831 101.376 45.0749 99.2246 49.1539 99.2246C52.4689 99.2246 54.5495 100.541 55.5487 102.669C55.9014 103.409 55.5135 103.95 54.7141 104.091L53.809 104.256ZM79.0042 117.915C75.5717 117.915 72.9033 115.964 72.9033 112.414C72.9033 108.311 76.4063 107.418 79.8271 107.018C83.0715 106.642 84.3881 106.666 84.3881 105.384V105.302C84.3881 103.257 83.2243 102.069 80.9556 102.069C79.1453 102.069 77.958 102.786 77.2645 103.703C76.8413 104.268 76.4298 104.514 75.7598 104.362L74.7371 104.126C73.9377 103.938 73.5968 103.362 74.0083 102.634C75.4306 100.212 78.0756 99.2246 80.9086 99.2246C83.7768 99.2246 87.9146 100.271 87.9146 105.525V116.34C87.9146 117.104 87.5032 117.516 86.7391 117.516H85.6577C84.8936 117.516 84.4821 117.104 84.4821 116.34V115.047H84.3411C83.671 116.399 81.99 117.915 79.0042 117.915ZM76.3475 112.461C76.3475 114.201 77.7817 115.094 79.7683 115.094C82.6953 115.094 84.3998 113.143 84.3998 111.003V108.676C83.8944 109.181 81.1907 109.487 80.0504 109.64C78.0168 109.91 76.3475 110.58 76.3475 112.461ZM91.272 100.635C91.272 99.8711 91.6835 99.4597 92.4476 99.4597H93.4938C94.2579 99.4597 94.6693 99.8711 94.6693 100.635V102.328H94.8574C95.5157 100.388 97.326 99.1893 99.4419 99.1893C99.5477 99.1893 99.677 99.1893 99.8063 99.201C100.547 99.2128 100.935 99.6713 100.935 100.412V101.376C100.935 102.175 100.606 102.54 100.03 102.481C99.7358 102.445 99.4066 102.422 99.101 102.422C96.6089 102.422 94.7868 104.126 94.7868 106.489V116.34C94.7868 117.104 94.3754 117.516 93.6113 117.516H92.4476C91.6835 117.516 91.272 117.104 91.272 116.34V100.635ZM109.788 117.88C104.463 117.88 101.195 114.212 101.195 108.605C101.195 103.057 104.51 99.2246 109.541 99.2246C113.632 99.2246 117.534 101.775 117.534 108.3V108.37C117.534 109.134 117.123 109.546 116.359 109.546H104.698C104.792 113.025 106.814 114.977 109.823 114.977C111.433 114.977 112.738 114.412 113.514 113.307C113.914 112.72 114.314 112.449 114.995 112.578L116.03 112.767C116.829 112.919 117.229 113.378 116.958 113.977C115.853 116.364 113.267 117.88 109.788 117.88ZM104.71 106.912H114.09C114.078 104.15 112.292 102.128 109.564 102.128C106.708 102.128 104.851 104.35 104.71 106.912ZM143.411 101.105C143.411 101.869 143 102.281 142.236 102.281H139.709V112.214C139.709 114.248 140.731 114.624 141.872 114.624H141.989C142.73 114.6 143.188 114.847 143.341 115.576L143.494 116.246C143.658 116.975 143.376 117.539 142.624 117.657C142.295 117.704 141.907 117.751 141.46 117.751C138.686 117.81 136.182 116.223 136.194 112.943V102.281H134.724C133.96 102.281 133.549 101.869 133.549 101.105V100.635C133.549 99.8711 133.96 99.4597 134.724 99.4597H136.194V96.3093C136.194 95.5452 136.605 95.1337 137.369 95.1337H138.533C139.297 95.1337 139.709 95.5452 139.709 96.3093V99.4597H142.236C143 99.4597 143.411 99.8711 143.411 100.635V101.105ZM149.878 116.34C149.878 117.104 149.467 117.516 148.703 117.516H147.539C146.775 117.516 146.363 117.104 146.363 116.34V94.6165C146.363 93.8524 146.775 93.441 147.539 93.441H148.656C149.42 93.441 149.831 93.8524 149.831 94.6165V102.398H150.054C150.901 100.447 152.594 99.2246 155.403 99.2246C159.118 99.2246 161.586 101.529 161.586 106.031V116.34C161.586 117.104 161.175 117.516 160.411 117.516H159.247C158.483 117.516 158.071 117.104 158.071 116.34V106.454C158.071 103.809 156.626 102.269 154.204 102.269C151.7 102.269 149.878 103.915 149.878 106.795V116.34ZM172.734 117.88C167.409 117.88 164.141 114.212 164.141 108.605C164.141 103.057 167.456 99.2246 172.488 99.2246C176.578 99.2246 180.481 101.775 180.481 108.3V108.37C180.481 109.134 180.07 109.546 179.306 109.546H167.644C167.738 113.025 169.76 114.977 172.77 114.977C174.38 114.977 175.685 114.412 176.461 113.307C176.861 112.72 177.26 112.449 177.942 112.578L178.976 112.767C179.776 112.919 180.175 113.378 179.905 113.977C178.8 116.364 176.214 117.88 172.734 117.88ZM167.656 106.912H177.037C177.025 104.15 175.238 102.128 172.511 102.128C169.655 102.128 167.797 104.35 167.656 106.912ZM206.523 101.105C206.523 101.869 206.111 102.281 205.347 102.281H202.632V116.34C202.632 117.104 202.22 117.516 201.456 117.516H200.281C199.517 117.516 199.105 117.104 199.105 116.34V102.281H197.495C196.731 102.281 196.319 101.869 196.319 101.105V100.635C196.319 99.8711 196.731 99.4597 197.495 99.4597H199.105V97.3672C199.105 93.9817 201.609 92.3125 204.466 92.3125C205.171 92.3125 205.782 92.383 206.276 92.4771C207.028 92.6299 207.287 93.1941 207.075 93.923L206.899 94.546C206.699 95.2631 206.323 95.5334 205.806 95.4394C205.571 95.3924 205.312 95.3689 205.006 95.3689C203.29 95.3689 202.632 96.2387 202.632 97.8374V99.4597H205.347C206.111 99.4597 206.523 99.8711 206.523 100.635V101.105ZM220.263 100.635C220.263 99.8711 220.674 99.4597 221.438 99.4597H222.614C223.378 99.4597 223.789 99.8711 223.789 100.635V116.34C223.789 117.104 223.378 117.516 222.614 117.516H221.509C220.745 117.516 220.333 117.104 220.333 116.34V114.389H220.145C219.311 116.317 217.465 117.751 214.75 117.751C211.282 117.751 208.825 115.423 208.825 110.944V100.635C208.825 99.8711 209.237 99.4597 210.001 99.4597H211.164C211.928 99.4597 212.34 99.8711 212.34 100.635V110.521C212.34 112.978 213.845 114.553 216.019 114.553C217.994 114.553 220.275 113.096 220.263 110.028V100.635ZM235.616 101.105C235.616 101.869 235.205 102.281 234.441 102.281H231.914V112.214C231.914 114.248 232.936 114.624 234.077 114.624H234.194C234.935 114.6 235.393 114.847 235.546 115.576L235.699 116.246C235.863 116.975 235.581 117.539 234.829 117.657C234.5 117.704 234.112 117.751 233.665 117.751C230.891 117.81 228.387 116.223 228.399 112.943V102.281H226.929C226.165 102.281 225.754 101.869 225.754 101.105V100.635C225.754 99.8711 226.165 99.4597 226.929 99.4597H228.399V96.3093C228.399 95.5452 228.81 95.1337 229.574 95.1337H230.738C231.502 95.1337 231.914 95.5452 231.914 96.3093V99.4597H234.441C235.205 99.4597 235.616 99.8711 235.616 100.635V101.105ZM249.618 100.635C249.618 99.8711 250.03 99.4597 250.794 99.4597H251.969C252.733 99.4597 253.145 99.8711 253.145 100.635V116.34C253.145 117.104 252.733 117.516 251.969 117.516H250.864C250.1 117.516 249.689 117.104 249.689 116.34V114.389H249.501C248.666 116.317 246.82 117.751 244.105 117.751C240.637 117.751 238.18 115.423 238.18 110.944V100.635C238.18 99.8711 238.592 99.4597 239.356 99.4597H240.52C241.284 99.4597 241.695 99.8711 241.695 100.635V110.521C241.695 112.978 243.2 114.553 245.375 114.553C247.349 114.553 249.63 113.096 249.618 110.028V100.635ZM256.543 100.635C256.543 99.8711 256.955 99.4597 257.719 99.4597H258.765C259.529 99.4597 259.941 99.8711 259.941 100.635V102.328H260.129C260.787 100.388 262.597 99.1893 264.713 99.1893C264.819 99.1893 264.948 99.1893 265.078 99.201C265.818 99.2128 266.206 99.6713 266.206 100.412V101.376C266.206 102.175 265.877 102.54 265.301 102.481C265.007 102.445 264.678 102.422 264.372 102.422C261.88 102.422 260.058 104.126 260.058 106.489V116.34C260.058 117.104 259.647 117.516 258.883 117.516H257.719C256.955 117.516 256.543 117.104 256.543 116.34V100.635ZM275.059 117.88C269.734 117.88 266.466 114.212 266.466 108.605C266.466 103.057 269.781 99.2246 274.812 99.2246C278.903 99.2246 282.806 101.775 282.806 108.3V108.37C282.806 109.134 282.394 109.546 281.63 109.546H269.969C270.063 113.025 272.085 114.977 275.094 114.977C276.705 114.977 278.01 114.412 278.785 113.307C279.185 112.72 279.585 112.449 280.267 112.578L281.301 112.767C282.1 112.919 282.5 113.378 282.23 113.977C281.125 116.364 278.539 117.88 275.059 117.88ZM269.981 106.912H279.361C279.35 104.15 277.563 102.128 274.836 102.128C271.979 102.128 270.122 104.35 269.981 106.912Z" fill="#C0C0C0"/>
<rect x="671.073" y="329.956" width="630.939" height="130.454" rx="32.8636" transform="rotate(-180 671.073 329.956)" fill="#FEFEFE" stroke="#D0D0D0" stroke-width="1.01"/>
<rect x="-603.44" y="199.505" width="630.939" height="130.454" rx="32.8636" fill="#FEFEFE" stroke="#D0D0D0" stroke-width="1.01"/>
<g filter="url(#filter9_d_4009_300)">
<rect x="852.633" y="315.469" width="799.162" height="101.481" rx="21.6896" transform="rotate(-180 852.633 315.469)" fill="white"/>
<rect x="852.128" y="314.964" width="798.152" height="100.471" rx="21.1846" transform="rotate(-180 852.128 314.964)" stroke="#D0D0D0" stroke-width="1.01"/>
</g>
<rect x="227.246" y="243.785" width="52.8047" height="43.2891" rx="6.40078" fill="#FDFDFD" fill-opacity="0.5" stroke="#D0D0D0" stroke-width="1.57"/>
<rect x="285.691" y="243.785" width="55.5234" height="43.2891" rx="6.40078" fill="#FDFDFD" fill-opacity="0.5" stroke="#D0D0D0" stroke-width="1.57"/>
<rect x="346.863" y="243.785" width="115.336" height="43.2891" rx="6.40078" fill="#FDFDFD" fill-opacity="0.5" stroke="#D0D0D0" stroke-width="1.57"/>
<rect x="81.785" y="243.785" width="63.6796" height="43.2891" rx="6.40078" fill="#FDFDFD" fill-opacity="0.5" stroke="#D0D0D0" stroke-width="1.57"/>
<rect x="151.113" y="243.785" width="70.4765" height="43.2891" rx="6.40078" fill="#FDFDFD" fill-opacity="0.5" stroke="#D0D0D0" stroke-width="1.57"/>
<path d="M87.6097 254.161C87.6097 253.416 88.0108 253.015 88.7557 253.015H95.9754C101.419 253.015 104.1 256.051 104.1 260.372C104.1 263.523 102.668 265.918 99.7916 266.984L104.249 275.121C104.685 275.923 104.341 276.484 103.436 276.484H101.877C101.247 276.484 100.823 276.232 100.525 275.671L96.1932 267.603H91.1508V275.338C91.1508 276.083 90.7497 276.484 90.0048 276.484H88.7557C88.0108 276.484 87.6097 276.083 87.6097 275.338V254.161ZM91.1508 264.555H95.6431C99.0925 264.555 100.536 263.019 100.536 260.372C100.536 257.713 99.0925 256.051 95.5972 256.051H91.1508V264.555ZM114.209 276.84C109.018 276.84 105.832 273.264 105.832 267.798C105.832 262.389 109.064 258.653 113.969 258.653C117.957 258.653 121.761 261.14 121.761 267.5V267.569C121.761 268.313 121.36 268.715 120.615 268.715H109.247C109.339 272.107 111.31 274.009 114.244 274.009C115.814 274.009 117.086 273.459 117.842 272.382C118.232 271.809 118.621 271.545 119.286 271.671L120.295 271.855C121.074 272.004 121.463 272.45 121.2 273.035C120.123 275.361 117.601 276.84 114.209 276.84ZM109.259 266.148H118.404C118.392 263.455 116.65 261.483 113.992 261.483C111.207 261.483 109.396 263.649 109.259 266.148ZM130.862 276.828C126.587 276.828 123.505 273.413 123.505 267.718C123.505 262.011 126.633 258.653 130.885 258.653C134.162 258.653 135.331 260.647 135.95 261.736H136.156V254.161C136.156 253.416 136.557 253.015 137.302 253.015H138.437C139.182 253.015 139.583 253.416 139.583 254.161V275.338C139.583 276.083 139.182 276.484 138.437 276.484H137.382C136.638 276.484 136.236 276.083 136.236 275.338V273.745H135.95C135.331 274.869 134.071 276.828 130.862 276.828ZM126.965 267.683C126.965 271.213 128.558 273.906 131.618 273.906C134.575 273.906 136.214 271.385 136.214 267.683C136.214 264.005 134.609 261.564 131.618 261.564C128.524 261.564 126.965 264.188 126.965 267.683ZM165.096 276.84C159.985 276.84 156.891 273.069 156.891 267.763C156.891 262.389 160.1 258.653 165.062 258.653C168.569 258.653 171.239 260.475 172.087 263.317C172.304 264.085 171.846 264.566 171.055 264.566H169.978C169.313 264.566 168.958 264.257 168.672 263.638C168.076 262.435 166.872 261.541 165.119 261.541C162.254 261.541 160.352 263.913 160.352 267.683C160.352 271.522 162.22 273.94 165.119 273.94C166.735 273.94 168.018 273.184 168.672 271.843C168.958 271.236 169.313 270.915 169.978 270.915H171.055C171.846 270.915 172.304 271.316 172.121 271.981C171.353 274.846 168.809 276.84 165.096 276.84ZM179.823 276.874C176.477 276.874 173.876 274.972 173.876 271.511C173.876 267.511 177.291 266.64 180.626 266.251C183.789 265.884 185.072 265.907 185.072 264.658V264.578C185.072 262.584 183.937 261.426 181.726 261.426C179.961 261.426 178.803 262.125 178.127 263.019C177.715 263.569 177.314 263.81 176.66 263.661L175.663 263.432C174.884 263.248 174.552 262.687 174.953 261.976C176.34 259.615 178.918 258.653 181.68 258.653C184.476 258.653 188.51 259.673 188.51 264.795V275.338C188.51 276.083 188.109 276.484 187.364 276.484H186.31C185.565 276.484 185.164 276.083 185.164 275.338V274.078H185.026C184.373 275.396 182.734 276.874 179.823 276.874ZM177.233 271.557C177.233 273.253 178.632 274.124 180.568 274.124C183.422 274.124 185.083 272.221 185.083 270.136V267.867C184.591 268.359 181.955 268.657 180.843 268.806C178.861 269.07 177.233 269.723 177.233 271.557ZM191.783 260.028C191.783 259.283 192.184 258.882 192.929 258.882H193.949C194.694 258.882 195.095 259.283 195.095 260.028V261.678H195.278C195.92 259.787 197.685 258.618 199.748 258.618C199.851 258.618 199.977 258.618 200.103 258.63C200.825 258.641 201.203 259.088 201.203 259.81V260.75C201.203 261.529 200.882 261.885 200.321 261.827C200.034 261.793 199.713 261.77 199.415 261.77C196.986 261.77 195.21 263.432 195.21 265.735V275.338C195.21 276.083 194.808 276.484 194.064 276.484H192.929C192.184 276.484 191.783 276.083 191.783 275.338V260.028ZM213.948 263.558C213.283 263.672 212.905 263.409 212.527 262.836C211.977 262.022 211.025 261.369 209.444 261.369C207.496 261.369 206.029 262.331 206.04 263.684C206.029 264.876 206.865 265.529 208.802 265.987L211.598 266.629C214.83 267.374 216.412 268.909 216.412 271.396C216.412 274.582 213.466 276.84 209.215 276.84C205.788 276.84 203.382 275.522 202.43 273.138C202.144 272.416 202.545 271.9 203.313 271.786L204.39 271.625C205.066 271.522 205.433 271.809 205.777 272.428C206.396 273.516 207.565 274.078 209.192 274.078C211.438 274.078 212.893 273.012 212.893 271.648C212.893 270.548 212.103 269.792 210.407 269.414L207.427 268.76C204.127 268.027 202.614 266.365 202.614 263.867C202.614 260.75 205.433 258.653 209.41 258.653C212.641 258.653 214.67 259.936 215.644 262.011C215.988 262.733 215.609 263.26 214.83 263.397L213.948 263.558ZM238.51 276.874C235.164 276.874 232.562 274.972 232.562 271.511C232.562 267.511 235.977 266.64 239.312 266.251C242.475 265.884 243.759 265.907 243.759 264.658V264.578C243.759 262.584 242.624 261.426 240.412 261.426C238.647 261.426 237.49 262.125 236.814 263.019C236.401 263.569 236 263.81 235.347 263.661L234.35 263.432C233.571 263.248 233.238 262.687 233.639 261.976C235.026 259.615 237.605 258.653 240.366 258.653C243.163 258.653 247.197 259.673 247.197 264.795V275.338C247.197 276.083 246.795 276.484 246.051 276.484H244.996C244.251 276.484 243.85 276.083 243.85 275.338V274.078H243.713C243.06 275.396 241.421 276.874 238.51 276.874ZM235.92 271.557C235.92 273.253 237.318 274.124 239.255 274.124C242.108 274.124 243.77 272.221 243.77 270.136V267.867C243.277 268.359 240.641 268.657 239.53 268.806C237.547 269.07 235.92 269.723 235.92 271.557ZM250.47 260.028C250.47 259.283 250.871 258.882 251.616 258.882H252.635C253.38 258.882 253.781 259.283 253.781 260.028V261.678H253.965C254.607 259.787 256.371 258.618 258.434 258.618C258.537 258.618 258.663 258.618 258.789 258.63C259.511 258.641 259.89 259.088 259.89 259.81V260.75C259.89 261.529 259.569 261.885 259.007 261.827C258.721 261.793 258.4 261.77 258.102 261.77C255.672 261.77 253.896 263.432 253.896 265.735V275.338C253.896 276.083 253.495 276.484 252.75 276.484H251.616C250.871 276.484 250.47 276.083 250.47 275.338V260.028ZM268.52 276.84C263.329 276.84 260.143 273.264 260.143 267.798C260.143 262.389 263.375 258.653 268.279 258.653C272.268 258.653 276.072 261.14 276.072 267.5V267.569C276.072 268.313 275.671 268.715 274.926 268.715H263.558C263.65 272.107 265.621 274.009 268.555 274.009C270.125 274.009 271.397 273.459 272.153 272.382C272.543 271.809 272.932 271.545 273.597 271.671L274.605 271.855C275.385 272.004 275.774 272.45 275.511 273.035C274.433 275.361 271.912 276.84 268.52 276.84ZM263.569 266.148H272.714C272.703 263.455 270.961 261.483 268.302 261.483C265.518 261.483 263.707 263.649 263.569 266.148ZM301.299 260.486C301.299 261.231 300.898 261.632 300.153 261.632H297.689V271.316C297.689 273.299 298.686 273.665 299.798 273.665H299.912C300.634 273.642 301.081 273.883 301.23 274.593L301.379 275.247C301.54 275.957 301.265 276.507 300.531 276.622C300.21 276.668 299.832 276.714 299.397 276.714C296.692 276.771 294.251 275.224 294.263 272.026V261.632H292.83C292.085 261.632 291.684 261.231 291.684 260.486V260.028C291.684 259.283 292.085 258.882 292.83 258.882H294.263V255.811C294.263 255.066 294.664 254.665 295.409 254.665H296.543C297.288 254.665 297.689 255.066 297.689 255.811V258.882H300.153C300.898 258.882 301.299 259.283 301.299 260.028V260.486ZM307.603 275.338C307.603 276.083 307.202 276.484 306.457 276.484H305.323C304.578 276.484 304.177 276.083 304.177 275.338V254.161C304.177 253.416 304.578 253.015 305.323 253.015H306.412C307.156 253.015 307.557 253.416 307.557 254.161V261.747H307.775C308.6 259.845 310.251 258.653 312.989 258.653C316.611 258.653 319.017 260.899 319.017 265.288V275.338C319.017 276.083 318.616 276.484 317.871 276.484H316.737C315.992 276.484 315.591 276.083 315.591 275.338V265.701C315.591 263.122 314.181 261.621 311.821 261.621C309.38 261.621 307.603 263.225 307.603 266.033V275.338ZM329.885 276.84C324.694 276.84 321.508 273.264 321.508 267.798C321.508 262.389 324.74 258.653 329.645 258.653C333.633 258.653 337.437 261.14 337.437 267.5V267.569C337.437 268.313 337.036 268.715 336.292 268.715H324.923C325.015 272.107 326.986 274.009 329.92 274.009C331.49 274.009 332.762 273.459 333.518 272.382C333.908 271.809 334.297 271.545 334.962 271.671L335.971 271.855C336.75 272.004 337.14 272.45 336.876 273.035C335.799 275.361 333.278 276.84 329.885 276.84ZM324.935 266.148H334.08C334.068 263.455 332.326 261.483 329.668 261.483C326.883 261.483 325.072 263.649 324.935 266.148ZM361.862 276.84C356.751 276.84 353.657 273.069 353.657 267.763C353.657 262.389 356.866 258.653 361.828 258.653C365.335 258.653 368.005 260.475 368.853 263.317C369.071 264.085 368.612 264.566 367.821 264.566H366.744C366.08 264.566 365.724 264.257 365.438 263.638C364.842 262.435 363.639 261.541 361.885 261.541C359.02 261.541 357.118 263.913 357.118 267.683C357.118 271.522 358.986 273.94 361.885 273.94C363.501 273.94 364.785 273.184 365.438 271.843C365.724 271.236 366.08 270.915 366.744 270.915H367.821C368.612 270.915 369.071 271.316 368.887 271.981C368.119 274.846 365.575 276.84 361.862 276.84ZM378.881 276.84C373.919 276.84 370.676 273.207 370.676 267.763C370.676 262.286 373.919 258.653 378.881 258.653C383.844 258.653 387.087 262.286 387.087 267.763C387.087 273.207 383.844 276.84 378.881 276.84ZM374.137 267.752C374.137 271.133 375.65 273.963 378.893 273.963C382.113 273.963 383.626 271.133 383.626 267.752C383.626 264.383 382.113 261.518 378.893 261.518C375.65 261.518 374.137 264.383 374.137 267.752ZM397.035 276.84C392.073 276.84 388.83 273.207 388.83 267.763C388.83 262.286 392.073 258.653 397.035 258.653C401.997 258.653 405.24 262.286 405.24 267.763C405.24 273.207 401.997 276.84 397.035 276.84ZM392.291 267.752C392.291 271.133 393.803 273.963 397.047 273.963C400.267 273.963 401.78 271.133 401.78 267.752C401.78 264.383 400.267 261.518 397.047 261.518C393.803 261.518 392.291 264.383 392.291 267.752ZM411.201 275.338C411.201 276.083 410.8 276.484 410.055 276.484H408.92C408.175 276.484 407.774 276.083 407.774 275.338V254.161C407.774 253.416 408.175 253.015 408.92 253.015H410.055C410.8 253.015 411.201 253.416 411.201 254.161V275.338ZM422.106 276.84C416.915 276.84 413.729 273.264 413.729 267.798C413.729 262.389 416.961 258.653 421.865 258.653C425.853 258.653 429.658 261.14 429.658 267.5V267.569C429.658 268.313 429.257 268.715 428.512 268.715H417.144C417.236 272.107 419.207 274.009 422.14 274.009C423.71 274.009 424.983 273.459 425.739 272.382C426.129 271.809 426.518 271.545 427.183 271.671L428.191 271.855C428.971 272.004 429.36 272.45 429.097 273.035C428.019 275.361 425.498 276.84 422.106 276.84ZM417.155 266.148H426.3C426.289 263.455 424.547 261.483 421.888 261.483C419.104 261.483 417.293 263.649 417.155 266.148ZM443.239 263.558C442.575 263.672 442.197 263.409 441.818 262.836C441.268 262.022 440.317 261.369 438.736 261.369C436.787 261.369 435.321 262.331 435.332 263.684C435.321 264.876 436.157 265.529 438.094 265.987L440.89 266.629C444.122 267.374 445.703 268.909 445.703 271.396C445.703 274.582 442.758 276.84 438.506 276.84C435.08 276.84 432.673 275.522 431.722 273.138C431.436 272.416 431.837 271.9 432.605 271.786L433.682 271.625C434.358 271.522 434.725 271.809 435.068 272.428C435.687 273.516 436.856 274.078 438.484 274.078C440.73 274.078 442.185 273.012 442.185 271.648C442.185 270.548 441.394 269.792 439.698 269.414L436.719 268.76C433.418 268.027 431.906 266.365 431.906 263.867C431.906 260.75 434.725 258.653 438.701 258.653C441.933 258.653 443.961 259.936 444.935 262.011C445.279 262.733 444.901 263.26 444.122 263.397L443.239 263.558ZM456.397 260.486C456.397 261.231 455.995 261.632 455.251 261.632H452.787V271.316C452.787 273.299 453.784 273.665 454.895 273.665H455.01C455.732 273.642 456.179 273.883 456.328 274.593L456.477 275.247C456.637 275.957 456.362 276.507 455.629 276.622C455.308 276.668 454.93 276.714 454.494 276.714C451.79 276.771 449.349 275.224 449.36 272.026V261.632H447.928C447.183 261.632 446.782 261.231 446.782 260.486V260.028C446.782 259.283 447.183 258.882 447.928 258.882H449.36V255.811C449.36 255.066 449.761 254.665 450.506 254.665H451.641C452.386 254.665 452.787 255.066 452.787 255.811V258.882H455.251C455.995 258.882 456.397 259.283 456.397 260.028V260.486ZM480.81 276.84C475.848 276.84 472.605 273.207 472.605 267.763C472.605 262.286 475.848 258.653 480.81 258.653C485.772 258.653 489.015 262.286 489.015 267.763C489.015 273.207 485.772 276.84 480.81 276.84ZM476.065 267.752C476.065 271.133 477.578 273.963 480.821 273.963C484.042 273.963 485.554 271.133 485.554 267.752C485.554 264.383 484.042 261.518 480.821 261.518C477.578 261.518 476.065 264.383 476.065 267.752ZM499.926 260.486C499.926 261.231 499.525 261.632 498.78 261.632H496.133V275.338C496.133 276.083 495.732 276.484 494.987 276.484H493.841C493.096 276.484 492.695 276.083 492.695 275.338V261.632H491.125C490.38 261.632 489.979 261.231 489.979 260.486V260.028C489.979 259.283 490.38 258.882 491.125 258.882H492.695V256.842C492.695 253.542 495.136 251.914 497.921 251.914C498.608 251.914 499.204 251.983 499.686 252.075C500.419 252.224 500.671 252.774 500.465 253.484L500.293 254.092C500.098 254.791 499.731 255.054 499.227 254.963C498.998 254.917 498.746 254.894 498.448 254.894C496.775 254.894 496.133 255.742 496.133 257.301V258.882H498.78C499.525 258.882 499.926 259.283 499.926 260.028V260.486ZM524.887 260.486C524.887 261.231 524.486 261.632 523.741 261.632H521.277V271.316C521.277 273.299 522.274 273.665 523.385 273.665H523.5C524.222 273.642 524.669 273.883 524.818 274.593L524.967 275.247C525.127 275.957 524.852 276.507 524.119 276.622C523.798 276.668 523.42 276.714 522.984 276.714C520.28 276.771 517.839 275.224 517.85 272.026V261.632H516.418C515.673 261.632 515.272 261.231 515.272 260.486V260.028C515.272 259.283 515.673 258.882 516.418 258.882H517.85V255.811C517.85 255.066 518.251 254.665 518.996 254.665H520.131C520.876 254.665 521.277 255.066 521.277 255.811V258.882H523.741C524.486 258.882 524.887 259.283 524.887 260.028V260.486ZM531.191 275.338C531.191 276.083 530.79 276.484 530.045 276.484H528.91C528.165 276.484 527.764 276.083 527.764 275.338V254.161C527.764 253.416 528.165 253.015 528.91 253.015H529.999C530.744 253.015 531.145 253.416 531.145 254.161V261.747H531.363C532.188 259.845 533.838 258.653 536.577 258.653C540.198 258.653 542.605 260.899 542.605 265.288V275.338C542.605 276.083 542.204 276.484 541.459 276.484H540.324C539.58 276.484 539.178 276.083 539.178 275.338V265.701C539.178 263.122 537.769 261.621 535.408 261.621C532.967 261.621 531.191 263.225 531.191 266.033V275.338ZM553.473 276.84C548.282 276.84 545.096 273.264 545.096 267.798C545.096 262.389 548.327 258.653 553.232 258.653C557.22 258.653 561.025 261.14 561.025 267.5V267.569C561.025 268.313 560.624 268.715 559.879 268.715H548.511C548.603 272.107 550.574 274.009 553.507 274.009C555.077 274.009 556.349 273.459 557.106 272.382C557.495 271.809 557.885 271.545 558.55 271.671L559.558 271.855C560.337 272.004 560.727 272.45 560.463 273.035C559.386 275.361 556.865 276.84 553.473 276.84ZM548.522 266.148H557.667C557.656 263.455 555.914 261.483 553.255 261.483C550.47 261.483 548.66 263.649 548.522 266.148ZM563.536 260.028C563.536 259.283 563.937 258.882 564.682 258.882H565.679C566.424 258.882 566.825 259.283 566.825 260.028V261.747H567.043C567.776 259.81 569.507 258.653 571.833 258.653C574.182 258.653 575.798 259.822 576.566 261.747H576.749C577.597 259.868 579.5 258.653 582.032 258.653C585.218 258.653 587.464 260.658 587.464 264.681V275.338C587.464 276.083 587.063 276.484 586.318 276.484H585.184C584.439 276.484 584.038 276.083 584.038 275.338V265.002C584.038 262.618 582.548 261.609 580.737 261.609C578.503 261.609 577.208 263.145 577.208 265.265V275.338C577.208 276.083 576.807 276.484 576.062 276.484H574.939C574.194 276.484 573.793 276.083 573.793 275.338V264.784C573.793 262.87 572.475 261.609 570.572 261.609C568.624 261.609 566.963 263.26 566.963 265.632V275.338C566.963 276.083 566.561 276.484 565.817 276.484H564.682C563.937 276.484 563.536 276.083 563.536 275.338V260.028ZM610.388 276.874C607.041 276.874 604.44 274.972 604.44 271.511C604.44 267.511 607.855 266.64 611.19 266.251C614.353 265.884 615.636 265.907 615.636 264.658V264.578C615.636 262.584 614.502 261.426 612.29 261.426C610.525 261.426 609.368 262.125 608.692 263.019C608.279 263.569 607.878 263.81 607.225 263.661L606.228 263.432C605.449 263.248 605.116 262.687 605.517 261.976C606.904 259.615 609.482 258.653 612.244 258.653C615.04 258.653 619.074 259.673 619.074 264.795V275.338C619.074 276.083 618.673 276.484 617.928 276.484H616.874C616.129 276.484 615.728 276.083 615.728 275.338V274.078H615.591C614.937 275.396 613.299 276.874 610.388 276.874ZM607.798 271.557C607.798 273.253 609.196 274.124 611.133 274.124C613.986 274.124 615.648 272.221 615.648 270.136V267.867C615.155 268.359 612.519 268.657 611.408 268.806C609.425 269.07 607.798 269.723 607.798 271.557ZM625.774 275.338C625.774 276.083 625.373 276.484 624.628 276.484H623.493C622.748 276.484 622.347 276.083 622.347 275.338V254.161C622.347 253.416 622.748 253.015 623.493 253.015H624.628C625.373 253.015 625.774 253.416 625.774 254.161V275.338ZM632.519 275.338C632.519 276.083 632.118 276.484 631.373 276.484H630.239C629.494 276.484 629.093 276.083 629.093 275.338V254.161C629.093 253.416 629.494 253.015 630.239 253.015H631.373C632.118 253.015 632.519 253.416 632.519 254.161V275.338Z" fill="#C0C0C0"/>
<g filter="url(#filter10_d_4009_300)">
<rect x="-785" y="213.992" width="799.162" height="101.481" rx="21.6896" fill="white"/>
<rect x="-784.495" y="214.497" width="798.152" height="100.471" rx="21.1846" stroke="#D0D0D0" stroke-width="1.01"/>
</g>
</g>
<defs>
<filter id="filter0_f_4009_300" x="-228.9" y="-191.892" width="1333.8" height="1268.8" filterUnits="userSpaceOnUse" color-interpolation-filters="sRGB">
<feFlood flood-opacity="0" result="BackgroundImageFix"/>
<feBlend mode="normal" in="SourceGraphic" in2="BackgroundImageFix" result="shape"/>
<feGaussianBlur stdDeviation="76.95" result="effect1_foregroundBlur_4009_300"/>
</filter>
<filter id="filter1_f_4009_300" x="368.1" y="79.1078" width="1334.8" height="1269.8" filterUnits="userSpaceOnUse" color-interpolation-filters="sRGB">
<feFlood flood-opacity="0" result="BackgroundImageFix"/>
<feBlend mode="normal" in="SourceGraphic" in2="BackgroundImageFix" result="shape"/>
<feGaussianBlur stdDeviation="76.95" result="effect1_foregroundBlur_4009_300"/>
</filter>
<filter id="filter2_f_4009_300" x="-800.9" y="-762.892" width="1334.8" height="1269.8" filterUnits="userSpaceOnUse" color-interpolation-filters="sRGB">
<feFlood flood-opacity="0" result="BackgroundImageFix"/>
<feBlend mode="normal" in="SourceGraphic" in2="BackgroundImageFix" result="shape"/>
<feGaussianBlur stdDeviation="76.95" result="effect1_foregroundBlur_4009_300"/>
</filter>
<filter id="filter3_f_4009_300" x="-898.087" y="-51.6656" width="1334.66" height="1242.85" filterUnits="userSpaceOnUse" color-interpolation-filters="sRGB">
<feFlood flood-opacity="0" result="BackgroundImageFix"/>
<feBlend mode="normal" in="SourceGraphic" in2="BackgroundImageFix" result="shape"/>
<feGaussianBlur stdDeviation="76.95" result="effect1_foregroundBlur_4009_300"/>
</filter>
<filter id="filter5_f_4009_300" x="-157.314" y="214.498" width="1288.3" height="1269.52" filterUnits="userSpaceOnUse" color-interpolation-filters="sRGB">
<feFlood flood-opacity="0" result="BackgroundImageFix"/>
<feBlend mode="normal" in="SourceGraphic" in2="BackgroundImageFix" result="shape"/>
<feGaussianBlur stdDeviation="76.95" result="effect1_foregroundBlur_4009_300"/>
</filter>
<filter id="filter6_f_4009_300" x="-182.752" y="-907.009" width="1288.3" height="1269.52" filterUnits="userSpaceOnUse" color-interpolation-filters="sRGB">
<feFlood flood-opacity="0" result="BackgroundImageFix"/>
<feBlend mode="normal" in="SourceGraphic" in2="BackgroundImageFix" result="shape"/>
<feGaussianBlur stdDeviation="76.95" result="effect1_foregroundBlur_4009_300"/>
</filter>
<filter id="filter7_d_4009_300" x="-317.183" y="27.9195" width="666.209" height="167.49" filterUnits="userSpaceOnUse" color-interpolation-filters="sRGB">
<feFlood flood-opacity="0" result="BackgroundImageFix"/>
<feColorMatrix in="SourceAlpha" type="matrix" values="0 0 0 0 0 0 0 0 0 0 0 0 0 0 0 0 0 0 127 0" result="hardAlpha"/>
<feOffset dy="5.16461"/>
<feGaussianBlur stdDeviation="16.5913"/>
<feComposite in2="hardAlpha" operator="out"/>
<feColorMatrix type="matrix" values="0 0 0 0 0 0 0 0 0 0 0 0 0 0 0 0 0 0 0.1 0"/>
<feBlend mode="normal" in2="BackgroundImageFix" result="effect1_dropShadow_4009_300"/>
<feBlend mode="normal" in="SourceGraphic" in2="effect1_dropShadow_4009_300" result="shape"/>
</filter>
<filter id="filter8_d_4009_300" x="322.606" y="27.9195" width="666.209" height="167.49" filterUnits="userSpaceOnUse" color-interpolation-filters="sRGB">
<feFlood flood-opacity="0" result="BackgroundImageFix"/>
<feColorMatrix in="SourceAlpha" type="matrix" values="0 0 0 0 0 0 0 0 0 0 0 0 0 0 0 0 0 0 127 0" result="hardAlpha"/>
<feOffset dy="5.16461"/>
<feGaussianBlur stdDeviation="16.5913"/>
<feComposite in2="hardAlpha" operator="out"/>
<feColorMatrix type="matrix" values="0 0 0 0 0 0 0 0 0 0 0 0 0 0 0 0 0 0 0.1 0"/>
<feBlend mode="normal" in2="BackgroundImageFix" result="effect1_dropShadow_4009_300"/>
<feBlend mode="normal" in="SourceGraphic" in2="effect1_dropShadow_4009_300" result="shape"/>
</filter>
<filter id="filter9_d_4009_300" x="20.2861" y="185.966" width="865.529" height="167.85" filterUnits="userSpaceOnUse" color-interpolation-filters="sRGB">
<feFlood flood-opacity="0" result="BackgroundImageFix"/>
<feColorMatrix in="SourceAlpha" type="matrix" values="0 0 0 0 0 0 0 0 0 0 0 0 0 0 0 0 0 0 127 0" result="hardAlpha"/>
<feOffset dy="5.16461"/>
<feGaussianBlur stdDeviation="16.5913"/>
<feComposite in2="hardAlpha" operator="out"/>
<feColorMatrix type="matrix" values="0 0 0 0 0 0 0 0 0 0 0 0 0 0 0 0 0 0 0.1 0"/>
<feBlend mode="normal" in2="BackgroundImageFix" result="effect1_dropShadow_4009_300"/>
<feBlend mode="normal" in="SourceGraphic" in2="effect1_dropShadow_4009_300" result="shape"/>
</filter>
<filter id="filter10_d_4009_300" x="-818.183" y="185.974" width="865.529" height="167.85" filterUnits="userSpaceOnUse" color-interpolation-filters="sRGB">
<feFlood flood-opacity="0" result="BackgroundImageFix"/>
<feColorMatrix in="SourceAlpha" type="matrix" values="0 0 0 0 0 0 0 0 0 0 0 0 0 0 0 0 0 0 127 0" result="hardAlpha"/>
<feOffset dy="5.16461"/>
<feGaussianBlur stdDeviation="16.5913"/>
<feComposite in2="hardAlpha" operator="out"/>
<feColorMatrix type="matrix" values="0 0 0 0 0 0 0 0 0 0 0 0 0 0 0 0 0 0 0.1 0"/>
<feBlend mode="normal" in2="BackgroundImageFix" result="effect1_dropShadow_4009_300"/>
<feBlend mode="normal" in="SourceGraphic" in2="effect1_dropShadow_4009_300" result="shape"/>
</filter>
<clipPath id="clip0_4009_300">
<rect width="370" height="370" rx="15" fill="white"/>
</clipPath>
</defs>
</svg>
