<svg width="755" height="394" viewBox="0 0 755 394" fill="none" xmlns="http://www.w3.org/2000/svg">
<rect width="755" height="394" fill="white"/>
<rect y="285" width="755" height="109" fill="url(#paint0_linear_4092_1014)"/>
<path d="M81.1633 74.5644C81.1633 73.486 81.7557 72.8936 82.8341 72.8936H92.8282C99.9669 72.8936 103.794 76.9034 103.794 82.8422C103.794 87.0646 101.865 90.1935 98.205 91.6668L103.84 102.01C104.463 103.165 103.977 104 102.67 104H99.9821C99.0556 104 98.448 103.635 98.0075 102.815L92.5396 92.6085H86.7983V102.329C86.7983 103.408 86.206 104 85.1276 104H82.8341C81.7557 104 81.1633 103.408 81.1633 102.329V74.5644ZM86.7983 87.9304H91.9928C96.1697 87.9304 98.0531 86.1533 98.0531 82.8422C98.0531 79.5311 96.1697 77.6021 91.9625 77.6021H86.7983V87.9304ZM116.594 104.456C109.562 104.456 105.263 99.7927 105.263 92.4718C105.263 85.2724 109.622 80.3664 116.305 80.3664C122.047 80.3664 126.968 83.9662 126.968 92.1528V92.168C126.968 93.2464 126.375 93.8388 125.297 93.8388H110.716C110.761 97.8334 113.116 100.172 116.67 100.172C118.492 100.172 119.996 99.5649 120.923 98.3802C121.515 97.6056 122.062 97.2107 123.004 97.317L124.857 97.5296C126.026 97.6663 126.634 98.3042 126.254 99.17C124.826 102.405 121.363 104.456 116.594 104.456ZM110.731 90.1328H121.697C121.667 86.9583 119.541 84.6496 116.381 84.6496C113.101 84.6496 110.898 87.1558 110.731 90.1328ZM139.627 113.235C134.736 113.235 131.592 111.458 130.073 108.997C129.481 108.01 129.997 107.174 131.121 106.901L132.898 106.476C133.84 106.248 134.417 106.582 135.055 107.311C135.921 108.268 137.348 109.073 139.718 109.073C142.847 109.073 145.125 107.66 145.125 104.228V99.8079H144.852C144.001 101.524 142.133 103.666 138.138 103.666C132.761 103.666 128.524 99.8687 128.524 92.2592C128.524 84.5889 132.761 80.3664 138.153 80.3664C142.27 80.3664 144.016 82.8422 144.852 84.5281H145.155V82.341C145.155 81.2626 145.748 80.6702 146.826 80.6702H148.907C149.985 80.6702 150.578 81.2626 150.578 82.341V104.38C150.578 110.349 145.93 113.235 139.627 113.235ZM134.128 92.2288C134.128 96.5272 136.042 99.3523 139.672 99.3523C143.181 99.3523 145.155 96.6791 145.155 92.2288C145.155 87.8089 143.211 84.8775 139.672 84.8775C136.012 84.8775 134.128 87.9911 134.128 92.2288ZM168.944 82.341C168.944 81.2626 169.536 80.6702 170.615 80.6702H172.771C173.85 80.6702 174.442 81.2626 174.442 82.341V102.329C174.442 103.408 173.85 104 172.771 104H170.782C169.703 104 169.111 103.408 169.111 102.329V99.8535H168.868C167.805 102.466 165.344 104.304 161.851 104.304C157.264 104.304 154.074 101.129 154.074 95.5247V82.341C154.074 81.2626 154.667 80.6702 155.745 80.6702H157.902C158.98 80.6702 159.572 81.2626 159.572 82.341V94.6742C159.572 97.6359 161.334 99.5042 163.977 99.5042C166.407 99.5042 168.944 97.7423 168.944 94.1881V82.341ZM183.456 102.329C183.456 103.408 182.864 104 181.785 104H179.628C178.55 104 177.958 103.408 177.958 102.329V74.5644C177.958 73.486 178.55 72.8936 179.628 72.8936H181.785C182.864 72.8936 183.456 73.486 183.456 74.5644V102.329ZM193.685 104.471C189.234 104.471 185.878 102.041 185.878 97.4537C185.878 92.1984 190.207 90.8466 194.733 90.3606C198.849 89.9201 200.504 89.8442 200.504 88.2645V88.1734C200.504 85.8799 199.107 84.5737 196.555 84.5737C194.596 84.5737 193.244 85.3028 192.439 86.3052C191.847 87.0798 191.315 87.4747 190.358 87.338L188.521 87.0798C187.351 86.9128 186.789 86.1078 187.351 85.0445C189.007 81.9461 192.348 80.3664 196.525 80.3664C200.975 80.3664 206.003 82.2195 206.003 88.3861V102.329C206.003 103.408 205.41 104 204.332 104H202.388C201.309 104 200.717 103.423 200.717 102.39V100.795H200.535C199.532 102.755 197.345 104.471 193.685 104.471ZM191.179 97.3626C191.179 99.3826 192.819 100.431 195.112 100.431C198.424 100.431 200.52 98.2283 200.52 95.631V92.8819C199.806 93.4591 196.92 93.8236 195.477 94.021C193.016 94.3704 191.179 95.2513 191.179 97.3626ZM209.393 82.341C209.393 81.2626 209.985 80.6702 211.064 80.6702H213.053C214.132 80.6702 214.724 81.2626 214.724 82.341V84.5585H214.967C215.818 81.8549 218.05 80.3361 220.724 80.3361H221.118C222.166 80.3816 222.698 81.0347 222.698 82.0828V83.7535C222.698 84.8927 222.242 85.4091 221.437 85.3028C221.012 85.2572 220.556 85.2268 220.146 85.2268C217.124 85.2268 214.891 87.3228 214.891 90.2846V102.329C214.891 103.408 214.299 104 213.22 104H211.064C209.985 104 209.393 103.408 209.393 102.329V82.341ZM232.926 74.5644C232.926 73.486 233.518 72.8936 234.597 72.8936H244.591C251.745 72.8936 255.557 77.2528 255.557 83.1915C255.557 89.1759 251.699 93.4894 244.515 93.4894H238.561V102.329C238.561 103.408 237.969 104 236.89 104H234.597C233.518 104 232.926 103.408 232.926 102.329V74.5644ZM238.561 88.8569H243.756C247.948 88.8569 249.816 86.5027 249.816 83.1915C249.816 79.8804 247.948 77.6021 243.725 77.6021H238.561V88.8569ZM258.313 74.5644C258.313 73.486 258.906 72.8936 259.984 72.8936H276.874C277.952 72.8936 278.545 73.486 278.545 74.5644V75.9465C278.545 77.0249 277.952 77.6173 276.874 77.6173H263.948V86.0622H275.826C276.904 86.0622 277.496 86.6545 277.496 87.7329V89.1151C277.496 90.1935 276.904 90.7859 275.826 90.7859H263.948V99.2763H276.995C278.074 99.2763 278.666 99.8687 278.666 100.947V102.329C278.666 103.408 278.074 104 276.995 104H259.984C258.906 104 258.313 103.408 258.313 102.329V74.5644ZM282.155 74.5644C282.155 73.486 282.747 72.8936 283.826 72.8936H293.82C300.958 72.8936 304.786 76.9034 304.786 82.8422C304.786 87.0646 302.857 90.1935 299.197 91.6668L304.832 102.01C305.454 103.165 304.968 104 303.662 104H300.974C300.047 104 299.44 103.635 298.999 102.815L293.531 92.6085H287.79V102.329C287.79 103.408 287.197 104 286.119 104H283.826C282.747 104 282.155 103.408 282.155 102.329V74.5644ZM287.79 87.9304H292.984C297.161 87.9304 299.045 86.1533 299.045 82.8422C299.045 79.5311 297.161 77.6021 292.954 77.6021H287.79V87.9304Z" fill="#353535"/>
<path d="M403.441 74.7618C403.122 73.6075 403.653 72.8936 404.853 72.8936H407.481C408.483 72.8936 409.076 73.3493 409.319 74.3365L414.574 95.7526H414.863L420.467 74.3214C420.725 73.3645 421.333 72.8936 422.32 72.8936H424.887C425.874 72.8936 426.482 73.3645 426.74 74.3214L432.36 95.7677H432.633L437.889 74.3365C438.132 73.3493 438.724 72.8936 439.726 72.8936H442.354C443.554 72.8936 444.086 73.6075 443.767 74.7618L435.914 102.587C435.641 103.529 435.033 104 434.046 104H431.433C430.446 104 429.839 103.529 429.565 102.587L423.733 82.1739H423.49L417.657 102.587C417.384 103.529 416.761 104 415.774 104H413.161C412.174 104 411.567 103.529 411.293 102.587L403.441 74.7618ZM453.771 104.456C446.739 104.456 442.441 99.7927 442.441 92.4718C442.441 85.2724 446.8 80.3664 453.483 80.3664C459.224 80.3664 464.145 83.9662 464.145 92.1528V92.168C464.145 93.2464 463.553 93.8388 462.474 93.8388H447.893C447.939 97.8334 450.293 100.172 453.847 100.172C455.67 100.172 457.174 99.5649 458.1 98.3802C458.692 97.6056 459.239 97.2107 460.181 97.317L462.034 97.5296C463.203 97.6663 463.811 98.3042 463.431 99.17C462.004 102.405 458.541 104.456 453.771 104.456ZM447.909 90.1328H458.875C458.844 86.9583 456.718 84.6496 453.559 84.6496C450.278 84.6496 448.076 87.1558 447.909 90.1328ZM469.422 77.3591C467.661 77.3591 466.233 76.0225 466.233 74.3821C466.233 72.7265 467.661 71.3899 469.422 71.3899C471.169 71.3899 472.597 72.7265 472.597 74.3821C472.597 76.0225 471.169 77.3591 469.422 77.3591ZM466.658 102.329V82.341C466.658 81.2626 467.251 80.6702 468.329 80.6702H470.486C471.564 80.6702 472.156 81.2626 472.156 82.341V102.329C472.156 103.408 471.564 104 470.486 104H468.329C467.251 104 466.658 103.408 466.658 102.329ZM485.818 113.235C480.927 113.235 477.783 111.458 476.264 108.997C475.672 108.01 476.188 107.174 477.312 106.901L479.089 106.476C480.031 106.248 480.608 106.582 481.246 107.311C482.112 108.268 483.54 109.073 485.909 109.073C489.038 109.073 491.316 107.66 491.316 104.228V99.8079H491.043C490.192 101.524 488.324 103.666 484.329 103.666C478.953 103.666 474.715 99.8687 474.715 92.2592C474.715 84.5889 478.953 80.3664 484.345 80.3664C488.461 80.3664 490.207 82.8422 491.043 84.5281H491.347V82.341C491.347 81.2626 491.939 80.6702 493.017 80.6702H495.098C496.177 80.6702 496.769 81.2626 496.769 82.341V104.38C496.769 110.349 492.121 113.235 485.818 113.235ZM480.32 92.2288C480.32 96.5272 482.233 99.3523 485.863 99.3523C489.372 99.3523 491.347 96.6791 491.347 92.2288C491.347 87.8089 489.402 84.8775 485.863 84.8775C482.203 84.8775 480.32 87.9911 480.32 92.2288ZM505.764 102.329C505.764 103.408 505.171 104 504.093 104H501.936C500.858 104 500.265 103.408 500.265 102.329V74.5644C500.265 73.486 500.858 72.8936 501.936 72.8936H503.971C505.05 72.8936 505.642 73.486 505.642 74.5644V84.6345H505.916C506.994 81.9916 509.272 80.3664 512.857 80.3664C517.702 80.3664 520.892 83.5105 520.892 89.1455V102.329C520.892 103.408 520.299 104 519.221 104H517.064C515.986 104 515.393 103.408 515.393 102.329V89.9961C515.393 86.852 513.692 85.0142 510.806 85.0142C507.86 85.0142 505.764 86.9583 505.764 90.3302V102.329ZM536.007 83.2523C536.007 84.3307 535.415 84.923 534.337 84.923H531.405V96.9828C531.405 99.2004 532.514 99.6864 533.896 99.6864H533.926C534.458 99.6864 535.612 100.005 535.84 101.038L536.083 102.162C536.311 103.21 535.901 103.985 534.838 104.167C534.367 104.243 533.82 104.304 533.197 104.319C529.066 104.44 525.876 102.284 525.907 97.8942V84.923H524.266C523.188 84.923 522.596 84.3307 522.596 83.2523V82.341C522.596 81.2626 523.188 80.6702 524.251 80.6702H525.907V76.7515C525.907 75.6731 526.499 75.0808 527.578 75.0808H529.734C530.813 75.0808 531.405 75.6731 531.405 76.7515V80.6702H534.337C535.415 80.6702 536.007 81.2626 536.007 82.341V83.2523ZM548.545 104.456C541.512 104.456 537.214 99.7927 537.214 92.4718C537.214 85.2724 541.573 80.3664 548.256 80.3664C553.998 80.3664 558.919 83.9662 558.919 92.1528V92.168C558.919 93.2464 558.326 93.8388 557.248 93.8388H542.667C542.712 97.8334 545.067 100.172 548.621 100.172C550.443 100.172 551.947 99.5649 552.874 98.3802C553.466 97.6056 554.013 97.2107 554.954 97.317L556.807 97.5296C557.977 97.6663 558.584 98.3042 558.205 99.17C556.777 102.405 553.314 104.456 548.545 104.456ZM542.682 90.1328H553.648C553.618 86.9583 551.491 84.6496 548.332 84.6496C545.051 84.6496 542.849 87.1558 542.682 90.1328ZM570.089 104.41C564.591 104.41 560.475 100.051 560.475 92.3655C560.475 84.5889 564.712 80.3664 570.104 80.3664C574.22 80.3664 575.937 82.8422 576.772 84.5281H577V74.5644C577 73.486 577.592 72.8936 578.671 72.8936H580.843C581.921 72.8936 582.513 73.486 582.513 74.5644V102.329C582.513 103.408 581.921 104 580.843 104H578.777C577.699 104 577.106 103.408 577.106 102.329V100.324H576.772C575.906 102.025 574.099 104.41 570.089 104.41ZM566.079 92.3351C566.079 96.7094 567.993 99.8991 571.623 99.8991C575.132 99.8991 577.106 96.8613 577.106 92.3351C577.106 87.8089 575.162 84.8775 571.623 84.8775C567.963 84.8775 566.079 87.9911 566.079 92.3351ZM594.948 74.5644C594.948 73.486 595.54 72.8936 596.618 72.8936H606.613C613.766 72.8936 617.579 77.2528 617.579 83.1915C617.579 89.1759 613.721 93.4894 606.537 93.4894H600.583V102.329C600.583 103.408 599.99 104 598.912 104H596.618C595.54 104 594.948 103.408 594.948 102.329V74.5644ZM600.583 88.8569H605.777C609.969 88.8569 611.837 86.5027 611.837 83.1915C611.837 79.8804 609.969 77.6021 605.747 77.6021H600.583V88.8569ZM620.335 74.5644C620.335 73.486 620.927 72.8936 622.005 72.8936H638.895C639.974 72.8936 640.566 73.486 640.566 74.5644V75.9465C640.566 77.0249 639.974 77.6173 638.895 77.6173H625.97V86.0622H637.847C638.926 86.0622 639.518 86.6545 639.518 87.7329V89.1151C639.518 90.1935 638.926 90.7859 637.847 90.7859H625.97V99.2763H639.017C640.095 99.2763 640.688 99.8687 640.688 100.947V102.329C640.688 103.408 640.095 104 639.017 104H622.005C620.927 104 620.335 103.408 620.335 102.329V74.5644ZM644.176 74.5644C644.176 73.486 644.769 72.8936 645.847 72.8936H655.841C662.98 72.8936 666.807 76.9034 666.807 82.8422C666.807 87.0646 664.879 90.1935 661.218 91.6668L666.853 102.01C667.476 103.165 666.99 104 665.684 104H662.995C662.069 104 661.461 103.635 661.021 102.815L655.553 92.6085H649.811V102.329C649.811 103.408 649.219 104 648.141 104H645.847C644.769 104 644.176 103.408 644.176 102.329V74.5644ZM649.811 87.9304H655.006C659.183 87.9304 661.066 86.1533 661.066 82.8422C661.066 79.5311 659.183 77.6021 654.976 77.6021H649.811V87.9304Z" fill="#353535"/>
<rect x="98.8414" y="150.841" width="41.3172" height="49.3172" rx="5.88981" fill="#D9EAE0" stroke="#006837" stroke-width="1.6828"/>
<rect x="98.8414" y="215.841" width="41.3172" height="49.3172" rx="5.88981" fill="#FFE3E3" stroke="#C01717" stroke-width="1.6828"/>
<rect x="98.8414" y="280.841" width="41.3172" height="49.3172" rx="5.88981" fill="#FFE3E3" stroke="#C01717" stroke-width="1.6828"/>
<rect x="145.841" y="150.841" width="41.3172" height="49.3172" rx="5.88981" fill="#D9EAE0" stroke="#006837" stroke-width="1.6828"/>
<rect x="145.841" y="215.841" width="41.3172" height="49.3172" rx="5.88981" fill="#D9EAE0" stroke="#006837" stroke-width="1.6828"/>
<rect x="145.841" y="280.841" width="41.3172" height="49.3172" rx="5.88981" fill="#D9EAE0" stroke="#006837" stroke-width="1.6828"/>
<rect x="192.841" y="150.841" width="41.3172" height="49.3172" rx="5.88981" fill="#D9EAE0" stroke="#006837" stroke-width="1.6828"/>
<rect x="192.841" y="215.841" width="41.3172" height="49.3172" rx="5.88981" fill="#D9EAE0" stroke="#006837" stroke-width="1.6828"/>
<rect x="192.841" y="280.841" width="41.3172" height="49.3172" rx="5.88981" fill="#D9EAE0" stroke="#006837" stroke-width="1.6828"/>
<rect x="251" y="215" width="103" height="51" rx="25.5" fill="#FFE3E3"/>
<rect x="251" y="280" width="103" height="51" rx="25.5" fill="#FFE3E3"/>
<path d="M279.156 242.518C279.156 243.257 278.749 243.664 278.009 243.664H270.694C269.954 243.664 269.548 243.257 269.548 242.518V241.705C269.548 240.965 269.954 240.558 270.694 240.558H278.009C278.749 240.558 279.156 240.965 279.156 241.705V242.518ZM290.295 249.854C290.295 250.594 289.888 251 289.149 251H287.575C286.835 251 286.429 250.594 286.429 249.854V233.42H286.304L282.698 235.723C281.917 236.223 281.312 235.89 281.312 234.962V233.962C281.312 233.347 281.531 232.93 282.062 232.587L285.97 230.075C286.439 229.773 286.835 229.658 287.387 229.658H289.149C289.888 229.658 290.295 230.065 290.295 230.805V249.854ZM295.437 251.229C294.166 251.229 293.134 250.208 293.144 248.937C293.134 247.686 294.166 246.665 295.437 246.665C296.667 246.665 297.719 247.686 297.73 248.937C297.719 250.208 296.667 251.229 295.437 251.229ZM307.173 251.406C302.025 251.406 298.951 247.342 298.951 240.35C298.961 233.379 302.046 229.367 307.173 229.367C312.3 229.367 315.395 233.389 315.395 240.35C315.395 247.353 312.321 251.417 307.173 251.406ZM302.859 240.35C302.848 245.477 304.516 248.145 307.173 248.145C309.841 248.145 311.497 245.477 311.497 240.35C311.487 235.265 309.83 232.587 307.173 232.587C304.526 232.587 302.869 235.265 302.859 240.35ZM325.278 251.406C320.131 251.406 317.056 247.342 317.056 240.35C317.067 233.379 320.151 229.367 325.278 229.367C330.405 229.367 333.5 233.389 333.5 240.35C333.5 247.353 330.426 251.417 325.278 251.406ZM320.964 240.35C320.954 245.477 322.621 248.145 325.278 248.145C327.946 248.145 329.603 245.477 329.603 240.35C329.593 235.265 327.936 232.587 325.278 232.587C322.631 232.587 320.975 235.265 320.964 240.35Z" fill="#C01717"/>
<path d="M279.156 307.518C279.156 308.257 278.749 308.664 278.009 308.664H270.694C269.954 308.664 269.548 308.257 269.548 307.518V306.705C269.548 305.965 269.954 305.558 270.694 305.558H278.009C278.749 305.558 279.156 305.965 279.156 306.705V307.518ZM290.295 314.854C290.295 315.594 289.888 316 289.149 316H287.575C286.835 316 286.429 315.594 286.429 314.854V298.42H286.304L282.698 300.723C281.917 301.223 281.312 300.89 281.312 299.962V298.962C281.312 298.347 281.531 297.93 282.062 297.587L285.97 295.075C286.439 294.773 286.835 294.658 287.387 294.658H289.149C289.888 294.658 290.295 295.065 290.295 295.805V314.854ZM295.437 316.229C294.166 316.229 293.134 315.208 293.144 313.937C293.134 312.686 294.166 311.665 295.437 311.665C296.667 311.665 297.719 312.686 297.73 313.937C297.719 315.208 296.667 316.229 295.437 316.229ZM307.173 316.406C302.025 316.406 298.951 312.342 298.951 305.35C298.961 298.379 302.046 294.367 307.173 294.367C312.3 294.367 315.395 298.389 315.395 305.35C315.395 312.353 312.321 316.417 307.173 316.406ZM302.859 305.35C302.848 310.477 304.516 313.145 307.173 313.145C309.841 313.145 311.497 310.477 311.497 305.35C311.487 300.265 309.83 297.587 307.173 297.587C304.526 297.587 302.869 300.265 302.859 305.35ZM325.278 316.406C320.131 316.406 317.056 312.342 317.056 305.35C317.067 298.379 320.151 294.367 325.278 294.367C330.405 294.367 333.5 298.389 333.5 305.35C333.5 312.353 330.426 316.417 325.278 316.406ZM320.964 305.35C320.954 310.477 322.621 313.145 325.278 313.145C327.946 313.145 329.603 310.477 329.603 305.35C329.593 300.265 327.936 297.587 325.278 297.587C322.631 297.587 320.975 300.265 320.964 305.35Z" fill="#C01717"/>
<rect opacity="0.5" x="98.8414" y="150.841" width="41.3172" height="49.3172" rx="5.88981" fill="#39B572" stroke="#006837" stroke-width="1.6828"/>
<rect opacity="0.5" x="98.8414" y="215.841" width="41.3172" height="49.3172" rx="5.88981" fill="#EC8888" stroke="#BB7300" stroke-width="1.6828"/>
<rect opacity="0.5" x="98.8414" y="280.841" width="41.3172" height="49.3172" rx="5.88981" fill="#D92D2D" stroke="#C01717" stroke-width="1.6828"/>
<rect opacity="0.5" x="145.841" y="150.841" width="41.3172" height="49.3172" rx="5.88981" fill="#39B572" stroke="#006837" stroke-width="1.6828"/>
<rect opacity="0.5" x="145.841" y="215.841" width="41.3172" height="49.3172" rx="5.88981" fill="#39B572" stroke="#006837" stroke-width="1.6828"/>
<rect opacity="0.5" x="145.841" y="280.841" width="41.3172" height="49.3172" rx="5.88981" fill="#39B572" stroke="#006837" stroke-width="1.6828"/>
<rect opacity="0.5" x="192.841" y="150.841" width="41.3172" height="49.3172" rx="5.88981" fill="#39B572" stroke="#006837" stroke-width="1.6828"/>
<rect opacity="0.5" x="192.841" y="215.841" width="41.3172" height="49.3172" rx="5.88981" fill="#39B572" stroke="#006837" stroke-width="1.6828"/>
<rect opacity="0.5" x="192.841" y="280.841" width="41.3172" height="49.3172" rx="5.88981" fill="#39B572" stroke="#006837" stroke-width="1.6828"/>
<rect x="98.8414" y="215.841" width="41.3172" height="49.3172" rx="5.88981" fill="#EC8888" stroke="#C01717" stroke-width="1.6828"/>
<path d="M111.883 162.536C111.883 161.603 112.395 161.091 113.328 161.091H121.974C128.162 161.091 131.46 164.862 131.46 169.999C131.46 175.176 128.123 178.908 121.908 178.908H116.757V186.555C116.757 187.488 116.245 188 115.312 188H113.328C112.395 188 111.883 187.488 111.883 186.555V162.536ZM116.757 174.9H121.251C124.877 174.9 126.494 172.864 126.494 169.999C126.494 167.135 124.877 165.164 121.225 165.164H116.757V174.9ZM179.872 174.545C179.872 183.244 174.564 188.368 167.508 188.368C160.439 188.368 155.144 183.23 155.144 174.545C155.144 165.847 160.439 160.723 167.508 160.723C174.564 160.723 179.872 165.847 179.872 174.545ZM160.045 174.545C160.045 180.668 163.133 183.993 167.508 183.993C171.897 183.993 174.971 180.668 174.971 174.545C174.971 168.423 171.897 165.098 167.508 165.098C163.133 165.098 160.045 168.423 160.045 174.545ZM204.614 162.536C204.614 161.603 205.126 161.091 206.059 161.091H214.705C220.893 161.091 224.191 164.862 224.191 169.999C224.191 175.176 220.854 178.908 214.639 178.908H209.489V186.555C209.489 187.488 208.976 188 208.043 188H206.059C205.126 188 204.614 187.488 204.614 186.555V162.536ZM209.489 174.9H213.982C217.609 174.9 219.225 172.864 219.225 169.999C219.225 167.135 217.609 165.164 213.956 165.164H209.489V174.9Z" fill="#353535"/>
<path d="M111.13 227.536C111.13 226.603 111.642 226.091 112.575 226.091H121.431C127.265 226.091 130.155 229.06 130.155 233.068C130.155 236.339 128.079 238.179 125.452 238.797V239.059C128.316 239.204 131.207 241.595 131.207 245.668C131.207 249.86 128.184 253 122.022 253H112.575C111.642 253 111.13 252.488 111.13 251.555V227.536ZM116.004 248.927H121.247C124.781 248.927 126.253 247.429 126.253 245.287C126.253 242.883 124.387 241.043 121.378 241.043H116.004V248.927ZM116.004 237.535H120.827C123.362 237.535 125.281 236.064 125.281 233.699C125.281 231.623 123.796 230.112 120.932 230.112H116.004V237.535ZM179.625 239.545C179.625 248.244 174.317 253.368 167.261 253.368C160.192 253.368 154.897 248.23 154.897 239.545C154.897 230.847 160.192 225.723 167.261 225.723C174.317 225.723 179.625 230.847 179.625 239.545ZM159.798 239.545C159.798 245.668 162.886 248.993 167.261 248.993C171.65 248.993 174.724 245.668 174.724 239.545C174.724 233.423 171.65 230.098 167.261 230.098C162.886 230.098 159.798 233.423 159.798 239.545ZM204.367 227.536C204.367 226.603 204.879 226.091 205.812 226.091H214.458C220.646 226.091 223.944 229.862 223.944 234.999C223.944 240.176 220.607 243.908 214.392 243.908H209.242V251.555C209.242 252.488 208.729 253 207.796 253H205.812C204.879 253 204.367 252.488 204.367 251.555V227.536ZM209.242 239.9H213.735C217.362 239.9 218.978 237.864 218.978 234.999C218.978 232.135 217.362 230.164 213.709 230.164H209.242V239.9Z" fill="#353535"/>
<path d="M121.828 318.555C121.828 319.488 121.316 320 120.383 320H118.399C117.466 320 116.954 319.488 116.954 318.555V294.536C116.954 293.603 117.466 293.091 118.399 293.091H120.383C121.316 293.091 121.828 293.603 121.828 294.536V318.555ZM179.801 306.545C179.801 315.244 174.493 320.368 167.437 320.368C160.368 320.368 155.073 315.23 155.073 306.545C155.073 297.847 160.368 292.723 167.437 292.723C174.493 292.723 179.801 297.847 179.801 306.545ZM159.974 306.545C159.974 312.668 163.062 315.993 167.437 315.993C171.826 315.993 174.9 312.668 174.9 306.545C174.9 300.423 171.826 297.098 167.437 297.098C163.062 297.098 159.974 300.423 159.974 306.545ZM204.543 294.536C204.543 293.603 205.055 293.091 205.988 293.091H214.634C220.822 293.091 224.12 296.862 224.12 301.999C224.12 307.176 220.783 310.908 214.568 310.908H209.418V318.555C209.418 319.488 208.905 320 207.972 320H205.988C205.055 320 204.543 319.488 204.543 318.555V294.536ZM209.418 306.9H213.911C217.538 306.9 219.154 304.864 219.154 301.999C219.154 299.135 217.538 297.164 213.885 297.164H209.418V306.9Z" fill="#353535"/>
<rect x="575" y="215" width="103" height="51" rx="25.5" fill="#FFF4E2"/>
<rect x="575" y="280" width="103" height="51" rx="25.5" fill="#FFE3E3"/>
<path d="M600.64 242.518C600.64 243.257 600.234 243.664 599.494 243.664H592.178C591.438 243.664 591.032 243.257 591.032 242.518V241.705C591.032 240.965 591.438 240.558 592.178 240.558H599.494C600.234 240.558 600.64 240.965 600.64 241.705V242.518ZM610.987 251.406C605.839 251.406 602.765 247.342 602.765 240.35C602.776 233.379 605.86 229.367 610.987 229.367C616.114 229.367 619.209 233.389 619.209 240.35C619.209 247.353 616.135 251.417 610.987 251.406ZM606.673 240.35C606.663 245.477 608.33 248.145 610.987 248.145C613.655 248.145 615.312 245.477 615.312 240.35C615.301 235.265 613.645 232.587 610.987 232.587C608.34 232.587 606.683 235.265 606.673 240.35ZM622.739 251.229C621.467 251.229 620.436 250.208 620.446 248.937C620.436 247.686 621.467 246.665 622.739 246.665C623.968 246.665 625.021 247.686 625.031 248.937C625.021 250.208 623.968 251.229 622.739 251.229ZM627.417 249.041C627.417 248.457 627.594 248.041 628.011 247.624L634.826 240.944C636.931 238.808 638.015 237.536 638.015 235.754C638.015 233.743 636.504 232.503 634.472 232.503C632.721 232.503 631.481 233.431 631.096 234.973C630.918 235.671 630.595 236.046 629.887 236.046H628.48C627.719 236.046 627.261 235.619 627.386 234.858C627.917 231.482 630.721 229.367 634.524 229.367C638.817 229.367 641.725 231.982 641.725 235.556C641.725 237.964 640.579 239.902 636.431 243.883L632.753 247.624V247.77H640.902C641.641 247.77 642.048 248.176 642.048 248.916V249.854C642.048 250.594 641.641 251 640.902 251H628.563C627.824 251 627.417 250.594 627.417 249.854V249.041ZM651.595 251.292C647.917 251.292 645.082 249.301 644.384 246.404C644.207 245.644 644.686 245.196 645.458 245.196H646.958C647.635 245.196 647.948 245.54 648.219 246.175C648.75 247.384 650.053 248.166 651.595 248.166C653.877 248.166 655.524 246.467 655.514 244.081C655.524 241.663 653.836 239.933 651.491 239.923C650.532 239.912 649.532 240.215 648.792 240.694C648.282 241.027 647.886 241.194 647.292 241.1L645.739 240.84C645.02 240.725 644.686 240.277 644.759 239.558L645.645 230.742C645.718 230.033 646.135 229.658 646.854 229.658H656.993C657.733 229.658 658.14 230.065 658.14 230.805V231.742C658.14 232.482 657.733 232.889 656.993 232.889H648.959L648.344 238.547H648.469C649.261 237.609 650.793 236.922 652.523 236.922C656.399 236.922 659.255 239.881 659.255 243.987C659.255 248.228 656.108 251.292 651.595 251.292Z" fill="#FF9D00"/>
<path d="M600.64 306.518C600.64 307.257 600.234 307.664 599.494 307.664H592.178C591.438 307.664 591.032 307.257 591.032 306.518V305.705C591.032 304.965 591.438 304.558 592.178 304.558H599.494C600.234 304.558 600.64 304.965 600.64 305.705V306.518ZM610.987 315.406C605.839 315.406 602.765 311.342 602.765 304.35C602.776 297.379 605.86 293.367 610.987 293.367C616.114 293.367 619.209 297.389 619.209 304.35C619.209 311.353 616.135 315.417 610.987 315.406ZM606.673 304.35C606.663 309.477 608.33 312.145 610.987 312.145C613.655 312.145 615.312 309.477 615.312 304.35C615.301 299.265 613.645 296.587 610.987 296.587C608.34 296.587 606.683 299.265 606.673 304.35ZM622.739 315.229C621.467 315.229 620.436 314.208 620.446 312.937C620.436 311.686 621.467 310.665 622.739 310.665C623.968 310.665 625.021 311.686 625.031 312.937C625.021 314.208 623.968 315.229 622.739 315.229ZM634.482 293.367C638.578 293.387 642.621 295.899 642.631 303.673C642.642 311.019 639.38 315.292 634.264 315.292C630.721 315.292 628.136 313.312 627.261 310.446C627.021 309.665 627.469 309.185 628.272 309.185H629.814C630.481 309.185 630.825 309.498 631.116 310.113C631.69 311.259 632.784 311.947 634.264 311.947C637.213 311.947 638.87 309.227 638.88 304.663H638.734C637.702 306.497 635.702 307.612 633.399 307.612C629.658 307.612 626.792 304.704 626.781 300.682C626.781 296.514 629.856 293.335 634.482 293.367ZM630.533 300.599C630.543 302.881 632.179 304.673 634.451 304.673C636.702 304.673 638.463 302.776 638.453 300.567C638.453 298.389 636.775 296.493 634.493 296.493C632.232 296.493 630.533 298.306 630.533 300.599ZM652.054 315.292C648.375 315.292 645.541 313.301 644.843 310.404C644.666 309.644 645.145 309.196 645.916 309.196H647.417C648.094 309.196 648.407 309.54 648.678 310.175C649.209 311.384 650.512 312.166 652.054 312.166C654.336 312.166 655.982 310.467 655.972 308.081C655.982 305.663 654.294 303.933 651.95 303.923C650.991 303.912 649.991 304.215 649.251 304.694C648.74 305.027 648.344 305.194 647.75 305.1L646.197 304.84C645.478 304.725 645.145 304.277 645.218 303.558L646.104 294.742C646.177 294.033 646.593 293.658 647.312 293.658H657.452C658.192 293.658 658.598 294.065 658.598 294.805V295.742C658.598 296.482 658.192 296.889 657.452 296.889H649.417L648.803 302.547H648.928C649.72 301.609 651.251 300.922 652.981 300.922C656.858 300.922 659.713 303.881 659.713 307.987C659.713 312.228 656.566 315.292 652.054 315.292Z" fill="#C01717"/>
<rect x="422.841" y="150.841" width="41.3172" height="49.3172" rx="5.88981" fill="#D9EAE0" stroke="#006837" stroke-width="1.6828"/>
<rect x="422.841" y="215.841" width="41.3172" height="49.3172" rx="5.88981" fill="#FFE3E3" stroke="#C01717" stroke-width="1.6828"/>
<rect x="422.841" y="280.841" width="41.3172" height="49.3172" rx="5.88981" fill="#FFE3E3" stroke="#C01717" stroke-width="1.6828"/>
<rect x="469.841" y="150.841" width="41.3172" height="49.3172" rx="5.88981" fill="#D9EAE0" stroke="#006837" stroke-width="1.6828"/>
<rect x="469.841" y="215.841" width="41.3172" height="49.3172" rx="5.88981" fill="#D9EAE0" stroke="#006837" stroke-width="1.6828"/>
<rect x="469.841" y="280.841" width="41.3172" height="49.3172" rx="5.88981" fill="#D9EAE0" stroke="#006837" stroke-width="1.6828"/>
<rect x="516.841" y="150.841" width="41.3172" height="49.3172" rx="5.88981" fill="#D9EAE0" stroke="#006837" stroke-width="1.6828"/>
<rect x="516.841" y="215.841" width="41.3172" height="49.3172" rx="5.88981" fill="#D9EAE0" stroke="#006837" stroke-width="1.6828"/>
<rect x="516.841" y="280.841" width="41.3172" height="49.3172" rx="5.88981" fill="#D9EAE0" stroke="#006837" stroke-width="1.6828"/>
<rect opacity="0.5" x="422.841" y="150.841" width="41.3172" height="49.3172" rx="5.88981" fill="#39B572" stroke="#006837" stroke-width="1.6828"/>
<rect opacity="0.5" x="422.841" y="215.841" width="41.3172" height="49.3172" rx="5.88981" fill="#FF9D00" stroke="#BB7300" stroke-width="1.6828"/>
<rect opacity="0.5" x="422.841" y="280.841" width="41.3172" height="49.3172" rx="5.88981" fill="#D92D2D" stroke="#C01717" stroke-width="1.6828"/>
<rect opacity="0.5" x="469.841" y="150.841" width="41.3172" height="49.3172" rx="5.88981" fill="#39B572" stroke="#006837" stroke-width="1.6828"/>
<rect opacity="0.5" x="469.841" y="215.841" width="41.3172" height="49.3172" rx="5.88981" fill="#39B572" stroke="#006837" stroke-width="1.6828"/>
<rect opacity="0.5" x="469.841" y="280.841" width="41.3172" height="49.3172" rx="5.88981" fill="#39B572" stroke="#006837" stroke-width="1.6828"/>
<rect opacity="0.5" x="516.841" y="150.841" width="41.3172" height="49.3172" rx="5.88981" fill="#39B572" stroke="#006837" stroke-width="1.6828"/>
<rect opacity="0.5" x="516.841" y="215.841" width="41.3172" height="49.3172" rx="5.88981" fill="#39B572" stroke="#006837" stroke-width="1.6828"/>
<rect opacity="0.5" x="516.841" y="280.841" width="41.3172" height="49.3172" rx="5.88981" fill="#39B572" stroke="#006837" stroke-width="1.6828"/>
<path d="M435.883 162.536C435.883 161.603 436.395 161.091 437.328 161.091H445.974C452.162 161.091 455.46 164.862 455.46 169.999C455.46 175.176 452.123 178.908 445.908 178.908H440.757V186.555C440.757 187.488 440.245 188 439.312 188H437.328C436.395 188 435.883 187.488 435.883 186.555V162.536ZM440.757 174.9H445.251C448.877 174.9 450.494 172.864 450.494 169.999C450.494 167.135 448.877 165.164 445.225 165.164H440.757V174.9ZM503.872 174.545C503.872 183.244 498.564 188.368 491.508 188.368C484.439 188.368 479.144 183.23 479.144 174.545C479.144 165.847 484.439 160.723 491.508 160.723C498.564 160.723 503.872 165.847 503.872 174.545ZM484.045 174.545C484.045 180.668 487.133 183.993 491.508 183.993C495.897 183.993 498.971 180.668 498.971 174.545C498.971 168.423 495.897 165.098 491.508 165.098C487.133 165.098 484.045 168.423 484.045 174.545ZM528.614 162.536C528.614 161.603 529.126 161.091 530.059 161.091H538.705C544.893 161.091 548.191 164.862 548.191 169.999C548.191 175.176 544.854 178.908 538.639 178.908H533.489V186.555C533.489 187.488 532.976 188 532.043 188H530.059C529.126 188 528.614 187.488 528.614 186.555V162.536ZM533.489 174.9H537.982C541.609 174.9 543.225 172.864 543.225 169.999C543.225 167.135 541.609 165.164 537.956 165.164H533.489V174.9Z" fill="#353535"/>
<path d="M435.13 227.536C435.13 226.603 435.642 226.091 436.575 226.091H445.431C451.265 226.091 454.155 229.06 454.155 233.068C454.155 236.339 452.079 238.179 449.452 238.797V239.059C452.316 239.204 455.207 241.595 455.207 245.668C455.207 249.86 452.184 253 446.022 253H436.575C435.642 253 435.13 252.488 435.13 251.555V227.536ZM440.004 248.927H445.247C448.781 248.927 450.253 247.429 450.253 245.287C450.253 242.883 448.387 241.043 445.378 241.043H440.004V248.927ZM440.004 237.535H444.827C447.362 237.535 449.281 236.064 449.281 233.699C449.281 231.623 447.796 230.112 444.932 230.112H440.004V237.535ZM503.625 239.545C503.625 248.244 498.317 253.368 491.261 253.368C484.192 253.368 478.897 248.23 478.897 239.545C478.897 230.847 484.192 225.723 491.261 225.723C498.317 225.723 503.625 230.847 503.625 239.545ZM483.798 239.545C483.798 245.668 486.886 248.993 491.261 248.993C495.65 248.993 498.724 245.668 498.724 239.545C498.724 233.423 495.65 230.098 491.261 230.098C486.886 230.098 483.798 233.423 483.798 239.545ZM528.367 227.536C528.367 226.603 528.879 226.091 529.812 226.091H538.458C544.646 226.091 547.944 229.862 547.944 234.999C547.944 240.176 544.607 243.908 538.392 243.908H533.242V251.555C533.242 252.488 532.729 253 531.796 253H529.812C528.879 253 528.367 252.488 528.367 251.555V227.536ZM533.242 239.9H537.735C541.362 239.9 542.978 237.864 542.978 234.999C542.978 232.135 541.362 230.164 537.709 230.164H533.242V239.9Z" fill="#353535"/>
<path d="M445.828 318.555C445.828 319.488 445.316 320 444.383 320H442.399C441.466 320 440.954 319.488 440.954 318.555V294.536C440.954 293.603 441.466 293.091 442.399 293.091H444.383C445.316 293.091 445.828 293.603 445.828 294.536V318.555ZM503.801 306.545C503.801 315.244 498.493 320.368 491.437 320.368C484.368 320.368 479.073 315.23 479.073 306.545C479.073 297.847 484.368 292.723 491.437 292.723C498.493 292.723 503.801 297.847 503.801 306.545ZM483.974 306.545C483.974 312.668 487.062 315.993 491.437 315.993C495.826 315.993 498.9 312.668 498.9 306.545C498.9 300.423 495.826 297.098 491.437 297.098C487.062 297.098 483.974 300.423 483.974 306.545ZM528.543 294.536C528.543 293.603 529.055 293.091 529.988 293.091H538.634C544.822 293.091 548.12 296.862 548.12 301.999C548.12 307.176 544.783 310.908 538.568 310.908H533.418V318.555C533.418 319.488 532.905 320 531.972 320H529.988C529.055 320 528.543 319.488 528.543 318.555V294.536ZM533.418 306.9H537.911C541.538 306.9 543.154 304.864 543.154 301.999C543.154 299.135 541.538 297.164 537.885 297.164H533.418V306.9Z" fill="#353535"/>
<path d="M445.828 318.555C445.828 319.488 445.316 320 444.383 320H442.399C441.466 320 440.954 319.488 440.954 318.555V294.536C440.954 293.603 441.466 293.091 442.399 293.091H444.383C445.316 293.091 445.828 293.603 445.828 294.536V318.555ZM503.801 306.545C503.801 315.244 498.493 320.368 491.437 320.368C484.368 320.368 479.073 315.23 479.073 306.545C479.073 297.847 484.368 292.723 491.437 292.723C498.493 292.723 503.801 297.847 503.801 306.545ZM483.974 306.545C483.974 312.668 487.062 315.993 491.437 315.993C495.826 315.993 498.9 312.668 498.9 306.545C498.9 300.423 495.826 297.098 491.437 297.098C487.062 297.098 483.974 300.423 483.974 306.545ZM528.543 294.536C528.543 293.603 529.055 293.091 529.988 293.091H538.634C544.822 293.091 548.12 296.862 548.12 301.999C548.12 307.176 544.783 310.908 538.568 310.908H533.418V318.555C533.418 319.488 532.905 320 531.972 320H529.988C529.055 320 528.543 319.488 528.543 318.555V294.536ZM533.418 306.9H537.911C541.538 306.9 543.154 304.864 543.154 301.999C543.154 299.135 541.538 297.164 537.885 297.164H533.418V306.9Z" fill="#353535"/>
<defs>
<linearGradient id="paint0_linear_4092_1014" x1="377.5" y1="285" x2="377.5" y2="331.426" gradientUnits="userSpaceOnUse">
<stop stop-color="white" stop-opacity="0"/>
<stop offset="1" stop-color="white"/>
</linearGradient>
</defs>
</svg>
