<svg width="1473" height="258" viewBox="0 0 1473 258" fill="none" xmlns="http://www.w3.org/2000/svg">
<g clip-path="url(#clip0_3683_568)">
<g clip-path="url(#clip1_3683_568)">
<rect x="264.203" y="-28.7971" width="166.402" height="96.5941" rx="5.47908" fill="#161616" stroke="#0F0F0F" stroke-width="0.405858"/>
<rect x="268.062" y="-24.5391" width="159.096" height="78.7364" rx="2.43515" fill="#212121"/>
<rect width="125.004" height="6.49372" rx="2.43515" transform="matrix(1 0 0 -1 268.062 63.1328)" fill="#212121"/>
<rect width="14.6109" height="6.49372" rx="2.43515" transform="matrix(1 0 0 -1 412.547 63.1328)" fill="#212121"/>
<path d="M340.844 4.59241C340.844 2.5252 343.129 1.27479 344.87 2.38913L361.182 12.8289C362.79 13.8578 362.79 16.2065 361.182 17.2354L344.87 27.6752C343.129 28.7895 340.844 27.5391 340.844 25.4719V4.59241Z" fill="black" fill-opacity="0.2"/>
</g>
<g clip-path="url(#clip2_3683_568)">
<rect x="86.2029" y="-28.7971" width="166.402" height="96.5941" rx="5.47908" fill="#161616" stroke="#0F0F0F" stroke-width="0.405858"/>
<rect x="90.0625" y="-24.5391" width="159.096" height="78.7364" rx="2.43515" fill="#212121"/>
<rect width="125.004" height="6.49372" rx="2.43515" transform="matrix(1 0 0 -1 90.0625 63.1328)" fill="#212121"/>
<rect width="14.6109" height="6.49372" rx="2.43515" transform="matrix(1 0 0 -1 234.547 63.1328)" fill="#212121"/>
<path d="M162.844 4.59241C162.844 2.5252 165.129 1.27479 166.87 2.38913L183.182 12.8289C184.79 13.8578 184.79 16.2065 183.182 17.2354L166.87 27.6752C165.129 28.7895 162.844 27.5391 162.844 25.4719V4.59241Z" fill="black" fill-opacity="0.2"/>
</g>
<g clip-path="url(#clip3_3683_568)">
<rect x="-91.7971" y="-28.7971" width="166.402" height="96.5941" rx="5.47908" fill="#161616" stroke="#0F0F0F" stroke-width="0.405858"/>
<rect x="-87.9375" y="-24.5391" width="159.096" height="78.7364" rx="2.43515" fill="#212121"/>
<rect width="125.004" height="6.49372" rx="2.43515" transform="matrix(1 0 0 -1 -87.9375 63.1328)" fill="#212121"/>
<rect width="14.6109" height="6.49372" rx="2.43515" transform="matrix(1 0 0 -1 56.5469 63.1328)" fill="#212121"/>
<path d="M-15.1562 4.59241C-15.1562 2.5252 -12.8714 1.27479 -11.1303 2.38913L5.18185 12.8289C6.78956 13.8578 6.78956 16.2065 5.18185 17.2354L-11.1303 27.6752C-12.8714 28.7895 -15.1562 27.5391 -15.1562 25.4719V4.59241Z" fill="black" fill-opacity="0.2"/>
</g>
<g clip-path="url(#clip4_3683_568)">
<rect x="233.203" y="79.2029" width="166.402" height="96.5941" rx="5.47908" fill="#161616" stroke="#0F0F0F" stroke-width="0.405858"/>
<rect x="237.062" y="83.4609" width="159.096" height="78.7364" rx="2.43515" fill="#212121"/>
<rect width="125.004" height="6.49372" rx="2.43515" transform="matrix(1 0 0 -1 237.062 171.133)" fill="#212121"/>
<rect width="14.6109" height="6.49372" rx="2.43515" transform="matrix(1 0 0 -1 381.547 171.133)" fill="#212121"/>
<path d="M309.844 112.592C309.844 110.525 312.129 109.275 313.87 110.389L330.182 120.829C331.79 121.858 331.79 124.207 330.182 125.235L313.87 135.675C312.129 136.79 309.844 135.539 309.844 133.472V112.592Z" fill="black" fill-opacity="0.2"/>
</g>
<g clip-path="url(#clip5_3683_568)">
<rect x="55.2029" y="79.2029" width="166.402" height="96.5941" rx="5.47908" fill="#161616" stroke="#0F0F0F" stroke-width="0.405858"/>
<rect x="59.0625" y="83.4609" width="159.096" height="78.7364" rx="2.43515" fill="#212121"/>
<rect width="125.004" height="6.49372" rx="2.43515" transform="matrix(1 0 0 -1 59.0625 171.133)" fill="#212121"/>
<rect width="14.6109" height="6.49372" rx="2.43515" transform="matrix(1 0 0 -1 203.547 171.133)" fill="#212121"/>
<path d="M131.844 112.592C131.844 110.525 134.129 109.275 135.87 110.389L152.182 120.829C153.79 121.858 153.79 124.207 152.182 125.235L135.87 135.675C134.129 136.79 131.844 135.539 131.844 133.472V112.592Z" fill="black" fill-opacity="0.2"/>
</g>
<g clip-path="url(#clip6_3683_568)">
<rect x="-122.797" y="79.2029" width="166.402" height="96.5941" rx="5.47908" fill="#161616" stroke="#0F0F0F" stroke-width="0.405858"/>
<rect x="-118.938" y="83.4609" width="159.096" height="78.7364" rx="2.43515" fill="#212121"/>
<rect width="125.004" height="6.49372" rx="2.43515" transform="matrix(1 0 0 -1 -118.938 171.133)" fill="#212121"/>
<rect width="14.6109" height="6.49372" rx="2.43515" transform="matrix(1 0 0 -1 25.5469 171.133)" fill="#212121"/>
</g>
<g clip-path="url(#clip7_3683_568)">
<rect x="264.008" y="187.203" width="166.402" height="96.5941" rx="5.47908" fill="#161616" stroke="#0F0F0F" stroke-width="0.405858"/>
<rect x="267.867" y="191.461" width="159.096" height="78.7364" rx="2.43515" fill="#212121"/>
<path d="M340.648 220.592C340.648 218.525 342.933 217.275 344.674 218.389L360.987 228.829C362.594 229.858 362.594 232.207 360.987 233.235L344.674 243.675C342.933 244.79 340.648 243.539 340.648 241.472V220.592Z" fill="black" fill-opacity="0.2"/>
</g>
<g clip-path="url(#clip8_3683_568)">
<rect x="86.0076" y="187.203" width="166.402" height="96.5941" rx="5.47908" fill="#161616" stroke="#0F0F0F" stroke-width="0.405858"/>
<rect x="89.8672" y="191.461" width="159.096" height="78.7364" rx="2.43515" fill="#212121"/>
<path d="M162.648 220.592C162.648 218.525 164.933 217.275 166.674 218.389L182.987 228.829C184.594 229.858 184.594 232.207 182.987 233.235L166.674 243.675C164.933 244.79 162.648 243.539 162.648 241.472V220.592Z" fill="black" fill-opacity="0.2"/>
</g>
<g clip-path="url(#clip9_3683_568)">
<rect x="-91.7971" y="187.203" width="166.402" height="96.5941" rx="5.47908" fill="#161616" stroke="#0F0F0F" stroke-width="0.405858"/>
<rect x="-87.9375" y="191.461" width="159.096" height="78.7364" rx="2.43515" fill="#212121"/>
<path d="M-15.1562 220.592C-15.1562 218.525 -12.8714 217.275 -11.1303 218.389L5.18185 228.829C6.78956 229.858 6.78956 232.207 5.18185 233.235L-11.1303 243.675C-12.8714 244.79 -15.1562 243.539 -15.1562 241.472V220.592Z" fill="black" fill-opacity="0.2"/>
</g>
<g clip-path="url(#clip10_3683_568)">
<rect x="1398.2" y="-28.7971" width="166.402" height="96.5941" rx="5.47908" fill="#161616" stroke="#0F0F0F" stroke-width="0.405858"/>
<rect x="1402.06" y="-24.5391" width="159.096" height="78.7364" rx="2.43515" fill="#212121"/>
<rect width="125.004" height="6.49372" rx="2.43515" transform="matrix(1 0 0 -1 1402.06 63.1328)" fill="#212121"/>
</g>
<g clip-path="url(#clip11_3683_568)">
<rect x="1220.2" y="-28.7971" width="166.402" height="96.5941" rx="5.47908" fill="#161616" stroke="#0F0F0F" stroke-width="0.405858"/>
<rect x="1224.06" y="-24.5391" width="159.096" height="78.7364" rx="2.43515" fill="#212121"/>
<rect width="125.004" height="6.49372" rx="2.43515" transform="matrix(1 0 0 -1 1224.06 63.1328)" fill="#212121"/>
<rect width="14.6109" height="6.49372" rx="2.43515" transform="matrix(1 0 0 -1 1368.55 63.1328)" fill="#212121"/>
<path d="M1296.84 4.59241C1296.84 2.5252 1299.13 1.27479 1300.87 2.38913L1317.18 12.8289C1318.79 13.8578 1318.79 16.2065 1317.18 17.2354L1300.87 27.6752C1299.13 28.7895 1296.84 27.5391 1296.84 25.4719V4.59241Z" fill="black" fill-opacity="0.2"/>
</g>
<g clip-path="url(#clip12_3683_568)">
<rect x="1042.2" y="-28.7971" width="166.402" height="96.5941" rx="5.47908" fill="#161616" stroke="#0F0F0F" stroke-width="0.405858"/>
<rect x="1046.06" y="-24.5391" width="159.096" height="78.7364" rx="2.43515" fill="#212121"/>
<rect width="125.004" height="6.49372" rx="2.43515" transform="matrix(1 0 0 -1 1046.06 63.1328)" fill="#212121"/>
<rect width="14.6109" height="6.49372" rx="2.43515" transform="matrix(1 0 0 -1 1190.55 63.1328)" fill="#212121"/>
<path d="M1118.84 4.59241C1118.84 2.5252 1121.13 1.27479 1122.87 2.38913L1139.18 12.8289C1140.79 13.8578 1140.79 16.2065 1139.18 17.2354L1122.87 27.6752C1121.13 28.7895 1118.84 27.5391 1118.84 25.4719V4.59241Z" fill="black" fill-opacity="0.2"/>
</g>
<g clip-path="url(#clip13_3683_568)">
<rect x="1426.2" y="79.2029" width="166.402" height="96.5941" rx="5.47908" fill="#161616" stroke="#0F0F0F" stroke-width="0.405858"/>
<rect x="1430.06" y="83.4609" width="159.096" height="78.7364" rx="2.43515" fill="#212121"/>
<rect width="125.004" height="6.49372" rx="2.43515" transform="matrix(1 0 0 -1 1430.06 171.133)" fill="#212121"/>
</g>
<g clip-path="url(#clip14_3683_568)">
<rect x="1248.2" y="79.2029" width="166.402" height="96.5941" rx="5.47908" fill="#161616" stroke="#0F0F0F" stroke-width="0.405858"/>
<rect x="1252.06" y="83.4609" width="159.096" height="78.7364" rx="2.43515" fill="#212121"/>
<rect width="125.004" height="6.49372" rx="2.43515" transform="matrix(1 0 0 -1 1252.06 171.133)" fill="#212121"/>
<rect width="14.6109" height="6.49372" rx="2.43515" transform="matrix(1 0 0 -1 1396.55 171.133)" fill="#212121"/>
<path d="M1324.84 112.592C1324.84 110.525 1327.13 109.275 1328.87 110.389L1345.18 120.829C1346.79 121.858 1346.79 124.207 1345.18 125.235L1328.87 135.675C1327.13 136.79 1324.84 135.539 1324.84 133.472V112.592Z" fill="black" fill-opacity="0.2"/>
</g>
<g clip-path="url(#clip15_3683_568)">
<rect x="1070.2" y="79.2029" width="166.402" height="96.5941" rx="5.47908" fill="#161616" stroke="#0F0F0F" stroke-width="0.405858"/>
<rect x="1074.06" y="83.4609" width="159.096" height="78.7364" rx="2.43515" fill="#212121"/>
<rect width="125.004" height="6.49372" rx="2.43515" transform="matrix(1 0 0 -1 1074.06 171.133)" fill="#212121"/>
<rect width="14.6109" height="6.49372" rx="2.43515" transform="matrix(1 0 0 -1 1218.55 171.133)" fill="#212121"/>
<path d="M1146.84 112.592C1146.84 110.525 1149.13 109.275 1150.87 110.389L1167.18 120.829C1168.79 121.858 1168.79 124.207 1167.18 125.235L1150.87 135.675C1149.13 136.79 1146.84 135.539 1146.84 133.472V112.592Z" fill="black" fill-opacity="0.2"/>
</g>
<g clip-path="url(#clip16_3683_568)">
<rect x="1398.01" y="187.203" width="166.402" height="96.5941" rx="5.47908" fill="#161616" stroke="#0F0F0F" stroke-width="0.405858"/>
<rect x="1401.87" y="191.461" width="159.096" height="78.7364" rx="2.43515" fill="#212121"/>
</g>
<g clip-path="url(#clip17_3683_568)">
<rect x="1220.01" y="187.203" width="166.402" height="96.5941" rx="5.47908" fill="#161616" stroke="#0F0F0F" stroke-width="0.405858"/>
<rect x="1223.87" y="191.461" width="159.096" height="78.7364" rx="2.43515" fill="#212121"/>
<path d="M1296.65 220.592C1296.65 218.525 1298.93 217.275 1300.67 218.389L1316.99 228.829C1318.59 229.858 1318.59 232.207 1316.99 233.235L1300.67 243.675C1298.93 244.79 1296.65 243.539 1296.65 241.472V220.592Z" fill="black" fill-opacity="0.2"/>
</g>
<g clip-path="url(#clip18_3683_568)">
<rect x="1042.2" y="187.203" width="166.402" height="96.5941" rx="5.47908" fill="#161616" stroke="#0F0F0F" stroke-width="0.405858"/>
<rect x="1046.06" y="191.461" width="159.096" height="78.7364" rx="2.43515" fill="#212121"/>
<path d="M1118.84 220.592C1118.84 218.525 1121.13 217.275 1122.87 218.389L1139.18 228.829C1140.79 229.858 1140.79 232.207 1139.18 233.235L1122.87 243.675C1121.13 244.79 1118.84 243.539 1118.84 241.472V220.592Z" fill="black" fill-opacity="0.2"/>
</g>
<rect width="1473" height="93" fill="url(#paint0_linear_3683_568)"/>
<rect x="1473" y="260" width="1473" height="93" transform="rotate(-180 1473 260)" fill="url(#paint1_linear_3683_568)"/>
<rect width="59" height="258" fill="url(#paint2_linear_3683_568)"/>
<rect x="1473" y="258" width="59" height="258" transform="rotate(-180 1473 258)" fill="url(#paint3_linear_3683_568)"/>
</g>
<defs>
<linearGradient id="paint0_linear_3683_568" x1="736.5" y1="0" x2="736.5" y2="93" gradientUnits="userSpaceOnUse">
<stop/>
<stop offset="1" stop-opacity="0"/>
</linearGradient>
<linearGradient id="paint1_linear_3683_568" x1="2209.5" y1="260" x2="2209.5" y2="353" gradientUnits="userSpaceOnUse">
<stop/>
<stop offset="1" stop-opacity="0"/>
</linearGradient>
<linearGradient id="paint2_linear_3683_568" x1="0" y1="129" x2="59" y2="129" gradientUnits="userSpaceOnUse">
<stop/>
<stop offset="1" stop-opacity="0"/>
</linearGradient>
<linearGradient id="paint3_linear_3683_568" x1="1473" y1="387" x2="1532" y2="387" gradientUnits="userSpaceOnUse">
<stop/>
<stop offset="1" stop-opacity="0"/>
</linearGradient>
<clipPath id="clip0_3683_568">
<rect width="1473" height="258" fill="white"/>
</clipPath>
<clipPath id="clip1_3683_568">
<rect x="264" y="-29" width="166.808" height="97" rx="5.68201" fill="white"/>
</clipPath>
<clipPath id="clip2_3683_568">
<rect x="86" y="-29" width="166.808" height="97" rx="5.68201" fill="white"/>
</clipPath>
<clipPath id="clip3_3683_568">
<rect x="-92" y="-29" width="166.808" height="97" rx="5.68201" fill="white"/>
</clipPath>
<clipPath id="clip4_3683_568">
<rect x="233" y="79" width="166.808" height="97" rx="5.68201" fill="white"/>
</clipPath>
<clipPath id="clip5_3683_568">
<rect x="55" y="79" width="166.808" height="97" rx="5.68201" fill="white"/>
</clipPath>
<clipPath id="clip6_3683_568">
<rect x="-123" y="79" width="166.808" height="97" rx="5.68201" fill="white"/>
</clipPath>
<clipPath id="clip7_3683_568">
<rect x="263.805" y="187" width="166.808" height="97" rx="5.68201" fill="white"/>
</clipPath>
<clipPath id="clip8_3683_568">
<rect x="85.8047" y="187" width="166.808" height="97" rx="5.68201" fill="white"/>
</clipPath>
<clipPath id="clip9_3683_568">
<rect x="-92" y="187" width="166.808" height="97" rx="5.68201" fill="white"/>
</clipPath>
<clipPath id="clip10_3683_568">
<rect x="1398" y="-29" width="166.808" height="97" rx="5.68201" fill="white"/>
</clipPath>
<clipPath id="clip11_3683_568">
<rect x="1220" y="-29" width="166.808" height="97" rx="5.68201" fill="white"/>
</clipPath>
<clipPath id="clip12_3683_568">
<rect x="1042" y="-29" width="166.808" height="97" rx="5.68201" fill="white"/>
</clipPath>
<clipPath id="clip13_3683_568">
<rect x="1426" y="79" width="166.808" height="97" rx="5.68201" fill="white"/>
</clipPath>
<clipPath id="clip14_3683_568">
<rect x="1248" y="79" width="166.808" height="97" rx="5.68201" fill="white"/>
</clipPath>
<clipPath id="clip15_3683_568">
<rect x="1070" y="79" width="166.808" height="97" rx="5.68201" fill="white"/>
</clipPath>
<clipPath id="clip16_3683_568">
<rect x="1397.8" y="187" width="166.808" height="97" rx="5.68201" fill="white"/>
</clipPath>
<clipPath id="clip17_3683_568">
<rect x="1219.8" y="187" width="166.808" height="97" rx="5.68201" fill="white"/>
</clipPath>
<clipPath id="clip18_3683_568">
<rect x="1042" y="187" width="166.808" height="97" rx="5.68201" fill="white"/>
</clipPath>
</defs>
</svg>
