<svg width="580" height="579" viewBox="0 0 580 579" fill="none" xmlns="http://www.w3.org/2000/svg">
<g clip-path="url(#clip0_3897_822)">
<rect width="580" height="579" fill="white"/>
<g filter="url(#filter0_d_3897_822)">
<rect width="284.951" height="284.951" rx="49.7468" transform="matrix(0.866044 -0.499967 0.866044 0.499967 43 312.984)" fill="#F7F7F7"/>
<rect x="1.07707" width="283.707" height="283.707" rx="49.125" transform="matrix(0.866044 -0.499967 0.866044 0.499967 43.1443 313.523)" stroke="#9B9B9B" stroke-width="1.24367"/>
</g>
<g filter="url(#filter1_d_3897_822)">
<rect width="251.286" height="251.286" rx="32.3354" transform="matrix(0.866044 -0.499967 0.866044 0.499967 72.1641 279.641)" fill="white"/>
<rect x="1.07707" width="250.042" height="250.042" rx="31.7136" transform="matrix(0.866044 -0.499967 0.866044 0.499967 72.3083 280.179)" stroke="#9B9B9B" stroke-width="1.24367"/>
</g>
<path d="M245.844 304.165C241.702 306.557 236.423 306.433 232.11 303.943C227.869 301.495 227.547 298.344 231.484 296.071C234.866 294.119 239.885 293.669 244.708 296.454L244.717 296.459C245.352 296.825 245.352 297.228 244.717 297.595L236.127 302.554C238.507 303.897 241.272 303.892 243.366 302.683C244.439 302.063 244.967 301.345 244.815 300.627C244.708 300.162 244.797 299.842 245.415 299.558L246.631 299C247.401 298.649 248.135 298.659 248.421 299.083C249.486 300.668 248.654 302.543 245.844 304.165ZM233.953 301.288L240.413 297.559C238.525 296.49 235.913 296.428 234.052 297.502C232.119 298.618 232.298 300.219 233.953 301.288ZM255.17 297.335C255.805 297.702 255.805 298.105 255.17 298.472L253.899 299.205C253.264 299.572 252.566 299.572 251.931 299.205L240.156 292.408C239.521 292.041 239.521 291.638 240.156 291.271L241.284 290.62C241.919 290.254 242.617 290.254 243.252 290.62L244.603 291.4L244.764 291.307C243.86 290.063 244.29 288.678 246.348 287.49C249.184 285.853 252.942 285.853 256.226 287.759L263.992 292.242C264.627 292.609 264.627 293.012 263.992 293.379L262.721 294.112C262.086 294.479 261.388 294.479 260.753 294.112L253.488 289.918C251.654 288.859 249.551 288.802 247.878 289.768C246.169 290.755 246.115 292.108 248.101 293.255L255.17 297.335ZM278.174 291.473C275.293 293.136 272.394 293.601 270.05 293.28C269.119 293.146 268.931 292.686 269.432 292.211L270.228 291.462C270.649 291.064 271.186 290.982 271.991 291.013C273.065 291.044 274.38 290.832 275.776 290.026C277.619 288.962 278.129 287.707 276.107 286.54L273.503 285.037L273.342 285.13C273.852 286.002 274.013 287.366 271.66 288.725C268.493 290.553 263.76 290.703 259.277 288.115C254.759 285.507 254.768 282.63 257.944 280.796C260.369 279.396 262.856 279.644 264.341 279.933L264.52 279.83L263.232 279.086C262.596 278.719 262.596 278.317 263.232 277.95L264.457 277.242C265.093 276.875 265.791 276.875 266.426 277.242L279.408 284.737C282.925 286.767 281.887 289.329 278.174 291.473ZM262.561 286.199C265.093 287.661 267.884 287.97 270.023 286.736C272.089 285.543 271.678 283.962 269.056 282.449C266.453 280.946 263.581 280.61 261.496 281.813C259.34 283.058 260.064 284.758 262.561 286.199ZM283.247 281.126C283.882 281.493 283.882 281.896 283.247 282.263L281.977 282.996C281.341 283.363 280.643 283.363 280.008 282.996L263.653 273.554C263.017 273.187 263.017 272.784 263.653 272.418L264.923 271.684C265.558 271.317 266.256 271.317 266.891 271.684L283.247 281.126ZM271.985 270.644C270.947 271.244 269.319 271.275 268.352 270.717C267.377 270.154 267.431 269.214 268.469 268.614C269.498 268.02 271.126 267.989 272.101 268.553C273.068 269.11 273.014 270.05 271.985 270.644ZM285.066 280.076L273.291 273.279C272.656 272.912 272.656 272.509 273.291 272.142L274.562 271.409C275.197 271.042 275.895 271.042 276.53 271.409L288.305 278.206C288.94 278.573 288.94 278.976 288.305 279.343L287.034 280.076C286.399 280.443 285.701 280.443 285.066 280.076ZM289.981 266.97C289.48 267.332 288.925 267.363 288.12 267.28C287.153 267.198 286.035 267.368 284.979 267.978C283.628 268.758 283.243 269.724 284.183 270.256C284.97 270.72 286.008 270.679 287.717 270.054L290.562 268.99C293.721 267.818 296.181 267.781 298.15 268.907C300.744 270.416 300.1 272.843 296.664 274.827C293.783 276.49 290.723 276.996 288.066 276.34C287.171 276.123 287.109 275.653 287.717 275.23L288.826 274.455C289.345 274.093 289.9 274.073 290.714 274.181C291.895 274.336 293.085 274.073 294.213 273.422C295.752 272.533 296.065 271.537 295.125 270.994C294.347 270.545 293.246 270.591 291.708 271.159L288.871 272.229C285.686 273.437 283.127 273.386 281.132 272.224C278.582 270.762 279.208 268.52 282.519 266.609C285.23 265.044 288.039 264.641 290.509 265.199C291.412 265.411 291.502 265.875 290.893 266.309L289.981 266.97ZM305.679 268.176C306.314 268.543 306.314 268.946 305.679 269.313L304.409 270.046C303.773 270.413 303.075 270.413 302.44 270.046L286.084 260.604C285.449 260.237 285.449 259.834 286.084 259.468L287.283 258.776C287.919 258.409 288.617 258.409 289.252 258.776L295.184 262.2L295.345 262.107C294.423 260.842 294.808 259.514 296.92 258.295C299.774 256.647 303.505 256.632 306.824 258.548L314.591 263.032C315.226 263.398 315.226 263.801 314.591 264.168L313.32 264.902C312.685 265.268 311.987 265.268 311.352 264.902L304.086 260.707C302.234 259.638 300.15 259.592 298.45 260.573C296.714 261.575 296.624 262.949 298.611 264.096L305.679 268.176ZM318.411 253.553C319.047 253.92 319.047 254.323 318.411 254.69L312.13 258.316C311.495 258.682 310.797 258.682 310.162 258.316L309.464 257.913C308.829 257.546 308.829 257.143 309.464 256.776L315.745 253.15C316.38 252.784 317.078 252.784 317.714 253.15L318.411 253.553ZM334.676 252.976C330.256 255.527 324.127 255.037 318.123 251.571C312.146 248.11 311.35 244.593 315.752 242.051C320.154 239.51 326.265 239.97 332.242 243.42C338.255 246.891 339.105 250.429 334.676 252.976ZM321.478 249.634C325.872 252.18 329.594 252.676 331.875 251.359C334.166 250.037 333.298 247.893 328.896 245.352C324.521 242.836 320.798 242.33 318.517 243.647C316.244 244.959 317.121 247.108 321.478 249.634ZM349.316 242.985C349.951 243.351 349.951 243.754 349.316 244.121L347.965 244.901C347.33 245.268 346.632 245.268 345.997 244.901L331.887 236.755L331.779 236.817L330.661 239.746C330.419 240.381 329.614 240.516 328.818 240.056L327.959 239.56C327.431 239.255 327.261 238.94 327.422 238.506L328.621 235.325C328.764 234.942 329.006 234.689 329.48 234.415L330.992 233.543C331.627 233.176 332.325 233.176 332.96 233.543L349.316 242.985Z" fill="#A6A6A6"/>
<g style="mix-blend-mode:color" filter="url(#filter2_f_3897_822)">
<path d="M-75.0001 442.508C-75.0001 177.135 154.678 -37.9921 438 -37.9921C721.322 -37.9921 951 177.135 951 442.508C951 707.881 721.322 923.008 438 923.008C301.721 923.008 222.547 842.535 130.681 761.339C31.5587 673.729 -75.0001 580.235 -75.0001 442.508Z" fill="#0086FF"/>
</g>
<g style="mix-blend-mode:color" filter="url(#filter3_f_3897_822)">
<path d="M522 714.008C522 448.359 751.902 233.008 1035.5 233.008C1319.1 233.008 1549 448.359 1549 714.008C1549 979.657 1319.1 1195.01 1035.5 1195.01C899.088 1195.01 819.837 1114.45 727.882 1033.17C628.663 945.47 522 851.879 522 714.008Z" fill="#0086FF"/>
</g>
<g style="mix-blend-mode:color" filter="url(#filter4_f_3897_822)">
<path d="M-647 -127.992C-647 -393.641 -417.098 -608.992 -133.5 -608.992C150.098 -608.992 380 -393.641 380 -127.992C380 137.657 150.098 353.008 -133.5 353.008C-269.912 353.008 -349.163 272.451 -441.118 191.171C-540.337 103.47 -647 9.87874 -647 -127.992Z" fill="#0086FF"/>
</g>
<g style="mix-blend-mode:color" filter="url(#filter5_f_3897_822)">
<path d="M25.9115 139.936C271.44 272.717 355.564 566.796 213.808 796.78C72.0521 1026.76 -241.904 1105.56 -487.432 972.781C-732.96 840 -817.084 545.921 -675.328 315.937C-607.143 205.314 -493.075 181.31 -371.987 147.366C-241.334 110.74 -101.517 71.0225 25.9115 139.936Z" fill="#2A4BCC"/>
</g>
<g style="mix-blend-mode:color" filter="url(#filter6_f_3897_822)">
<path d="M1389.43 -386.752C1634.96 -253.971 1719.09 40.1089 1577.33 270.093C1435.58 500.077 1121.62 578.875 876.092 446.094C630.563 313.312 546.439 19.233 688.195 -210.751C756.38 -321.374 870.449 -345.378 991.537 -379.322C1122.19 -415.947 1262.01 -455.665 1389.43 -386.752Z" fill="#2A4BCC"/>
</g>
<g style="mix-blend-mode:color" filter="url(#filter7_f_3897_822)">
<path d="M143.61 473.356C365.247 307.756 688.238 341.808 865.031 549.413C1041.82 757.019 1005.47 1059.56 783.833 1225.16C562.196 1390.76 239.204 1356.71 62.4116 1149.1C-22.6263 1049.25 -4.8209 941.013 5.66924 823.029C16.988 695.726 28.5805 559.302 143.61 473.356Z" fill="#002E72"/>
</g>
<g style="mix-blend-mode:color" filter="url(#filter8_f_3897_822)">
<path d="M118.172 -648.152C339.809 -813.752 662.801 -779.7 839.594 -572.095C1016.39 -364.489 980.033 -61.9459 758.396 103.654C536.758 269.254 213.767 235.202 36.9741 27.5969C-48.0638 -72.262 -30.2584 -180.494 -19.7683 -298.478C-8.44952 -425.782 3.14301 -562.206 118.172 -648.152Z" fill="#002E72"/>
</g>
<g filter="url(#filter9_d_3897_822)">
<rect width="284.951" height="284.951" rx="49.7468" transform="matrix(0.866044 -0.499967 0.866044 0.499967 43 642.992)" fill="#F7F7F7"/>
<rect x="1.07707" width="283.707" height="283.707" rx="49.125" transform="matrix(0.866044 -0.499967 0.866044 0.499967 43.1443 643.531)" stroke="#9B9B9B" stroke-width="1.24367"/>
</g>
<g filter="url(#filter10_d_3897_822)">
<rect width="251.286" height="251.286" rx="32.3354" transform="matrix(0.866044 -0.499967 0.866044 0.499967 72.1641 609.656)" fill="white"/>
<rect x="1.07707" width="250.042" height="250.042" rx="31.7136" transform="matrix(0.866044 -0.499967 0.866044 0.499967 72.3083 610.195)" stroke="#9B9B9B" stroke-width="1.24367"/>
</g>
<path d="M252.321 625.673C248.178 628.065 242.899 627.941 238.587 625.451C234.346 623.003 234.023 619.852 237.96 617.579C241.342 615.627 246.362 615.177 251.184 617.961L251.193 617.967C251.829 618.333 251.829 618.736 251.193 619.103L242.604 624.062C244.984 625.405 247.749 625.399 249.842 624.191C250.916 623.571 251.444 622.853 251.292 622.135C251.184 621.67 251.274 621.35 251.891 621.066L253.108 620.508C253.878 620.157 254.611 620.167 254.898 620.59C255.962 622.176 255.13 624.051 252.321 625.673ZM240.43 622.796L246.89 619.067C245.002 617.998 242.389 617.936 240.528 619.01C238.596 620.126 238.775 621.727 240.43 622.796ZM261.646 618.843C262.282 619.21 262.282 619.613 261.646 619.979L260.376 620.713C259.741 621.08 259.043 621.08 258.407 620.713L246.633 613.915C245.998 613.549 245.998 613.146 246.633 612.779L247.76 612.128C248.395 611.762 249.093 611.762 249.729 612.128L251.08 612.908L251.241 612.815C250.337 611.57 250.766 610.186 252.824 608.998C255.661 607.361 259.418 607.361 262.702 609.267L270.468 613.75C271.104 614.117 271.104 614.52 270.468 614.887L269.198 615.62C268.563 615.987 267.865 615.987 267.229 615.62L259.964 611.426C258.13 610.367 256.027 610.31 254.354 611.276C252.645 612.263 252.592 613.616 254.578 614.763L261.646 618.843ZM284.65 612.98C281.769 614.644 278.87 615.108 276.526 614.788C275.596 614.654 275.408 614.194 275.909 613.719L276.705 612.97C277.126 612.572 277.662 612.49 278.468 612.521C279.541 612.552 280.857 612.34 282.252 611.534C284.095 610.47 284.605 609.215 282.583 608.047L279.98 606.544L279.819 606.637C280.329 607.51 280.49 608.874 278.137 610.232C274.969 612.061 270.236 612.211 265.754 609.623C261.235 607.014 261.244 604.137 264.42 602.304C266.845 600.904 269.332 601.152 270.818 601.441L270.997 601.338L269.708 600.594C269.073 600.227 269.073 599.824 269.708 599.458L270.934 598.75C271.569 598.383 272.267 598.383 272.902 598.75L285.885 606.245C289.401 608.275 288.363 610.837 284.65 612.98ZM269.037 607.707C271.569 609.168 274.361 609.478 276.499 608.244C278.566 607.051 278.154 605.47 275.533 603.957C272.929 602.454 270.057 602.118 267.972 603.321C265.816 604.566 266.541 606.265 269.037 607.707ZM289.724 602.634C290.359 603.001 290.359 603.404 289.724 603.77L288.453 604.504C287.818 604.871 287.12 604.871 286.485 604.504L270.129 595.062C269.494 594.695 269.494 594.292 270.129 593.925L271.4 593.192C272.035 592.825 272.733 592.825 273.368 593.192L289.724 602.634ZM278.462 592.152C277.424 592.751 275.795 592.782 274.829 592.225C273.854 591.662 273.907 590.721 274.945 590.122C275.974 589.528 277.603 589.497 278.578 590.06C279.544 590.618 279.491 591.558 278.462 592.152ZM291.543 601.584L279.768 594.787C279.133 594.42 279.133 594.017 279.768 593.65L281.038 592.917C281.674 592.55 282.372 592.55 283.007 592.917L294.781 599.714C295.417 600.081 295.417 600.484 294.781 600.851L293.511 601.584C292.876 601.951 292.178 601.951 291.543 601.584ZM296.457 588.478C295.956 588.84 295.401 588.871 294.596 588.788C293.63 588.706 292.511 588.876 291.456 589.485C290.105 590.265 289.72 591.231 290.659 591.763C291.447 592.228 292.485 592.187 294.194 591.562L297.039 590.498C300.197 589.325 302.658 589.289 304.626 590.415C307.221 591.923 306.577 594.351 303.141 596.335C300.26 597.998 297.2 598.504 294.543 597.848C293.648 597.631 293.585 597.161 294.194 596.738L295.303 595.963C295.822 595.601 296.377 595.58 297.191 595.689C298.372 595.844 299.562 595.58 300.689 594.93C302.228 594.041 302.541 593.044 301.602 592.502C300.824 592.053 299.723 592.099 298.184 592.667L295.348 593.736C292.163 594.945 289.604 594.894 287.608 593.731C285.058 592.27 285.685 590.028 288.995 588.117C291.706 586.552 294.516 586.149 296.985 586.707C297.889 586.918 297.978 587.383 297.37 587.817L296.457 588.478ZM312.156 589.684C312.791 590.051 312.791 590.454 312.156 590.82L310.885 591.554C310.25 591.921 309.552 591.921 308.917 591.554L292.561 582.112C291.926 581.745 291.926 581.342 292.561 580.975L293.76 580.283C294.395 579.917 295.093 579.917 295.728 580.283L301.66 583.708L301.821 583.615C300.9 582.349 301.285 581.022 303.396 579.803C306.25 578.155 309.981 578.14 313.301 580.056L321.067 584.54C321.702 584.906 321.702 585.309 321.067 585.676L319.797 586.409C319.161 586.776 318.463 586.776 317.828 586.409L310.563 582.215C308.711 581.146 306.626 581.099 304.926 582.081C303.19 583.083 303.101 584.457 305.087 585.604L312.156 589.684ZM324.888 575.061C325.523 575.428 325.523 575.831 324.888 576.197L318.607 579.823C317.972 580.19 317.274 580.19 316.639 579.823L315.941 579.421C315.305 579.054 315.305 578.651 315.941 578.284L322.222 574.658C322.857 574.291 323.555 574.291 324.19 574.658L324.888 575.061ZM335.274 563.456C334.692 563.792 334.102 563.802 333.332 563.606C331.024 563.006 328.519 563.368 326.595 564.478C323.598 566.209 323.786 568.755 327.919 571.142C332.124 573.569 336.482 573.626 339.452 571.911C341.34 570.821 342.011 569.401 341.045 568.079C340.714 567.629 340.759 567.294 341.34 566.958L342.718 566.173C343.407 565.775 344.203 565.79 344.66 566.291C346.753 568.533 346.288 571.405 342.387 573.657C337.555 576.446 330.496 576.483 324.582 573.068C318.659 569.649 318.775 565.553 323.562 562.789C327.248 560.661 332.124 560.098 336.446 561.529C337.305 561.808 337.341 562.263 336.652 562.66L335.274 563.456Z" fill="#A6A6A6"/>
<g filter="url(#filter11_d_3897_822)">
<rect width="284.951" height="284.951" rx="49.7468" transform="matrix(0.866044 -0.499967 0.866044 0.499967 358 478.992)" fill="#F7F7F7"/>
<rect x="1.07707" width="283.707" height="283.707" rx="49.125" transform="matrix(0.866044 -0.499967 0.866044 0.499967 358.144 479.531)" stroke="#9B9B9B" stroke-width="1.24367"/>
</g>
<g filter="url(#filter12_d_3897_822)">
<rect width="251.286" height="251.286" rx="32.3354" transform="matrix(0.866044 -0.499967 0.866044 0.499967 387.164 445.648)" fill="white"/>
<rect x="1.07707" width="250.042" height="250.042" rx="31.7136" transform="matrix(0.866044 -0.499967 0.866044 0.499967 387.308 446.187)" stroke="#9B9B9B" stroke-width="1.24367"/>
</g>
<path d="M550.364 459.753C549.863 460.115 549.308 460.146 548.503 460.063C547.537 459.98 546.418 460.151 545.363 460.76C544.012 461.54 543.627 462.506 544.566 463.038C545.354 463.503 546.392 463.462 548.101 462.837L550.946 461.773C554.104 460.6 556.565 460.564 558.533 461.69C561.128 463.198 560.484 465.626 557.048 467.609C554.167 469.273 551.107 469.779 548.449 469.123C547.555 468.906 547.492 468.436 548.101 468.012L549.21 467.237C549.729 466.876 550.284 466.855 551.098 466.964C552.279 467.119 553.469 466.855 554.596 466.204C556.135 465.316 556.448 464.319 555.509 463.777C554.73 463.327 553.63 463.374 552.091 463.942L549.255 465.011C546.07 466.22 543.511 466.168 541.515 465.006C538.965 463.544 539.592 461.303 542.902 459.391C545.613 457.826 548.423 457.423 550.892 457.981C551.796 458.193 551.885 458.658 551.277 459.092L550.364 459.753ZM551.049 456.031C550.414 455.664 550.414 455.262 551.049 454.895L552.266 454.192C552.901 453.826 553.599 453.826 554.234 454.192L555.523 454.936L555.711 454.828C555.21 453.97 554.762 452.545 557.187 451.145C560.363 449.311 565.347 449.306 569.928 451.951C574.455 454.564 574.598 457.447 571.359 459.316C568.997 460.68 566.528 460.484 565.016 460.2L564.882 460.277L571.216 463.934C571.851 464.301 571.851 464.704 571.216 465.07L569.946 465.804C569.31 466.171 568.613 466.171 567.977 465.804L551.049 456.031ZM560.113 457.596C562.779 459.136 565.732 459.497 567.798 458.304C569.937 457.069 569.185 455.334 566.608 453.846C564.049 452.369 561.106 451.951 558.949 453.195C556.865 454.399 557.446 456.057 560.113 457.596ZM582.275 453.056C579.654 454.569 576.245 454.884 573.543 453.324C570.447 451.537 572.201 449.605 574.581 447.901C576.746 446.351 577.677 445.762 576.746 445.225L576.692 445.194C575.341 444.414 573.749 444.445 572.246 445.313C571.091 445.979 570.724 446.687 570.841 447.302C570.948 447.767 570.868 448.082 570.223 448.361L568.989 448.898C568.201 449.239 567.396 449.156 567.101 448.603C566.251 446.987 567.289 445.313 569.749 443.893C572.371 442.379 576.424 441.3 580.057 443.397L588.27 448.138C588.905 448.505 588.905 448.908 588.27 449.275L587.125 449.936C586.49 450.303 585.801 450.308 585.192 449.957L584.253 449.414L584.145 449.476C584.709 450.484 584.432 451.811 582.275 453.056ZM576.612 451.491C577.802 452.178 579.385 451.976 580.736 451.196C582.687 450.07 582.624 448.609 581.094 447.725L579.475 446.79C579.394 447.229 577.909 448.335 577.175 448.893C575.932 449.848 575.368 450.773 576.612 451.491ZM593.254 445.261C593.889 445.628 593.889 446.031 593.254 446.398L591.984 447.131C591.348 447.498 590.65 447.498 590.015 447.131L578.241 440.334C577.605 439.967 577.605 439.564 578.241 439.197L579.368 438.546C580.003 438.18 580.701 438.18 581.336 438.546L582.687 439.326L582.848 439.233C581.945 437.989 582.374 436.604 584.432 435.416C587.268 433.779 591.026 433.779 594.31 435.685L602.076 440.168C602.711 440.535 602.711 440.938 602.076 441.305L600.806 442.038C600.17 442.405 599.472 442.405 598.837 442.038L591.572 437.844C589.738 436.785 587.635 436.728 585.962 437.694C584.253 438.681 584.199 440.034 586.186 441.181L593.254 445.261Z" fill="#A6A6A6"/>
<g filter="url(#filter13_d_3897_822)">
<rect width="284.951" height="284.951" rx="49.7468" transform="matrix(0.866044 -0.499967 0.866044 0.499967 -272 476.984)" fill="#F7F7F7"/>
<rect x="1.07707" width="283.707" height="283.707" rx="49.125" transform="matrix(0.866044 -0.499967 0.866044 0.499967 -271.856 477.523)" stroke="#9B9B9B" stroke-width="1.24367"/>
</g>
<g filter="url(#filter14_d_3897_822)">
<rect width="251.286" height="251.286" rx="32.3354" transform="matrix(0.866044 -0.499967 0.866044 0.499967 -242.836 443.648)" fill="white"/>
<rect x="1.07707" width="250.042" height="250.042" rx="31.7136" transform="matrix(0.866044 -0.499967 0.866044 0.499967 -242.692 444.187)" stroke="#9B9B9B" stroke-width="1.24367"/>
</g>
<path d="M-78.1637 468.611C-82.3063 471.002 -87.5852 470.878 -91.8978 468.389C-96.1388 465.94 -96.4609 462.789 -92.5241 460.517C-89.142 458.564 -84.1226 458.115 -79.3 460.899L-79.291 460.904C-78.6558 461.271 -78.6558 461.674 -79.291 462.04L-87.8804 466.999C-85.5005 468.342 -82.7357 468.337 -80.6421 467.128C-79.5684 466.508 -79.0405 465.79 -79.1926 465.072C-79.3 464.608 -79.2105 464.287 -78.5931 464.003L-77.3763 463.445C-76.6068 463.094 -75.8732 463.104 -75.5869 463.528C-74.5221 465.114 -75.3542 466.989 -78.1637 468.611ZM-90.0546 465.734L-83.5947 462.004C-85.4826 460.935 -88.0952 460.873 -89.9562 461.947C-91.8888 463.063 -91.7099 464.664 -90.0546 465.734ZM-68.838 461.781C-68.2027 462.147 -68.2027 462.55 -68.838 462.917L-70.1085 463.65C-70.7438 464.017 -71.4417 464.017 -72.0769 463.65L-83.8516 456.853C-84.4868 456.486 -84.4868 456.083 -83.8516 455.717L-82.7242 455.066C-82.0889 454.699 -81.3911 454.699 -80.7558 455.066L-79.4048 455.846L-79.2437 455.753C-80.1474 454.508 -79.7179 453.124 -77.66 451.936C-74.8237 450.298 -71.0659 450.298 -67.7822 452.204L-60.016 456.688C-59.3807 457.054 -59.3807 457.457 -60.016 457.824L-61.2865 458.557C-61.9217 458.924 -62.6196 458.924 -63.2549 458.557L-70.5201 454.363C-72.3543 453.304 -74.4569 453.248 -76.13 454.213C-77.839 455.2 -77.8927 456.553 -75.9064 457.7L-68.838 461.781ZM-45.8342 455.918C-48.7152 457.581 -51.6141 458.046 -53.9583 457.726C-54.8888 457.591 -55.0767 457.132 -54.5757 456.656L-53.7794 455.908C-53.3588 455.51 -52.822 455.427 -52.0167 455.458C-50.9431 455.489 -49.6278 455.277 -48.232 454.472C-46.3889 453.408 -45.8789 452.152 -47.901 450.985L-50.5046 449.482L-50.6657 449.575C-50.1557 450.448 -49.9947 451.811 -52.3478 453.17C-55.5151 454.998 -60.2482 455.148 -64.7308 452.56C-69.2492 449.952 -69.2403 447.075 -66.064 445.241C-63.6393 443.841 -61.1519 444.089 -59.6667 444.379L-59.4877 444.275L-60.7761 443.532C-61.4114 443.165 -61.4114 442.762 -60.7761 442.395L-59.5504 441.688C-58.9151 441.321 -58.2172 441.321 -57.582 441.688L-44.5994 449.182C-41.0832 451.212 -42.121 453.774 -45.8342 455.918ZM-61.4472 450.644C-58.9151 452.106 -56.1235 452.416 -53.9851 451.181C-51.9183 449.988 -52.3299 448.408 -54.9515 446.894C-57.5551 445.391 -60.4272 445.055 -62.5119 446.259C-64.6682 447.504 -63.9435 449.203 -61.4472 450.644ZM-40.7607 445.572C-40.1254 445.938 -40.1254 446.341 -40.7607 446.708L-42.0312 447.441C-42.6665 447.808 -43.3644 447.808 -43.9996 447.441L-60.3553 437.999C-60.9905 437.633 -60.9905 437.23 -60.3553 436.863L-59.0847 436.129C-58.4495 435.763 -57.7516 435.763 -57.1163 436.129L-40.7607 445.572ZM-52.0227 435.09C-53.0606 435.689 -54.689 435.72 -55.6553 435.162C-56.6306 434.599 -56.5769 433.659 -55.539 433.06C-54.5101 432.466 -52.8817 432.435 -51.9064 432.998C-50.9401 433.556 -50.9938 434.496 -52.0227 435.09ZM-38.9418 444.522L-50.7164 437.724C-51.3517 437.357 -51.3517 436.954 -50.7164 436.588L-49.4459 435.854C-48.8107 435.487 -48.1128 435.487 -47.4775 435.854L-35.7029 442.652C-35.0676 443.018 -35.0676 443.421 -35.7029 443.788L-36.9734 444.522C-37.6086 444.888 -38.3065 444.888 -38.9418 444.522ZM-34.0271 431.416C-34.5282 431.777 -35.0829 431.808 -35.8882 431.726C-36.8545 431.643 -37.9729 431.813 -39.0287 432.423C-40.3797 433.203 -40.7644 434.169 -39.825 434.701C-39.0376 435.166 -37.9997 435.124 -36.2908 434.499L-33.4456 433.435C-30.2872 432.263 -27.8267 432.227 -25.8583 433.353C-23.2635 434.861 -23.9078 437.289 -27.3435 439.272C-30.2245 440.935 -33.2845 441.442 -35.9419 440.786C-36.8366 440.569 -36.8992 440.099 -36.2908 439.675L-35.1813 438.9C-34.6624 438.539 -34.1077 438.518 -33.2935 438.626C-32.1124 438.781 -30.9224 438.518 -29.7951 437.867C-28.2561 436.979 -27.943 435.982 -28.8824 435.439C-29.6609 434.99 -30.7614 435.037 -32.3003 435.605L-35.1366 436.674C-38.3218 437.883 -40.8808 437.831 -42.876 436.669C-45.426 435.207 -44.7997 432.965 -41.4892 431.054C-38.7781 429.489 -35.9687 429.086 -33.4992 429.644C-32.5956 429.856 -32.5061 430.321 -33.1145 430.755L-34.0271 431.416ZM-18.3288 432.622C-17.6935 432.988 -17.6935 433.391 -18.3288 433.758L-19.5993 434.491C-20.2345 434.858 -20.9324 434.858 -21.5677 434.491L-37.9233 425.049C-38.5586 424.683 -38.5586 424.28 -37.9233 423.913L-36.7244 423.221C-36.0891 422.854 -35.3912 422.854 -34.756 423.221L-28.8239 426.645L-28.6629 426.552C-29.5845 425.287 -29.1997 423.959 -27.0882 422.74C-24.234 421.093 -20.5029 421.077 -17.1835 422.994L-9.41726 427.477C-8.782 427.844 -8.782 428.247 -9.41726 428.613L-10.6878 429.347C-11.323 429.714 -12.0209 429.714 -12.6562 429.347L-19.9214 425.153C-21.7735 424.083 -23.8582 424.037 -25.5582 425.018C-27.2939 426.02 -27.3834 427.394 -25.3971 428.541L-18.3288 432.622ZM-5.5964 417.999C-4.96115 418.365 -4.96115 418.768 -5.5964 419.135L-11.8774 422.761C-12.5127 423.128 -13.2105 423.128 -13.8458 422.761L-14.5437 422.358C-15.179 421.991 -15.179 421.588 -14.5437 421.222L-8.2627 417.596C-7.62744 417.229 -6.92955 417.229 -6.29429 417.596L-5.5964 417.999ZM-13.6151 411.016C-14.2503 410.649 -14.2503 410.247 -13.6151 409.88L-7.58459 406.398C-3.61199 404.105 0.378502 404.136 3.10743 405.711C5.3353 406.998 5.17425 408.537 3.80532 409.813L3.98426 409.916C6.03319 408.847 9.63 408.65 12.4037 410.252C15.2578 411.899 15.3384 414.322 11.1421 416.744L4.70899 420.458C4.07373 420.825 3.37584 420.825 2.74059 420.458L-13.6151 411.016ZM4.27057 417.509L7.84054 415.448C10.2474 414.059 10.2295 412.891 8.77106 412.049C7.13371 411.104 4.61057 411.114 2.56164 412.297L-1.0978 414.41L4.27057 417.509ZM-3.48673 413.031L-0.203071 411.135C1.52376 410.138 1.82796 408.805 0.217451 407.876C-1.19622 407.06 -3.2362 407.049 -5.18671 408.175L-8.54195 410.112L-3.48673 413.031ZM25.7154 408.734C21.2954 411.286 15.1665 410.795 9.16287 407.329C3.18607 403.869 2.38977 400.351 6.79183 397.81C11.1939 395.268 17.3049 395.728 23.2817 399.178C29.2943 402.65 30.1443 406.188 25.7154 408.734ZM12.5181 405.392C16.9112 407.939 20.6333 408.435 22.9149 407.117C25.2054 405.795 24.3375 403.652 19.9354 401.11C15.5602 398.595 11.8381 398.089 9.55655 399.406C7.28393 400.718 8.16077 402.866 12.5181 405.392Z" fill="#A6A6A6"/>
<g filter="url(#filter15_d_3897_822)">
<rect width="284.951" height="284.951" rx="49.7468" transform="matrix(0.866044 -0.499967 0.866044 0.499967 358 148.977)" fill="#F7F7F7"/>
<rect x="1.07707" width="283.707" height="283.707" rx="49.125" transform="matrix(0.866044 -0.499967 0.866044 0.499967 358.144 149.515)" stroke="#9B9B9B" stroke-width="1.24367"/>
</g>
<g filter="url(#filter16_d_3897_822)">
<rect width="251.286" height="251.286" rx="32.3354" transform="matrix(0.866044 -0.499967 0.866044 0.499967 387.164 115.641)" fill="white"/>
<rect x="1.07707" width="250.042" height="250.042" rx="31.7136" transform="matrix(0.866044 -0.499967 0.866044 0.499967 387.308 116.179)" stroke="#9B9B9B" stroke-width="1.24367"/>
</g>
<path d="M534.152 130.489C533.516 130.122 533.516 129.719 534.152 129.353L535.422 128.619C536.057 128.252 536.755 128.252 537.391 128.619L546.508 133.883L546.732 133.753L546.204 128.304C546.159 127.886 546.365 127.591 546.875 127.297L548.306 126.47C549.165 125.975 549.988 126.15 550.06 126.853L550.543 132.028L561.924 133.092C563.06 133.201 563.329 133.666 562.515 134.136L560.868 135.086C560.34 135.391 559.795 135.489 559.061 135.417L550.033 134.554L550.114 135.964L553.746 138.061C554.382 138.428 554.382 138.831 553.746 139.198L552.476 139.931C551.841 140.298 551.143 140.298 550.507 139.931L534.152 130.489ZM570.022 130.112C565.995 132.436 560.6 132.276 556.35 129.822C552.091 127.364 551.805 124.244 555.831 121.92C559.858 119.595 565.262 119.761 569.521 122.219C573.771 124.673 574.048 127.787 570.022 130.112ZM559.625 127.922C562.139 129.373 565.217 129.89 567.445 128.603C569.637 127.338 568.742 125.561 566.228 124.11C563.714 122.658 560.609 122.126 558.417 123.392C556.189 124.678 557.111 126.47 559.625 127.922ZM583.928 122.083C579.786 124.475 574.507 124.351 570.194 121.861C565.953 119.413 565.631 116.262 569.568 113.989C572.95 112.037 577.97 111.588 582.792 114.372L582.801 114.377C583.436 114.744 583.436 115.146 582.801 115.513L574.212 120.472C576.592 121.815 579.356 121.81 581.45 120.601C582.524 119.981 583.052 119.263 582.9 118.545C582.792 118.08 582.882 117.76 583.499 117.476L584.716 116.918C585.485 116.567 586.219 116.577 586.505 117.001C587.57 118.586 586.738 120.461 583.928 122.083ZM572.037 119.206L578.497 115.477C576.61 114.408 573.997 114.346 572.136 115.42C570.203 116.536 570.382 118.137 572.037 119.206ZM593.254 115.253C593.889 115.62 593.889 116.023 593.254 116.39L591.984 117.123C591.348 117.49 590.65 117.49 590.015 117.123L573.66 107.681C573.024 107.314 573.024 106.911 573.66 106.545L574.93 105.811C575.565 105.445 576.263 105.445 576.898 105.811L593.254 115.253ZM598.312 112.334C598.947 112.7 598.947 113.103 598.312 113.47L597.041 114.203C596.406 114.57 595.708 114.57 595.073 114.203L578.717 104.761C578.082 104.395 578.082 103.992 578.717 103.625L579.988 102.891C580.623 102.525 581.321 102.525 581.956 102.891L598.312 112.334ZM605.347 109.729C602.726 111.242 599.317 111.557 596.615 109.997C593.519 108.21 595.272 106.278 597.652 104.574C599.818 103.024 600.748 102.435 599.818 101.898L599.764 101.867C598.413 101.087 596.82 101.118 595.317 101.986C594.163 102.652 593.796 103.36 593.912 103.975C594.02 104.439 593.939 104.755 593.295 105.033L592.06 105.571C591.273 105.912 590.468 105.829 590.172 105.276C589.322 103.66 590.36 101.986 592.821 100.566C595.442 99.0521 599.496 97.9726 603.128 100.07L611.342 104.811C611.977 105.178 611.977 105.581 611.342 105.948L610.197 106.609C609.561 106.976 608.872 106.981 608.264 106.63L607.324 106.087L607.217 106.149C607.781 107.156 607.503 108.484 605.347 109.729ZM599.683 108.164C600.873 108.851 602.457 108.649 603.808 107.869C605.759 106.743 605.696 105.281 604.166 104.398L602.547 103.463C602.466 103.902 600.981 105.008 600.247 105.566C599.003 106.521 598.44 107.446 599.683 108.164ZM596.874 94.2792C596.239 93.9125 596.239 93.5096 596.874 93.1428L598.145 92.4094C598.78 92.0426 599.478 92.0426 600.113 92.4094L605.983 95.7978L606.117 95.7203C605.616 94.8629 605.169 93.4373 607.593 92.0375C610.77 90.2038 615.753 90.1986 620.334 92.8433C624.861 95.4569 625.005 98.3391 621.766 100.209C619.404 101.573 616.934 101.376 615.422 101.092L615.234 101.201L616.415 101.882C617.051 102.249 617.051 102.652 616.415 103.019L615.198 103.721C614.563 104.088 613.865 104.088 613.23 103.721L596.874 94.2792ZM610.519 98.4889C613.185 100.028 616.138 100.39 618.205 99.1965C620.343 97.962 619.592 96.2265 617.015 94.7389C614.456 93.2616 611.512 92.8433 609.356 94.0881C607.271 95.2916 607.853 96.9496 610.519 98.4889ZM627.302 85.3289C626.801 85.6904 626.246 85.7214 625.441 85.6388C624.475 85.5561 623.356 85.7266 622.301 86.3361C620.95 87.116 620.565 88.082 621.504 88.614C622.292 89.0789 623.33 89.0375 625.039 88.4125L627.884 87.3485C631.042 86.176 633.503 86.1398 635.471 87.2658C638.066 88.7741 637.422 91.2018 633.986 93.1852C631.105 94.8485 628.045 95.3547 625.388 94.6987C624.493 94.4817 624.43 94.0117 625.039 93.5881L626.148 92.8133C626.667 92.4518 627.222 92.4311 628.036 92.5396C629.217 92.6945 630.407 92.4311 631.534 91.7803C633.073 90.8919 633.386 89.895 632.447 89.3526C631.669 88.9032 630.568 88.9497 629.029 89.5179L626.193 90.5871C623.008 91.7958 620.449 91.7441 618.453 90.5819C615.903 89.1202 616.53 86.8784 619.84 84.9673C622.551 83.4022 625.361 82.9993 627.83 83.5572C628.734 83.769 628.823 84.2338 628.215 84.6677L627.302 85.3289Z" fill="#A6A6A6"/>
<g filter="url(#filter17_d_3897_822)">
<rect width="284.951" height="284.951" rx="49.7468" transform="matrix(0.866044 -0.499967 0.866044 0.499967 -272 146.977)" fill="#F7F7F7"/>
<rect x="1.07707" width="283.707" height="283.707" rx="49.125" transform="matrix(0.866044 -0.499967 0.866044 0.499967 -271.856 147.515)" stroke="#9B9B9B" stroke-width="1.24367"/>
</g>
<g filter="url(#filter18_d_3897_822)">
<rect width="251.286" height="251.286" rx="32.3354" transform="matrix(0.866044 -0.499967 0.866044 0.499967 -242.836 113.633)" fill="white"/>
<rect x="1.07707" width="250.042" height="250.042" rx="31.7136" transform="matrix(0.866044 -0.499967 0.866044 0.499967 -242.692 114.171)" stroke="#9B9B9B" stroke-width="1.24367"/>
</g>
<path d="M-80.9449 140.204C-85.0875 142.596 -90.3664 142.472 -94.679 139.982C-98.92 137.534 -99.2421 134.383 -95.3053 132.11C-91.9233 130.158 -86.9038 129.709 -82.0812 132.493L-82.0723 132.498C-81.437 132.865 -81.437 133.267 -82.0723 133.634L-90.6617 138.593C-88.2817 139.936 -85.517 139.931 -83.4233 138.722C-82.3496 138.102 -81.8218 137.384 -81.9739 136.666C-82.0812 136.201 -81.9918 135.881 -81.3744 135.597L-80.1576 135.039C-79.3881 134.688 -78.6544 134.698 -78.3681 135.122C-77.3034 136.707 -78.1355 138.582 -80.9449 140.204ZM-92.8359 137.327L-86.3759 133.598C-88.2638 132.529 -90.8764 132.467 -92.7375 133.541C-94.6701 134.657 -94.4911 136.258 -92.8359 137.327ZM-71.6193 133.374C-70.984 133.741 -70.984 134.144 -71.6193 134.511L-72.8898 135.244C-73.525 135.611 -74.2229 135.611 -74.8582 135.244L-86.6328 128.447C-87.2681 128.08 -87.2681 127.677 -86.6328 127.31L-85.5054 126.66C-84.8702 126.293 -84.1723 126.293 -83.537 126.66L-82.186 127.439L-82.025 127.346C-82.9286 126.102 -82.4992 124.717 -80.4413 123.529C-77.605 121.892 -73.8471 121.892 -70.5635 123.798L-62.7972 128.281C-62.162 128.648 -62.162 129.051 -62.7972 129.418L-64.0677 130.151C-64.703 130.518 -65.4009 130.518 -66.0361 130.151L-73.3013 125.957C-75.1355 124.898 -77.2382 124.841 -78.9113 125.807C-80.6202 126.794 -80.6739 128.147 -78.6876 129.294L-71.6193 133.374ZM-48.6154 127.512C-51.4964 129.175 -54.3954 129.64 -56.7396 129.319C-57.6701 129.185 -57.858 128.725 -57.3569 128.25L-56.5606 127.501C-56.1401 127.104 -55.6032 127.021 -54.798 127.052C-53.7243 127.083 -52.4091 126.871 -51.0133 126.065C-49.1701 125.001 -48.6601 123.746 -50.6822 122.579L-53.2859 121.076L-53.4469 121.169C-52.937 122.042 -52.7759 123.405 -55.129 124.764C-58.2964 126.592 -63.0295 126.742 -67.5121 124.154C-72.0305 121.546 -72.0215 118.669 -68.8452 116.835C-66.4205 115.435 -63.9332 115.683 -62.4479 115.972L-62.269 115.869L-63.5574 115.125C-64.1926 114.759 -64.1926 114.356 -63.5574 113.989L-62.3316 113.281C-61.6964 112.915 -60.9985 112.915 -60.3632 113.281L-47.3807 120.776C-43.8644 122.806 -44.9023 125.368 -48.6154 127.512ZM-64.2284 122.238C-61.6964 123.7 -58.9048 124.01 -56.7664 122.775C-54.6996 121.582 -55.1111 120.001 -57.7327 118.488C-60.3364 116.985 -63.2084 116.649 -65.2932 117.853C-67.4495 119.097 -66.7247 120.797 -64.2284 122.238ZM-43.5419 117.165C-42.9067 117.532 -42.9067 117.935 -43.5419 118.302L-44.8125 119.035C-45.4477 119.402 -46.1456 119.402 -46.7809 119.035L-63.1365 109.593C-63.7718 109.226 -63.7718 108.823 -63.1365 108.457L-61.866 107.723C-61.2307 107.356 -60.5328 107.356 -59.8976 107.723L-43.5419 117.165ZM-54.804 106.684C-55.8419 107.283 -57.4703 107.314 -58.4366 106.756C-59.4118 106.193 -59.3582 105.253 -58.3203 104.654C-57.2913 104.06 -55.6629 104.029 -54.6877 104.592C-53.7214 105.149 -53.775 106.089 -54.804 106.684ZM-41.723 116.115L-53.4977 109.318C-54.1329 108.951 -54.1329 108.548 -53.4977 108.181L-52.2272 107.448C-51.5919 107.081 -50.894 107.081 -50.2588 107.448L-38.4841 114.245C-37.8489 114.612 -37.8489 115.015 -38.4841 115.382L-39.7546 116.115C-40.3899 116.482 -41.0878 116.482 -41.723 116.115ZM-36.8084 103.009C-37.3094 103.371 -37.8642 103.402 -38.6694 103.319C-39.6357 103.237 -40.7541 103.407 -41.8099 104.017C-43.161 104.797 -43.5457 105.763 -42.6062 106.295C-41.8189 106.759 -40.781 106.718 -39.0721 106.093L-36.2268 105.029C-33.0684 103.857 -30.6079 103.82 -28.6395 104.946C-26.0448 106.455 -26.689 108.882 -30.1248 110.866C-33.0058 112.529 -36.0658 113.035 -38.7231 112.379C-39.6178 112.162 -39.6805 111.692 -39.0721 111.269L-37.9626 110.494C-37.4436 110.132 -36.8889 110.112 -36.0747 110.22C-34.8937 110.375 -33.7037 110.112 -32.5763 109.461C-31.0374 108.572 -30.7242 107.576 -31.6637 107.033C-32.4421 106.584 -33.5426 106.63 -35.0816 107.199L-37.9179 108.268C-41.1031 109.476 -43.662 109.425 -45.6573 108.263C-48.2072 106.801 -47.5809 104.559 -44.2704 102.648C-41.5594 101.083 -38.7499 100.68 -36.2805 101.238C-35.3768 101.45 -35.2873 101.914 -35.8958 102.348L-36.8084 103.009ZM-21.11 104.215C-20.4748 104.582 -20.4748 104.985 -21.11 105.352L-22.3805 106.085C-23.0158 106.452 -23.7137 106.452 -24.3489 106.085L-40.7046 96.6431C-41.3398 96.2764 -41.3398 95.8735 -40.7046 95.5067L-39.5056 94.8146C-38.8704 94.4479 -38.1725 94.4479 -37.5372 94.8146L-31.6052 98.2392L-31.4441 98.1462C-32.3657 96.8807 -31.981 95.5532 -29.8694 94.3342C-27.0152 92.6865 -23.2842 92.671 -19.9648 94.5873L-12.1985 99.0708C-11.5632 99.4375 -11.5632 99.8404 -12.1985 100.207L-13.469 100.941C-14.1043 101.307 -14.8022 101.307 -15.4374 100.941L-22.7026 96.7464C-24.5547 95.6772 -26.6394 95.6307 -28.3394 96.6121C-30.0752 97.6142 -30.1647 98.9881 -28.1784 100.135L-21.11 104.215ZM-8.37765 89.5923C-7.7424 89.959 -7.7424 90.3619 -8.37765 90.7287L-14.6587 94.3547C-15.2939 94.7214 -15.9918 94.7214 -16.6271 94.3547L-17.3249 93.9518C-17.9602 93.585 -17.9602 93.1822 -17.3249 92.8154L-11.0439 89.1894C-10.4087 88.8227 -9.7108 88.8227 -9.07554 89.1894L-8.37765 89.5923ZM0.952487 92.6151C0.227756 93.0334 -0.541711 92.9611 -0.980128 92.4291L-11.6006 79.6244C-11.9585 79.2009 -11.8511 78.8496 -11.2785 78.519L-8.86269 77.1244C-8.29006 76.7938 -7.68165 76.7319 -6.94797 76.9385L15.2413 83.0645C16.1629 83.3176 16.2881 83.7618 15.5634 84.1802L14.0692 85.0428C13.4966 85.3734 12.8703 85.4353 12.1455 85.2236L7.1798 83.8031L0.290387 87.7804L2.75984 90.6419C3.12668 91.0603 3.01931 91.4219 2.44668 91.7525L0.952487 92.6151ZM-1.48118 85.7246L3.61878 82.7804L-6.24113 79.9498L-6.38429 80.0325L-1.48118 85.7246ZM24.6072 79.3621C20.1873 81.9137 14.0584 81.423 8.05476 77.9571C2.07797 74.4964 1.28166 70.9788 5.68373 68.4375C10.0858 65.8962 16.1968 66.3559 22.1736 69.8063C28.1862 73.2774 29.0362 76.8156 24.6072 79.3621ZM11.41 76.0201C15.8031 78.5666 19.5252 79.0625 21.8067 77.7453C24.0973 76.423 23.2294 74.2794 18.8273 71.7381C14.4521 69.2226 10.73 68.7164 8.44844 70.0336C6.17583 71.3456 7.05266 73.4943 11.41 76.0201Z" fill="#A6A6A6"/>
<g filter="url(#filter19_d_3897_822)">
<rect width="284.951" height="284.951" rx="49.7468" transform="matrix(0.866044 -0.499967 0.866044 0.499967 43 -17.0312)" fill="#F7F7F7"/>
<rect x="1.07707" width="283.707" height="283.707" rx="49.125" transform="matrix(0.866044 -0.499967 0.866044 0.499967 43.1443 -16.4927)" stroke="#9B9B9B" stroke-width="1.24367"/>
</g>
<g filter="url(#filter20_d_3897_822)">
<rect width="251.286" height="251.286" rx="32.3354" transform="matrix(0.866044 -0.499967 0.866044 0.499967 72.1641 -50.3672)" fill="white"/>
<rect x="1.07707" width="250.042" height="250.042" rx="31.7136" transform="matrix(0.866044 -0.499967 0.866044 0.499967 72.3083 -49.8287)" stroke="#9B9B9B" stroke-width="1.24367"/>
</g>
</g>
<defs>
<filter id="filter0_d_3897_822" x="27.313" y="150.534" width="524.929" height="337.64" filterUnits="userSpaceOnUse" color-interpolation-filters="sRGB">
<feFlood flood-opacity="0" result="BackgroundImageFix"/>
<feColorMatrix in="SourceAlpha" type="matrix" values="0 0 0 0 0 0 0 0 0 0 0 0 0 0 0 0 0 0 127 0" result="hardAlpha"/>
<feOffset dy="6.36908"/>
<feGaussianBlur stdDeviation="20.4607"/>
<feComposite in2="hardAlpha" operator="out"/>
<feColorMatrix type="matrix" values="0 0 0 0 0 0 0 0 0 0 0 0 0 0 0 0 0 0 0.1 0"/>
<feBlend mode="normal" in2="BackgroundImageFix" result="effect1_dropShadow_3897_822"/>
<feBlend mode="normal" in="SourceGraphic" in2="effect1_dropShadow_3897_822" result="shape"/>
</filter>
<filter id="filter1_d_3897_822" x="47.649" y="128.924" width="484.28" height="314.171" filterUnits="userSpaceOnUse" color-interpolation-filters="sRGB">
<feFlood flood-opacity="0" result="BackgroundImageFix"/>
<feColorMatrix in="SourceAlpha" type="matrix" values="0 0 0 0 0 0 0 0 0 0 0 0 0 0 0 0 0 0 127 0" result="hardAlpha"/>
<feOffset dy="6.36908"/>
<feGaussianBlur stdDeviation="20.4607"/>
<feComposite in2="hardAlpha" operator="out"/>
<feColorMatrix type="matrix" values="0 0 0 0 0 0 0 0 0 0 0 0 0 0 0 0 0 0 0.1 0"/>
<feBlend mode="normal" in2="BackgroundImageFix" result="effect1_dropShadow_3897_822"/>
<feBlend mode="normal" in="SourceGraphic" in2="effect1_dropShadow_3897_822" result="shape"/>
</filter>
<filter id="filter2_f_3897_822" x="-228.9" y="-191.892" width="1333.8" height="1268.8" filterUnits="userSpaceOnUse" color-interpolation-filters="sRGB">
<feFlood flood-opacity="0" result="BackgroundImageFix"/>
<feBlend mode="normal" in="SourceGraphic" in2="BackgroundImageFix" result="shape"/>
<feGaussianBlur stdDeviation="76.95" result="effect1_foregroundBlur_3897_822"/>
</filter>
<filter id="filter3_f_3897_822" x="368.1" y="79.1078" width="1334.8" height="1269.8" filterUnits="userSpaceOnUse" color-interpolation-filters="sRGB">
<feFlood flood-opacity="0" result="BackgroundImageFix"/>
<feBlend mode="normal" in="SourceGraphic" in2="BackgroundImageFix" result="shape"/>
<feGaussianBlur stdDeviation="76.95" result="effect1_foregroundBlur_3897_822"/>
</filter>
<filter id="filter4_f_3897_822" x="-800.9" y="-762.892" width="1334.8" height="1269.8" filterUnits="userSpaceOnUse" color-interpolation-filters="sRGB">
<feFlood flood-opacity="0" result="BackgroundImageFix"/>
<feBlend mode="normal" in="SourceGraphic" in2="BackgroundImageFix" result="shape"/>
<feGaussianBlur stdDeviation="76.95" result="effect1_foregroundBlur_3897_822"/>
</filter>
<filter id="filter5_f_3897_822" x="-898.087" y="-51.6656" width="1334.66" height="1242.85" filterUnits="userSpaceOnUse" color-interpolation-filters="sRGB">
<feFlood flood-opacity="0" result="BackgroundImageFix"/>
<feBlend mode="normal" in="SourceGraphic" in2="BackgroundImageFix" result="shape"/>
<feGaussianBlur stdDeviation="76.95" result="effect1_foregroundBlur_3897_822"/>
</filter>
<filter id="filter6_f_3897_822" x="465.436" y="-578.353" width="1334.66" height="1242.85" filterUnits="userSpaceOnUse" color-interpolation-filters="sRGB">
<feFlood flood-opacity="0" result="BackgroundImageFix"/>
<feBlend mode="normal" in="SourceGraphic" in2="BackgroundImageFix" result="shape"/>
<feGaussianBlur stdDeviation="76.95" result="effect1_foregroundBlur_3897_822"/>
</filter>
<filter id="filter7_f_3897_822" x="-157.314" y="214.498" width="1288.3" height="1269.52" filterUnits="userSpaceOnUse" color-interpolation-filters="sRGB">
<feFlood flood-opacity="0" result="BackgroundImageFix"/>
<feBlend mode="normal" in="SourceGraphic" in2="BackgroundImageFix" result="shape"/>
<feGaussianBlur stdDeviation="76.95" result="effect1_foregroundBlur_3897_822"/>
</filter>
<filter id="filter8_f_3897_822" x="-182.752" y="-907.009" width="1288.3" height="1269.52" filterUnits="userSpaceOnUse" color-interpolation-filters="sRGB">
<feFlood flood-opacity="0" result="BackgroundImageFix"/>
<feBlend mode="normal" in="SourceGraphic" in2="BackgroundImageFix" result="shape"/>
<feGaussianBlur stdDeviation="76.95" result="effect1_foregroundBlur_3897_822"/>
</filter>
<filter id="filter9_d_3897_822" x="27.313" y="480.541" width="524.929" height="337.64" filterUnits="userSpaceOnUse" color-interpolation-filters="sRGB">
<feFlood flood-opacity="0" result="BackgroundImageFix"/>
<feColorMatrix in="SourceAlpha" type="matrix" values="0 0 0 0 0 0 0 0 0 0 0 0 0 0 0 0 0 0 127 0" result="hardAlpha"/>
<feOffset dy="6.36908"/>
<feGaussianBlur stdDeviation="20.4607"/>
<feComposite in2="hardAlpha" operator="out"/>
<feColorMatrix type="matrix" values="0 0 0 0 0 0 0 0 0 0 0 0 0 0 0 0 0 0 0.1 0"/>
<feBlend mode="normal" in2="BackgroundImageFix" result="effect1_dropShadow_3897_822"/>
<feBlend mode="normal" in="SourceGraphic" in2="effect1_dropShadow_3897_822" result="shape"/>
</filter>
<filter id="filter10_d_3897_822" x="47.649" y="458.94" width="484.28" height="314.171" filterUnits="userSpaceOnUse" color-interpolation-filters="sRGB">
<feFlood flood-opacity="0" result="BackgroundImageFix"/>
<feColorMatrix in="SourceAlpha" type="matrix" values="0 0 0 0 0 0 0 0 0 0 0 0 0 0 0 0 0 0 127 0" result="hardAlpha"/>
<feOffset dy="6.36908"/>
<feGaussianBlur stdDeviation="20.4607"/>
<feComposite in2="hardAlpha" operator="out"/>
<feColorMatrix type="matrix" values="0 0 0 0 0 0 0 0 0 0 0 0 0 0 0 0 0 0 0.1 0"/>
<feBlend mode="normal" in2="BackgroundImageFix" result="effect1_dropShadow_3897_822"/>
<feBlend mode="normal" in="SourceGraphic" in2="effect1_dropShadow_3897_822" result="shape"/>
</filter>
<filter id="filter11_d_3897_822" x="342.313" y="316.541" width="524.929" height="337.64" filterUnits="userSpaceOnUse" color-interpolation-filters="sRGB">
<feFlood flood-opacity="0" result="BackgroundImageFix"/>
<feColorMatrix in="SourceAlpha" type="matrix" values="0 0 0 0 0 0 0 0 0 0 0 0 0 0 0 0 0 0 127 0" result="hardAlpha"/>
<feOffset dy="6.36908"/>
<feGaussianBlur stdDeviation="20.4607"/>
<feComposite in2="hardAlpha" operator="out"/>
<feColorMatrix type="matrix" values="0 0 0 0 0 0 0 0 0 0 0 0 0 0 0 0 0 0 0.1 0"/>
<feBlend mode="normal" in2="BackgroundImageFix" result="effect1_dropShadow_3897_822"/>
<feBlend mode="normal" in="SourceGraphic" in2="effect1_dropShadow_3897_822" result="shape"/>
</filter>
<filter id="filter12_d_3897_822" x="362.649" y="294.932" width="484.28" height="314.171" filterUnits="userSpaceOnUse" color-interpolation-filters="sRGB">
<feFlood flood-opacity="0" result="BackgroundImageFix"/>
<feColorMatrix in="SourceAlpha" type="matrix" values="0 0 0 0 0 0 0 0 0 0 0 0 0 0 0 0 0 0 127 0" result="hardAlpha"/>
<feOffset dy="6.36908"/>
<feGaussianBlur stdDeviation="20.4607"/>
<feComposite in2="hardAlpha" operator="out"/>
<feColorMatrix type="matrix" values="0 0 0 0 0 0 0 0 0 0 0 0 0 0 0 0 0 0 0.1 0"/>
<feBlend mode="normal" in2="BackgroundImageFix" result="effect1_dropShadow_3897_822"/>
<feBlend mode="normal" in="SourceGraphic" in2="effect1_dropShadow_3897_822" result="shape"/>
</filter>
<filter id="filter13_d_3897_822" x="-287.687" y="314.534" width="524.929" height="337.64" filterUnits="userSpaceOnUse" color-interpolation-filters="sRGB">
<feFlood flood-opacity="0" result="BackgroundImageFix"/>
<feColorMatrix in="SourceAlpha" type="matrix" values="0 0 0 0 0 0 0 0 0 0 0 0 0 0 0 0 0 0 127 0" result="hardAlpha"/>
<feOffset dy="6.36908"/>
<feGaussianBlur stdDeviation="20.4607"/>
<feComposite in2="hardAlpha" operator="out"/>
<feColorMatrix type="matrix" values="0 0 0 0 0 0 0 0 0 0 0 0 0 0 0 0 0 0 0.1 0"/>
<feBlend mode="normal" in2="BackgroundImageFix" result="effect1_dropShadow_3897_822"/>
<feBlend mode="normal" in="SourceGraphic" in2="effect1_dropShadow_3897_822" result="shape"/>
</filter>
<filter id="filter14_d_3897_822" x="-267.351" y="292.932" width="484.28" height="314.171" filterUnits="userSpaceOnUse" color-interpolation-filters="sRGB">
<feFlood flood-opacity="0" result="BackgroundImageFix"/>
<feColorMatrix in="SourceAlpha" type="matrix" values="0 0 0 0 0 0 0 0 0 0 0 0 0 0 0 0 0 0 127 0" result="hardAlpha"/>
<feOffset dy="6.36908"/>
<feGaussianBlur stdDeviation="20.4607"/>
<feComposite in2="hardAlpha" operator="out"/>
<feColorMatrix type="matrix" values="0 0 0 0 0 0 0 0 0 0 0 0 0 0 0 0 0 0 0.1 0"/>
<feBlend mode="normal" in2="BackgroundImageFix" result="effect1_dropShadow_3897_822"/>
<feBlend mode="normal" in="SourceGraphic" in2="effect1_dropShadow_3897_822" result="shape"/>
</filter>
<filter id="filter15_d_3897_822" x="342.313" y="-13.4741" width="524.929" height="337.64" filterUnits="userSpaceOnUse" color-interpolation-filters="sRGB">
<feFlood flood-opacity="0" result="BackgroundImageFix"/>
<feColorMatrix in="SourceAlpha" type="matrix" values="0 0 0 0 0 0 0 0 0 0 0 0 0 0 0 0 0 0 127 0" result="hardAlpha"/>
<feOffset dy="6.36908"/>
<feGaussianBlur stdDeviation="20.4607"/>
<feComposite in2="hardAlpha" operator="out"/>
<feColorMatrix type="matrix" values="0 0 0 0 0 0 0 0 0 0 0 0 0 0 0 0 0 0 0.1 0"/>
<feBlend mode="normal" in2="BackgroundImageFix" result="effect1_dropShadow_3897_822"/>
<feBlend mode="normal" in="SourceGraphic" in2="effect1_dropShadow_3897_822" result="shape"/>
</filter>
<filter id="filter16_d_3897_822" x="362.649" y="-35.0757" width="484.28" height="314.171" filterUnits="userSpaceOnUse" color-interpolation-filters="sRGB">
<feFlood flood-opacity="0" result="BackgroundImageFix"/>
<feColorMatrix in="SourceAlpha" type="matrix" values="0 0 0 0 0 0 0 0 0 0 0 0 0 0 0 0 0 0 127 0" result="hardAlpha"/>
<feOffset dy="6.36908"/>
<feGaussianBlur stdDeviation="20.4607"/>
<feComposite in2="hardAlpha" operator="out"/>
<feColorMatrix type="matrix" values="0 0 0 0 0 0 0 0 0 0 0 0 0 0 0 0 0 0 0.1 0"/>
<feBlend mode="normal" in2="BackgroundImageFix" result="effect1_dropShadow_3897_822"/>
<feBlend mode="normal" in="SourceGraphic" in2="effect1_dropShadow_3897_822" result="shape"/>
</filter>
<filter id="filter17_d_3897_822" x="-287.687" y="-15.4741" width="524.929" height="337.64" filterUnits="userSpaceOnUse" color-interpolation-filters="sRGB">
<feFlood flood-opacity="0" result="BackgroundImageFix"/>
<feColorMatrix in="SourceAlpha" type="matrix" values="0 0 0 0 0 0 0 0 0 0 0 0 0 0 0 0 0 0 127 0" result="hardAlpha"/>
<feOffset dy="6.36908"/>
<feGaussianBlur stdDeviation="20.4607"/>
<feComposite in2="hardAlpha" operator="out"/>
<feColorMatrix type="matrix" values="0 0 0 0 0 0 0 0 0 0 0 0 0 0 0 0 0 0 0.1 0"/>
<feBlend mode="normal" in2="BackgroundImageFix" result="effect1_dropShadow_3897_822"/>
<feBlend mode="normal" in="SourceGraphic" in2="effect1_dropShadow_3897_822" result="shape"/>
</filter>
<filter id="filter18_d_3897_822" x="-267.351" y="-37.0835" width="484.28" height="314.171" filterUnits="userSpaceOnUse" color-interpolation-filters="sRGB">
<feFlood flood-opacity="0" result="BackgroundImageFix"/>
<feColorMatrix in="SourceAlpha" type="matrix" values="0 0 0 0 0 0 0 0 0 0 0 0 0 0 0 0 0 0 127 0" result="hardAlpha"/>
<feOffset dy="6.36908"/>
<feGaussianBlur stdDeviation="20.4607"/>
<feComposite in2="hardAlpha" operator="out"/>
<feColorMatrix type="matrix" values="0 0 0 0 0 0 0 0 0 0 0 0 0 0 0 0 0 0 0.1 0"/>
<feBlend mode="normal" in2="BackgroundImageFix" result="effect1_dropShadow_3897_822"/>
<feBlend mode="normal" in="SourceGraphic" in2="effect1_dropShadow_3897_822" result="shape"/>
</filter>
<filter id="filter19_d_3897_822" x="27.313" y="-179.482" width="524.929" height="337.64" filterUnits="userSpaceOnUse" color-interpolation-filters="sRGB">
<feFlood flood-opacity="0" result="BackgroundImageFix"/>
<feColorMatrix in="SourceAlpha" type="matrix" values="0 0 0 0 0 0 0 0 0 0 0 0 0 0 0 0 0 0 127 0" result="hardAlpha"/>
<feOffset dy="6.36908"/>
<feGaussianBlur stdDeviation="20.4607"/>
<feComposite in2="hardAlpha" operator="out"/>
<feColorMatrix type="matrix" values="0 0 0 0 0 0 0 0 0 0 0 0 0 0 0 0 0 0 0.1 0"/>
<feBlend mode="normal" in2="BackgroundImageFix" result="effect1_dropShadow_3897_822"/>
<feBlend mode="normal" in="SourceGraphic" in2="effect1_dropShadow_3897_822" result="shape"/>
</filter>
<filter id="filter20_d_3897_822" x="47.649" y="-201.084" width="484.28" height="314.171" filterUnits="userSpaceOnUse" color-interpolation-filters="sRGB">
<feFlood flood-opacity="0" result="BackgroundImageFix"/>
<feColorMatrix in="SourceAlpha" type="matrix" values="0 0 0 0 0 0 0 0 0 0 0 0 0 0 0 0 0 0 127 0" result="hardAlpha"/>
<feOffset dy="6.36908"/>
<feGaussianBlur stdDeviation="20.4607"/>
<feComposite in2="hardAlpha" operator="out"/>
<feColorMatrix type="matrix" values="0 0 0 0 0 0 0 0 0 0 0 0 0 0 0 0 0 0 0.1 0"/>
<feBlend mode="normal" in2="BackgroundImageFix" result="effect1_dropShadow_3897_822"/>
<feBlend mode="normal" in="SourceGraphic" in2="effect1_dropShadow_3897_822" result="shape"/>
</filter>
<clipPath id="clip0_3897_822">
<rect width="580" height="579" fill="white"/>
</clipPath>
</defs>
</svg>
